G04 #@! TF.GenerationSoftware,KiCad,Pcbnew,(6.0.8-1)-1*
G04 #@! TF.CreationDate,2023-04-13T00:42:49-04:00*
G04 #@! TF.ProjectId,featherwing_rs485,66656174-6865-4727-9769-6e675f727334,1*
G04 #@! TF.SameCoordinates,Original*
G04 #@! TF.FileFunction,Paste,Top*
G04 #@! TF.FilePolarity,Positive*
%FSLAX46Y46*%
G04 Gerber Fmt 4.6, Leading zero omitted, Abs format (unit mm)*
G04 Created by KiCad (PCBNEW (6.0.8-1)-1) date 2023-04-13 00:42:49*
%MOMM*%
%LPD*%
G01*
G04 APERTURE LIST*
G04 Aperture macros list*
%AMRoundRect*
0 Rectangle with rounded corners*
0 $1 Rounding radius*
0 $2 $3 $4 $5 $6 $7 $8 $9 X,Y pos of 4 corners*
0 Add a 4 corners polygon primitive as box body*
4,1,4,$2,$3,$4,$5,$6,$7,$8,$9,$2,$3,0*
0 Add four circle primitives for the rounded corners*
1,1,$1+$1,$2,$3*
1,1,$1+$1,$4,$5*
1,1,$1+$1,$6,$7*
1,1,$1+$1,$8,$9*
0 Add four rect primitives between the rounded corners*
20,1,$1+$1,$2,$3,$4,$5,0*
20,1,$1+$1,$4,$5,$6,$7,0*
20,1,$1+$1,$6,$7,$8,$9,0*
20,1,$1+$1,$8,$9,$2,$3,0*%
G04 Aperture macros list end*
%ADD10R,0.760000X6.350000*%
%ADD11R,2.540000X2.940000*%
%ADD12RoundRect,0.200000X-0.275000X0.200000X-0.275000X-0.200000X0.275000X-0.200000X0.275000X0.200000X0*%
%ADD13RoundRect,0.200000X0.200000X0.275000X-0.200000X0.275000X-0.200000X-0.275000X0.200000X-0.275000X0*%
%ADD14RoundRect,0.200000X-0.200000X-0.275000X0.200000X-0.275000X0.200000X0.275000X-0.200000X0.275000X0*%
%ADD15R,1.120000X2.160000*%
%ADD16RoundRect,0.195000X-0.195000X0.195000X-0.195000X-0.195000X0.195000X-0.195000X0.195000X0.195000X0*%
%ADD17RoundRect,0.062500X-0.062500X0.325000X-0.062500X-0.325000X0.062500X-0.325000X0.062500X0.325000X0*%
%ADD18RoundRect,0.062500X-0.325000X0.062500X-0.325000X-0.062500X0.325000X-0.062500X0.325000X0.062500X0*%
%ADD19RoundRect,0.150000X0.150000X-0.587500X0.150000X0.587500X-0.150000X0.587500X-0.150000X-0.587500X0*%
%ADD20RoundRect,0.200000X0.275000X-0.200000X0.275000X0.200000X-0.275000X0.200000X-0.275000X-0.200000X0*%
G04 APERTURE END LIST*
D10*
X79375000Y-116140000D03*
X80645000Y-116140000D03*
X81915000Y-116140000D03*
X83185000Y-116140000D03*
X84455000Y-116140000D03*
X85725000Y-116140000D03*
X86995000Y-116140000D03*
X88265000Y-116140000D03*
D11*
X92285000Y-129415000D03*
X75355000Y-129415000D03*
D12*
X77597000Y-102421000D03*
X77597000Y-104071000D03*
X74676000Y-91753000D03*
X74676000Y-93403000D03*
D13*
X69786000Y-97277000D03*
X68136000Y-97277000D03*
D12*
X71501000Y-102426000D03*
X71501000Y-104076000D03*
X76200000Y-91758000D03*
X76200000Y-93408000D03*
X73533000Y-102426000D03*
X73533000Y-104076000D03*
X75611000Y-102421000D03*
X75611000Y-104071000D03*
D14*
X78169000Y-97155000D03*
X79819000Y-97155000D03*
D13*
X69786000Y-95753000D03*
X68136000Y-95753000D03*
D15*
X77362500Y-64580000D03*
X74822500Y-64580000D03*
X72282500Y-64580000D03*
X69742500Y-64580000D03*
X69742500Y-71310000D03*
X72282500Y-71310000D03*
X74822500Y-71310000D03*
X77362500Y-71310000D03*
D16*
X73972000Y-96954000D03*
X73972000Y-97854000D03*
X74872000Y-97854000D03*
X74872000Y-96954000D03*
D17*
X75172000Y-95916500D03*
X74672000Y-95916500D03*
X74172000Y-95916500D03*
X73672000Y-95916500D03*
D18*
X72934500Y-96654000D03*
X72934500Y-97154000D03*
X72934500Y-97654000D03*
X72934500Y-98154000D03*
D17*
X73672000Y-98891500D03*
X74172000Y-98891500D03*
X74672000Y-98891500D03*
X75172000Y-98891500D03*
D18*
X75909500Y-98154000D03*
X75909500Y-97654000D03*
X75909500Y-97154000D03*
X75909500Y-96654000D03*
D19*
X75631000Y-107871500D03*
X77531000Y-107871500D03*
X76581000Y-105996500D03*
D20*
X77724000Y-93408000D03*
X77724000Y-91758000D03*
D13*
X69786000Y-98801000D03*
X68136000Y-98801000D03*
D10*
X59055000Y-116206000D03*
X60325000Y-116206000D03*
X61595000Y-116206000D03*
X62865000Y-116206000D03*
X64135000Y-116206000D03*
X65405000Y-116206000D03*
X66675000Y-116206000D03*
X67945000Y-116206000D03*
D11*
X55035000Y-129481000D03*
X71965000Y-129481000D03*
D19*
X71567000Y-107871500D03*
X73467000Y-107871500D03*
X72517000Y-105996500D03*
D14*
X78169000Y-98679000D03*
X79819000Y-98679000D03*
M02*
