%TF.GenerationSoftware,KiCad,Pcbnew,(6.0.8-1)-1*%
%TF.CreationDate,2023-04-13T00:43:01-04:00*%
%TF.ProjectId,featherwing_rs485,66656174-6865-4727-9769-6e675f727334,1*%
%TF.SameCoordinates,Original*%
%TF.FileFunction,Drillmap*%
%TF.FilePolarity,Positive*%
%FSLAX45Y45*%
G04 Gerber Fmt 4.5, Leading zero omitted, Abs format (unit mm)*
G04 Created by KiCad (PCBNEW (6.0.8-1)-1) date 2023-04-13 00:43:01*
%MOMM*%
%LPD*%
G01*
G04 APERTURE LIST*
%ADD10C,0.100000*%
%ADD11C,0.200000*%
%ADD12C,0.325000*%
G04 APERTURE END LIST*
D10*
X9652000Y-10922000D02*
X9652000Y-13208000D01*
X8509000Y-10414000D02*
G75*
G03*
X8763000Y-10668000I254000J0D01*
G01*
X5080000Y-13208000D02*
G75*
G03*
X5334000Y-13462000I254000J0D01*
G01*
X5334000Y-13462000D02*
X9398000Y-13462000D01*
X9398000Y-13462000D02*
G75*
G03*
X9652000Y-13208000I0J254000D01*
G01*
X5334000Y-10668000D02*
G75*
G03*
X5080000Y-10922000I0J-254000D01*
G01*
X9652000Y-10922000D02*
G75*
G03*
X9398000Y-10668000I-254000J0D01*
G01*
X8255000Y-5461000D02*
X6477000Y-5461000D01*
X8763000Y-10668000D02*
X9398000Y-10668000D01*
X5080000Y-13208000D02*
X5080000Y-10922000D01*
X8509000Y-5715000D02*
G75*
G03*
X8255000Y-5461000I-254000J0D01*
G01*
X5969000Y-10668000D02*
G75*
G03*
X6223000Y-10414000I0J254000D01*
G01*
X5334000Y-10668000D02*
X5969000Y-10668000D01*
X6477000Y-5461000D02*
G75*
G03*
X6223000Y-5715000I0J-254000D01*
G01*
X6223000Y-5715000D02*
X6223000Y-10414000D01*
X8509000Y-5715000D02*
X8509000Y-10414000D01*
D11*
D12*
X5616000Y-12480600D02*
X5941000Y-12805600D01*
X5941000Y-12480600D02*
X5616000Y-12805600D01*
X6759000Y-12480600D02*
X7084000Y-12805600D01*
X7084000Y-12480600D02*
X6759000Y-12805600D01*
X7648000Y-12474000D02*
X7973000Y-12799000D01*
X7973000Y-12474000D02*
X7648000Y-12799000D01*
X8791000Y-12474000D02*
X9116000Y-12799000D01*
X9116000Y-12474000D02*
X8791000Y-12799000D01*
D11*
X5332619Y-13777476D02*
X5332619Y-13577476D01*
X5380238Y-13577476D01*
X5408810Y-13587000D01*
X5427857Y-13606048D01*
X5437381Y-13625095D01*
X5446905Y-13663190D01*
X5446905Y-13691762D01*
X5437381Y-13729857D01*
X5427857Y-13748905D01*
X5408810Y-13767952D01*
X5380238Y-13777476D01*
X5332619Y-13777476D01*
X5532619Y-13777476D02*
X5532619Y-13644143D01*
X5532619Y-13682238D02*
X5542143Y-13663190D01*
X5551667Y-13653667D01*
X5570714Y-13644143D01*
X5589762Y-13644143D01*
X5656428Y-13777476D02*
X5656428Y-13644143D01*
X5656428Y-13577476D02*
X5646905Y-13587000D01*
X5656428Y-13596524D01*
X5665952Y-13587000D01*
X5656428Y-13577476D01*
X5656428Y-13596524D01*
X5780238Y-13777476D02*
X5761190Y-13767952D01*
X5751667Y-13748905D01*
X5751667Y-13577476D01*
X5885000Y-13777476D02*
X5865952Y-13767952D01*
X5856428Y-13748905D01*
X5856428Y-13577476D01*
X6113571Y-13777476D02*
X6113571Y-13577476D01*
X6180238Y-13720333D01*
X6246905Y-13577476D01*
X6246905Y-13777476D01*
X6427857Y-13777476D02*
X6427857Y-13672714D01*
X6418333Y-13653667D01*
X6399286Y-13644143D01*
X6361190Y-13644143D01*
X6342143Y-13653667D01*
X6427857Y-13767952D02*
X6408809Y-13777476D01*
X6361190Y-13777476D01*
X6342143Y-13767952D01*
X6332619Y-13748905D01*
X6332619Y-13729857D01*
X6342143Y-13710809D01*
X6361190Y-13701286D01*
X6408809Y-13701286D01*
X6427857Y-13691762D01*
X6523095Y-13644143D02*
X6523095Y-13844143D01*
X6523095Y-13653667D02*
X6542143Y-13644143D01*
X6580238Y-13644143D01*
X6599286Y-13653667D01*
X6608809Y-13663190D01*
X6618333Y-13682238D01*
X6618333Y-13739381D01*
X6608809Y-13758428D01*
X6599286Y-13767952D01*
X6580238Y-13777476D01*
X6542143Y-13777476D01*
X6523095Y-13767952D01*
X6704048Y-13758428D02*
X6713571Y-13767952D01*
X6704048Y-13777476D01*
X6694524Y-13767952D01*
X6704048Y-13758428D01*
X6704048Y-13777476D01*
X6704048Y-13653667D02*
X6713571Y-13663190D01*
X6704048Y-13672714D01*
X6694524Y-13663190D01*
X6704048Y-13653667D01*
X6704048Y-13672714D01*
X4875000Y-14007000D02*
X5075000Y-14207000D01*
X5075000Y-14007000D02*
X4875000Y-14207000D01*
X5313571Y-13997476D02*
X5437381Y-13997476D01*
X5370714Y-14073667D01*
X5399286Y-14073667D01*
X5418333Y-14083190D01*
X5427857Y-14092714D01*
X5437381Y-14111762D01*
X5437381Y-14159381D01*
X5427857Y-14178428D01*
X5418333Y-14187952D01*
X5399286Y-14197476D01*
X5342143Y-14197476D01*
X5323095Y-14187952D01*
X5313571Y-14178428D01*
X5523095Y-14178428D02*
X5532619Y-14187952D01*
X5523095Y-14197476D01*
X5513571Y-14187952D01*
X5523095Y-14178428D01*
X5523095Y-14197476D01*
X5608809Y-14016524D02*
X5618333Y-14007000D01*
X5637381Y-13997476D01*
X5685000Y-13997476D01*
X5704048Y-14007000D01*
X5713571Y-14016524D01*
X5723095Y-14035571D01*
X5723095Y-14054619D01*
X5713571Y-14083190D01*
X5599286Y-14197476D01*
X5723095Y-14197476D01*
X5904048Y-13997476D02*
X5808809Y-13997476D01*
X5799286Y-14092714D01*
X5808809Y-14083190D01*
X5827857Y-14073667D01*
X5875476Y-14073667D01*
X5894524Y-14083190D01*
X5904048Y-14092714D01*
X5913571Y-14111762D01*
X5913571Y-14159381D01*
X5904048Y-14178428D01*
X5894524Y-14187952D01*
X5875476Y-14197476D01*
X5827857Y-14197476D01*
X5808809Y-14187952D01*
X5799286Y-14178428D01*
X6037381Y-13997476D02*
X6056428Y-13997476D01*
X6075476Y-14007000D01*
X6085000Y-14016524D01*
X6094524Y-14035571D01*
X6104048Y-14073667D01*
X6104048Y-14121286D01*
X6094524Y-14159381D01*
X6085000Y-14178428D01*
X6075476Y-14187952D01*
X6056428Y-14197476D01*
X6037381Y-14197476D01*
X6018333Y-14187952D01*
X6008809Y-14178428D01*
X5999286Y-14159381D01*
X5989762Y-14121286D01*
X5989762Y-14073667D01*
X5999286Y-14035571D01*
X6008809Y-14016524D01*
X6018333Y-14007000D01*
X6037381Y-13997476D01*
X6189762Y-14197476D02*
X6189762Y-14064143D01*
X6189762Y-14083190D02*
X6199286Y-14073667D01*
X6218333Y-14064143D01*
X6246905Y-14064143D01*
X6265952Y-14073667D01*
X6275476Y-14092714D01*
X6275476Y-14197476D01*
X6275476Y-14092714D02*
X6285000Y-14073667D01*
X6304048Y-14064143D01*
X6332619Y-14064143D01*
X6351667Y-14073667D01*
X6361190Y-14092714D01*
X6361190Y-14197476D01*
X6456428Y-14197476D02*
X6456428Y-14064143D01*
X6456428Y-14083190D02*
X6465952Y-14073667D01*
X6485000Y-14064143D01*
X6513571Y-14064143D01*
X6532619Y-14073667D01*
X6542143Y-14092714D01*
X6542143Y-14197476D01*
X6542143Y-14092714D02*
X6551667Y-14073667D01*
X6570714Y-14064143D01*
X6599286Y-14064143D01*
X6618333Y-14073667D01*
X6627857Y-14092714D01*
X6627857Y-14197476D01*
X7018333Y-13987952D02*
X6846905Y-14245095D01*
X7275476Y-13997476D02*
X7294524Y-13997476D01*
X7313571Y-14007000D01*
X7323095Y-14016524D01*
X7332619Y-14035571D01*
X7342143Y-14073667D01*
X7342143Y-14121286D01*
X7332619Y-14159381D01*
X7323095Y-14178428D01*
X7313571Y-14187952D01*
X7294524Y-14197476D01*
X7275476Y-14197476D01*
X7256428Y-14187952D01*
X7246905Y-14178428D01*
X7237381Y-14159381D01*
X7227857Y-14121286D01*
X7227857Y-14073667D01*
X7237381Y-14035571D01*
X7246905Y-14016524D01*
X7256428Y-14007000D01*
X7275476Y-13997476D01*
X7427857Y-14178428D02*
X7437381Y-14187952D01*
X7427857Y-14197476D01*
X7418333Y-14187952D01*
X7427857Y-14178428D01*
X7427857Y-14197476D01*
X7627857Y-14197476D02*
X7513571Y-14197476D01*
X7570714Y-14197476D02*
X7570714Y-13997476D01*
X7551667Y-14026048D01*
X7532619Y-14045095D01*
X7513571Y-14054619D01*
X7704048Y-14016524D02*
X7713571Y-14007000D01*
X7732619Y-13997476D01*
X7780238Y-13997476D01*
X7799286Y-14007000D01*
X7808809Y-14016524D01*
X7818333Y-14035571D01*
X7818333Y-14054619D01*
X7808809Y-14083190D01*
X7694524Y-14197476D01*
X7818333Y-14197476D01*
X7932619Y-14083190D02*
X7913571Y-14073667D01*
X7904048Y-14064143D01*
X7894524Y-14045095D01*
X7894524Y-14035571D01*
X7904048Y-14016524D01*
X7913571Y-14007000D01*
X7932619Y-13997476D01*
X7970714Y-13997476D01*
X7989762Y-14007000D01*
X7999286Y-14016524D01*
X8008809Y-14035571D01*
X8008809Y-14045095D01*
X7999286Y-14064143D01*
X7989762Y-14073667D01*
X7970714Y-14083190D01*
X7932619Y-14083190D01*
X7913571Y-14092714D01*
X7904048Y-14102238D01*
X7894524Y-14121286D01*
X7894524Y-14159381D01*
X7904048Y-14178428D01*
X7913571Y-14187952D01*
X7932619Y-14197476D01*
X7970714Y-14197476D01*
X7989762Y-14187952D01*
X7999286Y-14178428D01*
X8008809Y-14159381D01*
X8008809Y-14121286D01*
X7999286Y-14102238D01*
X7989762Y-14092714D01*
X7970714Y-14083190D01*
X8132619Y-13997476D02*
X8151667Y-13997476D01*
X8170714Y-14007000D01*
X8180238Y-14016524D01*
X8189762Y-14035571D01*
X8199286Y-14073667D01*
X8199286Y-14121286D01*
X8189762Y-14159381D01*
X8180238Y-14178428D01*
X8170714Y-14187952D01*
X8151667Y-14197476D01*
X8132619Y-14197476D01*
X8113571Y-14187952D01*
X8104048Y-14178428D01*
X8094524Y-14159381D01*
X8085000Y-14121286D01*
X8085000Y-14073667D01*
X8094524Y-14035571D01*
X8104048Y-14016524D01*
X8113571Y-14007000D01*
X8132619Y-13997476D01*
X8275476Y-13997476D02*
X8275476Y-14035571D01*
X8351667Y-13997476D02*
X8351667Y-14035571D01*
X8646905Y-14273667D02*
X8637381Y-14264143D01*
X8618333Y-14235571D01*
X8608810Y-14216524D01*
X8599286Y-14187952D01*
X8589762Y-14140333D01*
X8589762Y-14102238D01*
X8599286Y-14054619D01*
X8608810Y-14026048D01*
X8618333Y-14007000D01*
X8637381Y-13978428D01*
X8646905Y-13968905D01*
X8808810Y-14064143D02*
X8808810Y-14197476D01*
X8761190Y-13987952D02*
X8713571Y-14130809D01*
X8837381Y-14130809D01*
X9065952Y-14197476D02*
X9065952Y-13997476D01*
X9151667Y-14197476D02*
X9151667Y-14092714D01*
X9142143Y-14073667D01*
X9123095Y-14064143D01*
X9094524Y-14064143D01*
X9075476Y-14073667D01*
X9065952Y-14083190D01*
X9275476Y-14197476D02*
X9256429Y-14187952D01*
X9246905Y-14178428D01*
X9237381Y-14159381D01*
X9237381Y-14102238D01*
X9246905Y-14083190D01*
X9256429Y-14073667D01*
X9275476Y-14064143D01*
X9304048Y-14064143D01*
X9323095Y-14073667D01*
X9332619Y-14083190D01*
X9342143Y-14102238D01*
X9342143Y-14159381D01*
X9332619Y-14178428D01*
X9323095Y-14187952D01*
X9304048Y-14197476D01*
X9275476Y-14197476D01*
X9456429Y-14197476D02*
X9437381Y-14187952D01*
X9427857Y-14168905D01*
X9427857Y-13997476D01*
X9608810Y-14187952D02*
X9589762Y-14197476D01*
X9551667Y-14197476D01*
X9532619Y-14187952D01*
X9523095Y-14168905D01*
X9523095Y-14092714D01*
X9532619Y-14073667D01*
X9551667Y-14064143D01*
X9589762Y-14064143D01*
X9608810Y-14073667D01*
X9618333Y-14092714D01*
X9618333Y-14111762D01*
X9523095Y-14130809D01*
X9694524Y-14187952D02*
X9713571Y-14197476D01*
X9751667Y-14197476D01*
X9770714Y-14187952D01*
X9780238Y-14168905D01*
X9780238Y-14159381D01*
X9770714Y-14140333D01*
X9751667Y-14130809D01*
X9723095Y-14130809D01*
X9704048Y-14121286D01*
X9694524Y-14102238D01*
X9694524Y-14092714D01*
X9704048Y-14073667D01*
X9723095Y-14064143D01*
X9751667Y-14064143D01*
X9770714Y-14073667D01*
X9846905Y-14273667D02*
X9856429Y-14264143D01*
X9875476Y-14235571D01*
X9885000Y-14216524D01*
X9894524Y-14187952D01*
X9904048Y-14140333D01*
X9904048Y-14102238D01*
X9894524Y-14054619D01*
X9885000Y-14026048D01*
X9875476Y-14007000D01*
X9856429Y-13978428D01*
X9846905Y-13968905D01*
X10208810Y-14273667D02*
X10199286Y-14264143D01*
X10180238Y-14235571D01*
X10170714Y-14216524D01*
X10161190Y-14187952D01*
X10151667Y-14140333D01*
X10151667Y-14102238D01*
X10161190Y-14054619D01*
X10170714Y-14026048D01*
X10180238Y-14007000D01*
X10199286Y-13978428D01*
X10208810Y-13968905D01*
X10285000Y-14064143D02*
X10285000Y-14197476D01*
X10285000Y-14083190D02*
X10294524Y-14073667D01*
X10313571Y-14064143D01*
X10342143Y-14064143D01*
X10361190Y-14073667D01*
X10370714Y-14092714D01*
X10370714Y-14197476D01*
X10494524Y-14197476D02*
X10475476Y-14187952D01*
X10465952Y-14178428D01*
X10456429Y-14159381D01*
X10456429Y-14102238D01*
X10465952Y-14083190D01*
X10475476Y-14073667D01*
X10494524Y-14064143D01*
X10523095Y-14064143D01*
X10542143Y-14073667D01*
X10551667Y-14083190D01*
X10561190Y-14102238D01*
X10561190Y-14159381D01*
X10551667Y-14178428D01*
X10542143Y-14187952D01*
X10523095Y-14197476D01*
X10494524Y-14197476D01*
X10618333Y-14064143D02*
X10694524Y-14064143D01*
X10646905Y-13997476D02*
X10646905Y-14168905D01*
X10656429Y-14187952D01*
X10675476Y-14197476D01*
X10694524Y-14197476D01*
X10913571Y-14064143D02*
X10913571Y-14264143D01*
X10913571Y-14073667D02*
X10932619Y-14064143D01*
X10970714Y-14064143D01*
X10989762Y-14073667D01*
X10999286Y-14083190D01*
X11008810Y-14102238D01*
X11008810Y-14159381D01*
X10999286Y-14178428D01*
X10989762Y-14187952D01*
X10970714Y-14197476D01*
X10932619Y-14197476D01*
X10913571Y-14187952D01*
X11123095Y-14197476D02*
X11104048Y-14187952D01*
X11094524Y-14168905D01*
X11094524Y-13997476D01*
X11285000Y-14197476D02*
X11285000Y-14092714D01*
X11275476Y-14073667D01*
X11256428Y-14064143D01*
X11218333Y-14064143D01*
X11199286Y-14073667D01*
X11285000Y-14187952D02*
X11265952Y-14197476D01*
X11218333Y-14197476D01*
X11199286Y-14187952D01*
X11189762Y-14168905D01*
X11189762Y-14149857D01*
X11199286Y-14130809D01*
X11218333Y-14121286D01*
X11265952Y-14121286D01*
X11285000Y-14111762D01*
X11351667Y-14064143D02*
X11427857Y-14064143D01*
X11380238Y-13997476D02*
X11380238Y-14168905D01*
X11389762Y-14187952D01*
X11408809Y-14197476D01*
X11427857Y-14197476D01*
X11570714Y-14187952D02*
X11551667Y-14197476D01*
X11513571Y-14197476D01*
X11494524Y-14187952D01*
X11485000Y-14168905D01*
X11485000Y-14092714D01*
X11494524Y-14073667D01*
X11513571Y-14064143D01*
X11551667Y-14064143D01*
X11570714Y-14073667D01*
X11580238Y-14092714D01*
X11580238Y-14111762D01*
X11485000Y-14130809D01*
X11751667Y-14197476D02*
X11751667Y-13997476D01*
X11751667Y-14187952D02*
X11732619Y-14197476D01*
X11694524Y-14197476D01*
X11675476Y-14187952D01*
X11665952Y-14178428D01*
X11656428Y-14159381D01*
X11656428Y-14102238D01*
X11665952Y-14083190D01*
X11675476Y-14073667D01*
X11694524Y-14064143D01*
X11732619Y-14064143D01*
X11751667Y-14073667D01*
X11827857Y-14273667D02*
X11837381Y-14264143D01*
X11856428Y-14235571D01*
X11865952Y-14216524D01*
X11875476Y-14187952D01*
X11885000Y-14140333D01*
X11885000Y-14102238D01*
X11875476Y-14054619D01*
X11865952Y-14026048D01*
X11856428Y-14007000D01*
X11837381Y-13978428D01*
X11827857Y-13968905D01*
M02*
