G04 #@! TF.GenerationSoftware,KiCad,Pcbnew,(6.0.8-1)-1*
G04 #@! TF.CreationDate,2023-04-13T00:42:49-04:00*
G04 #@! TF.ProjectId,featherwing_rs485,66656174-6865-4727-9769-6e675f727334,1*
G04 #@! TF.SameCoordinates,Original*
G04 #@! TF.FileFunction,Copper,L2,Bot*
G04 #@! TF.FilePolarity,Positive*
%FSLAX46Y46*%
G04 Gerber Fmt 4.6, Leading zero omitted, Abs format (unit mm)*
G04 Created by KiCad (PCBNEW (6.0.8-1)-1) date 2023-04-13 00:42:49*
%MOMM*%
%LPD*%
G01*
G04 APERTURE LIST*
G04 #@! TA.AperFunction,ComponentPad*
%ADD10C,3.302000*%
G04 #@! TD*
G04 #@! TA.AperFunction,ComponentPad*
%ADD11C,0.500000*%
G04 #@! TD*
G04 #@! TA.AperFunction,SMDPad,CuDef*
%ADD12R,1.800000X1.800000*%
G04 #@! TD*
G04 #@! TA.AperFunction,ComponentPad*
%ADD13R,1.600000X1.600000*%
G04 #@! TD*
G04 #@! TA.AperFunction,ComponentPad*
%ADD14C,1.600000*%
G04 #@! TD*
G04 #@! TA.AperFunction,ViaPad*
%ADD15C,0.800000*%
G04 #@! TD*
G04 #@! TA.AperFunction,Conductor*
%ADD16C,0.250000*%
G04 #@! TD*
G04 #@! TA.AperFunction,Conductor*
%ADD17C,0.381000*%
G04 #@! TD*
G04 APERTURE END LIST*
D10*
X82550000Y-57150000D03*
X82550000Y-102870000D03*
X53340000Y-109220000D03*
X64770000Y-57150000D03*
X53340000Y-123190000D03*
D11*
X75072000Y-98054000D03*
X75072000Y-96754000D03*
X73772000Y-98054000D03*
X73772000Y-96754000D03*
D12*
X74422000Y-97404000D03*
D10*
X93980000Y-109220000D03*
X64770000Y-102870000D03*
X93980000Y-123190000D03*
D13*
X63500000Y-60960000D03*
D14*
X63500000Y-63500000D03*
X63500000Y-66040000D03*
X63500000Y-68580000D03*
X63500000Y-71120000D03*
X63500000Y-73660000D03*
X63500000Y-76200000D03*
X63500000Y-78740000D03*
X63500000Y-81280000D03*
X63500000Y-83820000D03*
X63500000Y-86360000D03*
X63500000Y-88900000D03*
X63500000Y-91440000D03*
X63500000Y-93980000D03*
X63500000Y-96520000D03*
X63500000Y-99060000D03*
X83820000Y-99060000D03*
X83820000Y-96520000D03*
X83820000Y-93980000D03*
X83820000Y-91440000D03*
X83820000Y-88900000D03*
X83820000Y-86360000D03*
X83820000Y-83820000D03*
X83820000Y-81280000D03*
X83820000Y-78740000D03*
X83820000Y-76200000D03*
X83820000Y-73660000D03*
X83820000Y-71120000D03*
D15*
X67818000Y-90728800D03*
X69748400Y-129438400D03*
X72517000Y-104902000D03*
X68122800Y-93472000D03*
X68122800Y-99974400D03*
X77470000Y-129438400D03*
X79857600Y-99872800D03*
X89916000Y-129387600D03*
X81584800Y-94691200D03*
X57150000Y-129489200D03*
X77724000Y-90474800D03*
X76581000Y-104902000D03*
X76098400Y-83312000D03*
X78587600Y-83312000D03*
X70673500Y-109253500D03*
X80019768Y-110607232D03*
X80762232Y-109864768D03*
X72390000Y-108999500D03*
X75692000Y-94792800D03*
X66802000Y-94538800D03*
X74172000Y-94644400D03*
X84083768Y-111877232D03*
X64411769Y-111722937D03*
X65913000Y-111633000D03*
X84826232Y-111134768D03*
X69748400Y-93268800D03*
X70815200Y-95758000D03*
X71729600Y-93421200D03*
X71085600Y-97654000D03*
X71429800Y-98801000D03*
X72948800Y-93522800D03*
D16*
X78587600Y-83312000D02*
X76098400Y-83312000D01*
D17*
X80019768Y-110310953D02*
X79498315Y-109789500D01*
X80019768Y-110607232D02*
X80019768Y-110310953D01*
X79498315Y-109789500D02*
X71209500Y-109789500D01*
X71209500Y-109789500D02*
X70673500Y-109253500D01*
X79759685Y-109158500D02*
X72390000Y-109158500D01*
X80465953Y-109864768D02*
X79759685Y-109158500D01*
X72390000Y-109158500D02*
X72390000Y-108999500D01*
X80762232Y-109864768D02*
X80465953Y-109864768D01*
D16*
X63500000Y-93980000D02*
X65328801Y-92151199D01*
X73050399Y-92151199D02*
X75692000Y-94792800D01*
X65328801Y-92151199D02*
X73050399Y-92151199D01*
X64820800Y-96520000D02*
X63500000Y-96520000D01*
X66802000Y-94538800D02*
X64820800Y-96520000D01*
X83820000Y-93980000D02*
X82282200Y-95517800D01*
X75045400Y-95517800D02*
X74172000Y-94644400D01*
X82282200Y-95517800D02*
X75045400Y-95517800D01*
D17*
X83972304Y-111765768D02*
X81339418Y-111765768D01*
X79759686Y-113345500D02*
X66034332Y-113345500D01*
X81339418Y-111765768D02*
X79759686Y-113345500D01*
X84083768Y-111877232D02*
X83972304Y-111765768D01*
X66034332Y-113345500D02*
X64411769Y-111722937D01*
X65913000Y-112395000D02*
X65913000Y-111633000D01*
X81078046Y-111134768D02*
X79498314Y-112714500D01*
X84755518Y-111134768D02*
X84497982Y-110877232D01*
X84826232Y-111134768D02*
X84755518Y-111134768D01*
X83412018Y-111134768D02*
X81078046Y-111134768D01*
X84497982Y-110877232D02*
X83669554Y-110877232D01*
X66232500Y-112714500D02*
X65913000Y-112395000D01*
X66421000Y-112714500D02*
X66232500Y-112714500D01*
X83669554Y-110877232D02*
X83412018Y-111134768D01*
X79498314Y-112714500D02*
X66421000Y-112714500D01*
D16*
X69748400Y-93268800D02*
X69748400Y-94691200D01*
X69748400Y-94691200D02*
X70815200Y-95758000D01*
X71729600Y-93421200D02*
X71729600Y-97010000D01*
X71729600Y-97010000D02*
X71085600Y-97654000D01*
X72339200Y-94132400D02*
X72339200Y-97891600D01*
X72339200Y-97891600D02*
X71429800Y-98801000D01*
X72948800Y-93522800D02*
X72339200Y-94132400D01*
G04 #@! TA.AperFunction,Conductor*
G36*
X68845138Y-92804701D02*
G01*
X68891631Y-92858357D01*
X68901735Y-92928631D01*
X68896850Y-92949635D01*
X68854858Y-93078872D01*
X68834896Y-93268800D01*
X68854858Y-93458728D01*
X68913873Y-93640356D01*
X69009360Y-93805744D01*
X69082537Y-93887015D01*
X69113253Y-93951021D01*
X69114900Y-93971324D01*
X69114900Y-94612433D01*
X69114373Y-94623616D01*
X69112698Y-94631109D01*
X69112947Y-94639035D01*
X69112947Y-94639036D01*
X69114838Y-94699186D01*
X69114900Y-94703145D01*
X69114900Y-94731056D01*
X69115397Y-94734990D01*
X69115397Y-94734991D01*
X69115405Y-94735056D01*
X69116338Y-94746893D01*
X69117727Y-94791089D01*
X69123378Y-94810539D01*
X69127387Y-94829900D01*
X69128740Y-94840606D01*
X69129926Y-94849997D01*
X69132845Y-94857368D01*
X69132845Y-94857370D01*
X69146204Y-94891112D01*
X69150049Y-94902342D01*
X69162382Y-94944793D01*
X69166415Y-94951612D01*
X69166417Y-94951617D01*
X69172693Y-94962228D01*
X69181388Y-94979976D01*
X69188848Y-94998817D01*
X69193510Y-95005233D01*
X69193510Y-95005234D01*
X69214836Y-95034587D01*
X69221352Y-95044507D01*
X69243858Y-95082562D01*
X69258179Y-95096883D01*
X69271019Y-95111916D01*
X69282928Y-95128307D01*
X69289034Y-95133358D01*
X69317005Y-95156498D01*
X69325784Y-95164488D01*
X69868078Y-95706782D01*
X69902104Y-95769094D01*
X69904293Y-95782707D01*
X69918334Y-95916298D01*
X69921658Y-95947928D01*
X69980673Y-96129556D01*
X69983976Y-96135278D01*
X69983977Y-96135279D01*
X69992397Y-96149862D01*
X70076160Y-96294944D01*
X70080578Y-96299851D01*
X70080579Y-96299852D01*
X70199525Y-96431955D01*
X70203947Y-96436866D01*
X70358448Y-96549118D01*
X70364476Y-96551802D01*
X70364478Y-96551803D01*
X70526881Y-96624109D01*
X70532912Y-96626794D01*
X70581854Y-96637197D01*
X70644327Y-96670926D01*
X70678649Y-96733075D01*
X70673921Y-96803914D01*
X70631645Y-96860952D01*
X70628811Y-96862831D01*
X70628848Y-96862882D01*
X70474347Y-96975134D01*
X70469926Y-96980044D01*
X70469925Y-96980045D01*
X70356499Y-97106018D01*
X70346560Y-97117056D01*
X70251073Y-97282444D01*
X70192058Y-97464072D01*
X70172096Y-97654000D01*
X70172786Y-97660565D01*
X70182775Y-97755601D01*
X70192058Y-97843928D01*
X70251073Y-98025556D01*
X70254376Y-98031278D01*
X70254377Y-98031279D01*
X70265557Y-98050643D01*
X70346560Y-98190944D01*
X70350978Y-98195851D01*
X70350979Y-98195852D01*
X70372912Y-98220211D01*
X70474347Y-98332866D01*
X70496102Y-98348672D01*
X70523504Y-98368581D01*
X70566858Y-98424804D01*
X70572933Y-98495540D01*
X70569276Y-98509453D01*
X70536258Y-98611072D01*
X70535568Y-98617633D01*
X70535568Y-98617635D01*
X70529824Y-98672285D01*
X70516296Y-98801000D01*
X70536258Y-98990928D01*
X70595273Y-99172556D01*
X70690760Y-99337944D01*
X70818547Y-99479866D01*
X70973048Y-99592118D01*
X70979076Y-99594802D01*
X70979078Y-99594803D01*
X71141481Y-99667109D01*
X71147512Y-99669794D01*
X71240913Y-99689647D01*
X71327856Y-99708128D01*
X71327861Y-99708128D01*
X71334313Y-99709500D01*
X71525287Y-99709500D01*
X71531739Y-99708128D01*
X71531744Y-99708128D01*
X71618687Y-99689647D01*
X71712088Y-99669794D01*
X71718119Y-99667109D01*
X71880522Y-99594803D01*
X71880524Y-99594802D01*
X71886552Y-99592118D01*
X72041053Y-99479866D01*
X72168840Y-99337944D01*
X72264327Y-99172556D01*
X72323342Y-98990928D01*
X72340707Y-98825708D01*
X72367720Y-98760051D01*
X72376922Y-98749782D01*
X72731458Y-98395247D01*
X72739737Y-98387713D01*
X72746218Y-98383600D01*
X72792844Y-98333948D01*
X72795598Y-98331107D01*
X72804587Y-98322118D01*
X72866899Y-98288092D01*
X72937714Y-98293157D01*
X72994550Y-98335704D01*
X73018945Y-98397607D01*
X73019895Y-98406352D01*
X73023521Y-98421604D01*
X73068676Y-98542054D01*
X73077214Y-98557649D01*
X73153715Y-98659724D01*
X73166276Y-98672285D01*
X73268351Y-98748786D01*
X73283946Y-98757324D01*
X73404394Y-98802478D01*
X73419649Y-98806105D01*
X73470514Y-98811631D01*
X73477328Y-98812000D01*
X73712964Y-98812000D01*
X73729628Y-98813107D01*
X73749043Y-98815697D01*
X73763040Y-98815991D01*
X73801187Y-98812519D01*
X73812607Y-98812000D01*
X74149885Y-98812000D01*
X74165124Y-98807525D01*
X74166329Y-98806135D01*
X74167224Y-98802017D01*
X74166029Y-98797947D01*
X74677193Y-98797947D01*
X74680475Y-98809123D01*
X74681865Y-98810328D01*
X74689548Y-98811999D01*
X75012957Y-98811999D01*
X75029622Y-98813106D01*
X75049044Y-98815698D01*
X75063040Y-98815991D01*
X75101195Y-98812518D01*
X75112615Y-98811999D01*
X75366669Y-98811999D01*
X75373490Y-98811629D01*
X75424352Y-98806105D01*
X75439604Y-98802479D01*
X75560054Y-98757324D01*
X75575649Y-98748786D01*
X75677724Y-98672285D01*
X75690285Y-98659724D01*
X75766786Y-98557649D01*
X75775324Y-98542054D01*
X75820478Y-98421606D01*
X75824105Y-98406351D01*
X75829631Y-98355486D01*
X75830000Y-98348672D01*
X75830000Y-98116124D01*
X75831226Y-98098588D01*
X75833948Y-98079222D01*
X75834554Y-98071338D01*
X75834741Y-98057962D01*
X75834354Y-98050062D01*
X75830785Y-98018240D01*
X75830000Y-98004195D01*
X75830000Y-97676115D01*
X75825525Y-97660876D01*
X75824135Y-97659671D01*
X75820017Y-97658776D01*
X75807419Y-97662475D01*
X75789616Y-97683021D01*
X75784183Y-97694917D01*
X75778054Y-97701499D01*
X74722041Y-98757512D01*
X74705410Y-98766594D01*
X74707477Y-98769355D01*
X74680258Y-98789731D01*
X74677193Y-98797947D01*
X74166029Y-98797947D01*
X74163525Y-98789419D01*
X74142979Y-98771616D01*
X74131083Y-98766183D01*
X74124501Y-98760054D01*
X73419579Y-98055132D01*
X74130751Y-98055132D01*
X74130882Y-98056965D01*
X74135133Y-98063580D01*
X74155188Y-98083635D01*
X74165277Y-98089144D01*
X74168000Y-98081843D01*
X74168000Y-98078332D01*
X74676000Y-98078332D01*
X74679237Y-98089357D01*
X74686328Y-98086119D01*
X74705635Y-98066812D01*
X74713249Y-98052868D01*
X74713118Y-98051035D01*
X74708867Y-98044420D01*
X74688812Y-98024365D01*
X74678723Y-98018856D01*
X74676000Y-98026157D01*
X74676000Y-98078332D01*
X74168000Y-98078332D01*
X74168000Y-98029668D01*
X74164763Y-98018643D01*
X74157672Y-98021881D01*
X74138365Y-98041188D01*
X74130751Y-98055132D01*
X73419579Y-98055132D01*
X73120048Y-97755601D01*
X73086022Y-97693289D01*
X73091087Y-97622474D01*
X73120048Y-97577411D01*
X73293458Y-97404001D01*
X73296321Y-97406864D01*
X73297087Y-97406097D01*
X73294326Y-97403132D01*
X73293458Y-97404000D01*
X73291362Y-97401904D01*
X73471923Y-97401904D01*
X73474684Y-97404869D01*
X73475553Y-97404000D01*
X73759188Y-97687635D01*
X73773132Y-97695249D01*
X73774965Y-97695118D01*
X73781580Y-97690867D01*
X73811210Y-97661237D01*
X75036643Y-97661237D01*
X75039881Y-97668328D01*
X75059188Y-97687635D01*
X75073132Y-97695249D01*
X75074965Y-97695118D01*
X75081580Y-97690867D01*
X75101635Y-97670812D01*
X75107144Y-97660723D01*
X75099843Y-97658000D01*
X75047668Y-97658000D01*
X75036643Y-97661237D01*
X73811210Y-97661237D01*
X74055635Y-97416812D01*
X74063249Y-97402868D01*
X74063118Y-97401035D01*
X74058867Y-97394420D01*
X73811724Y-97147277D01*
X75036856Y-97147277D01*
X75044157Y-97150000D01*
X75096332Y-97150000D01*
X75107357Y-97146763D01*
X75104119Y-97139672D01*
X75084812Y-97120365D01*
X75070868Y-97112751D01*
X75069035Y-97112882D01*
X75062420Y-97117133D01*
X75042365Y-97137188D01*
X75036856Y-97147277D01*
X73811724Y-97147277D01*
X73784812Y-97120365D01*
X73770868Y-97112751D01*
X73769035Y-97112882D01*
X73762420Y-97117133D01*
X73475553Y-97404000D01*
X73472690Y-97401137D01*
X73471923Y-97401904D01*
X73291362Y-97401904D01*
X73207729Y-97318271D01*
X73120047Y-97230590D01*
X73086021Y-97168278D01*
X73091086Y-97097463D01*
X73120047Y-97052400D01*
X73417315Y-96755132D01*
X74130751Y-96755132D01*
X74130882Y-96756965D01*
X74135133Y-96763580D01*
X74155188Y-96783635D01*
X74165277Y-96789144D01*
X74168000Y-96781843D01*
X74168000Y-96778332D01*
X74676000Y-96778332D01*
X74679237Y-96789357D01*
X74686328Y-96786119D01*
X74705635Y-96766812D01*
X74713249Y-96752868D01*
X74713118Y-96751035D01*
X74708867Y-96744420D01*
X74688812Y-96724365D01*
X74678723Y-96718856D01*
X74676000Y-96726157D01*
X74676000Y-96778332D01*
X74168000Y-96778332D01*
X74168000Y-96729668D01*
X74164763Y-96718643D01*
X74157672Y-96721881D01*
X74138365Y-96741188D01*
X74130751Y-96755132D01*
X73417315Y-96755132D01*
X74121959Y-96050488D01*
X74138590Y-96041406D01*
X74136523Y-96038645D01*
X74163742Y-96018269D01*
X74166807Y-96010053D01*
X74163525Y-95998877D01*
X74162135Y-95997672D01*
X74154452Y-95996001D01*
X73824883Y-95996001D01*
X73809964Y-95995115D01*
X73784318Y-95992057D01*
X73770321Y-95991959D01*
X73738430Y-95995311D01*
X73725260Y-95996001D01*
X73477331Y-95996001D01*
X73470510Y-95996371D01*
X73419648Y-96001895D01*
X73404396Y-96005521D01*
X73283946Y-96050676D01*
X73268352Y-96059214D01*
X73174265Y-96129728D01*
X73107759Y-96154576D01*
X73038376Y-96139523D01*
X72988146Y-96089349D01*
X72972700Y-96028902D01*
X72972700Y-94548549D01*
X72992702Y-94480428D01*
X73046358Y-94433935D01*
X73072499Y-94425303D01*
X73116667Y-94415915D01*
X73187457Y-94421317D01*
X73244090Y-94464134D01*
X73268583Y-94530772D01*
X73268173Y-94552327D01*
X73258496Y-94644400D01*
X73259186Y-94650965D01*
X73275969Y-94810642D01*
X73278458Y-94834328D01*
X73337473Y-95015956D01*
X73340776Y-95021678D01*
X73340777Y-95021679D01*
X73351004Y-95039392D01*
X73432960Y-95181344D01*
X73437378Y-95186251D01*
X73437379Y-95186252D01*
X73494778Y-95250000D01*
X73560747Y-95323266D01*
X73715248Y-95435518D01*
X73721276Y-95438202D01*
X73721278Y-95438203D01*
X73748177Y-95450179D01*
X73889712Y-95513194D01*
X73983113Y-95533047D01*
X74070056Y-95551528D01*
X74070061Y-95551528D01*
X74076513Y-95552900D01*
X74132405Y-95552900D01*
X74200526Y-95572902D01*
X74221500Y-95589805D01*
X74541748Y-95910053D01*
X74549288Y-95918339D01*
X74553400Y-95924818D01*
X74559177Y-95930243D01*
X74603051Y-95971443D01*
X74605893Y-95974198D01*
X74625630Y-95993935D01*
X74628827Y-95996415D01*
X74637847Y-96004118D01*
X74670079Y-96034386D01*
X74677025Y-96038205D01*
X74677028Y-96038207D01*
X74687834Y-96044148D01*
X74704353Y-96054999D01*
X74720359Y-96067414D01*
X74727634Y-96070562D01*
X74731107Y-96072065D01*
X74770159Y-96098606D01*
X75775512Y-97103959D01*
X75784594Y-97120590D01*
X75787355Y-97118523D01*
X75807731Y-97145742D01*
X75815947Y-97148807D01*
X75827123Y-97145525D01*
X75828328Y-97144135D01*
X75829999Y-97136452D01*
X75829999Y-96816130D01*
X75831225Y-96798593D01*
X75833948Y-96779219D01*
X75834554Y-96771340D01*
X75834741Y-96757962D01*
X75834354Y-96750062D01*
X75830784Y-96718233D01*
X75829999Y-96704188D01*
X75829999Y-96459331D01*
X75829629Y-96452510D01*
X75824105Y-96401648D01*
X75820478Y-96386393D01*
X75796162Y-96321529D01*
X75790979Y-96250722D01*
X75824900Y-96188353D01*
X75887156Y-96154224D01*
X75914144Y-96151300D01*
X82203433Y-96151300D01*
X82214616Y-96151827D01*
X82222109Y-96153502D01*
X82230035Y-96153253D01*
X82230036Y-96153253D01*
X82290186Y-96151362D01*
X82294145Y-96151300D01*
X82322056Y-96151300D01*
X82325991Y-96150803D01*
X82326056Y-96150795D01*
X82337893Y-96149862D01*
X82382089Y-96148473D01*
X82384997Y-96147628D01*
X82453249Y-96156449D01*
X82507562Y-96202172D01*
X82528534Y-96270000D01*
X82526909Y-96290226D01*
X82526457Y-96291913D01*
X82506502Y-96520000D01*
X82526457Y-96748087D01*
X82527881Y-96753400D01*
X82527881Y-96753402D01*
X82580934Y-96951395D01*
X82585716Y-96969243D01*
X82588039Y-96974224D01*
X82588039Y-96974225D01*
X82680151Y-97171762D01*
X82680154Y-97171767D01*
X82682477Y-97176749D01*
X82813802Y-97364300D01*
X82975700Y-97526198D01*
X82980208Y-97529355D01*
X82980211Y-97529357D01*
X83058389Y-97584098D01*
X83163251Y-97657523D01*
X83168233Y-97659846D01*
X83168238Y-97659849D01*
X83202457Y-97675805D01*
X83255742Y-97722722D01*
X83275203Y-97790999D01*
X83254661Y-97858959D01*
X83202457Y-97904195D01*
X83168238Y-97920151D01*
X83168233Y-97920154D01*
X83163251Y-97922477D01*
X83058389Y-97995902D01*
X82980211Y-98050643D01*
X82980208Y-98050645D01*
X82975700Y-98053802D01*
X82813802Y-98215700D01*
X82810645Y-98220208D01*
X82810643Y-98220211D01*
X82763112Y-98288092D01*
X82682477Y-98403251D01*
X82680154Y-98408233D01*
X82680151Y-98408238D01*
X82588039Y-98605775D01*
X82585716Y-98610757D01*
X82584294Y-98616065D01*
X82584293Y-98616067D01*
X82527881Y-98826598D01*
X82526457Y-98831913D01*
X82506502Y-99060000D01*
X82526457Y-99288087D01*
X82585716Y-99509243D01*
X82588039Y-99514224D01*
X82588039Y-99514225D01*
X82680151Y-99711762D01*
X82680154Y-99711767D01*
X82682477Y-99716749D01*
X82813802Y-99904300D01*
X82975700Y-100066198D01*
X82980208Y-100069355D01*
X82980211Y-100069357D01*
X83058389Y-100124098D01*
X83163251Y-100197523D01*
X83168233Y-100199846D01*
X83168238Y-100199849D01*
X83336556Y-100278336D01*
X83370757Y-100294284D01*
X83376065Y-100295706D01*
X83376067Y-100295707D01*
X83586598Y-100352119D01*
X83586600Y-100352119D01*
X83591913Y-100353543D01*
X83820000Y-100373498D01*
X84048087Y-100353543D01*
X84053400Y-100352119D01*
X84053402Y-100352119D01*
X84263933Y-100295707D01*
X84263935Y-100295706D01*
X84269243Y-100294284D01*
X84402251Y-100232262D01*
X84472442Y-100221601D01*
X84537255Y-100250581D01*
X84576111Y-100310001D01*
X84581500Y-100346457D01*
X84581500Y-101606448D01*
X84561498Y-101674569D01*
X84507842Y-101721062D01*
X84437568Y-101731166D01*
X84372988Y-101701672D01*
X84352413Y-101678898D01*
X84234637Y-101511319D01*
X84234631Y-101511312D01*
X84232168Y-101507807D01*
X84031734Y-101292114D01*
X84028419Y-101289400D01*
X84028415Y-101289397D01*
X83807199Y-101108334D01*
X83803881Y-101105618D01*
X83552826Y-100951772D01*
X83283214Y-100833420D01*
X83000034Y-100752755D01*
X82708527Y-100711267D01*
X82553376Y-100710454D01*
X82418373Y-100709747D01*
X82418366Y-100709747D01*
X82414087Y-100709725D01*
X82409843Y-100710284D01*
X82409839Y-100710284D01*
X82281070Y-100727237D01*
X82122162Y-100748158D01*
X82118022Y-100749291D01*
X82118020Y-100749291D01*
X81842298Y-100824720D01*
X81838153Y-100825854D01*
X81567317Y-100941375D01*
X81414880Y-101032607D01*
X81318346Y-101090381D01*
X81318342Y-101090384D01*
X81314664Y-101092585D01*
X81084871Y-101276684D01*
X81081927Y-101279786D01*
X81081923Y-101279790D01*
X80992443Y-101374083D01*
X80882189Y-101490266D01*
X80710368Y-101729380D01*
X80572589Y-101989600D01*
X80571117Y-101993623D01*
X80571115Y-101993627D01*
X80563515Y-102014396D01*
X80471400Y-102266111D01*
X80408675Y-102553797D01*
X80385573Y-102847333D01*
X80402522Y-103141290D01*
X80403347Y-103145495D01*
X80403348Y-103145503D01*
X80436060Y-103312233D01*
X80459209Y-103430226D01*
X80460596Y-103434276D01*
X80460597Y-103434281D01*
X80482973Y-103499635D01*
X80554585Y-103708795D01*
X80686884Y-103971844D01*
X80689310Y-103975373D01*
X80689313Y-103975379D01*
X80777360Y-104103487D01*
X80853659Y-104214503D01*
X80856546Y-104217676D01*
X80856547Y-104217677D01*
X81048934Y-104429107D01*
X81051824Y-104432283D01*
X81277712Y-104621154D01*
X81281353Y-104623438D01*
X81523502Y-104775339D01*
X81523506Y-104775341D01*
X81527142Y-104777622D01*
X81795500Y-104898790D01*
X81799619Y-104900010D01*
X82073706Y-104981199D01*
X82073711Y-104981200D01*
X82077819Y-104982417D01*
X82082053Y-104983065D01*
X82082058Y-104983066D01*
X82339396Y-105022444D01*
X82368875Y-105026955D01*
X82518772Y-105029310D01*
X82658993Y-105031513D01*
X82658999Y-105031513D01*
X82663284Y-105031580D01*
X82955595Y-104996206D01*
X83240402Y-104921488D01*
X83512433Y-104808809D01*
X83562782Y-104779388D01*
X83762957Y-104662415D01*
X83762958Y-104662415D01*
X83766655Y-104660254D01*
X83770015Y-104657620D01*
X83770023Y-104657614D01*
X83994992Y-104481215D01*
X83998364Y-104478571D01*
X84203272Y-104267123D01*
X84205805Y-104263675D01*
X84205809Y-104263670D01*
X84349924Y-104067481D01*
X84406373Y-104024422D01*
X84477140Y-104018717D01*
X84539757Y-104052178D01*
X84574344Y-104114180D01*
X84576371Y-104133323D01*
X84576309Y-104133724D01*
X84576860Y-104137938D01*
X84577462Y-104143620D01*
X84577450Y-104144571D01*
X84577697Y-104147270D01*
X84578928Y-104170745D01*
X84592468Y-104429107D01*
X84594039Y-104459092D01*
X84594554Y-104462343D01*
X84625900Y-104660254D01*
X84644024Y-104774689D01*
X84726725Y-105083331D01*
X84841234Y-105381638D01*
X84986298Y-105666342D01*
X85160327Y-105934323D01*
X85162405Y-105936889D01*
X85352390Y-106171500D01*
X85361414Y-106182644D01*
X85587356Y-106408586D01*
X85835677Y-106609673D01*
X86103658Y-106783702D01*
X86388362Y-106928766D01*
X86686669Y-107043275D01*
X86995311Y-107125976D01*
X86998561Y-107126491D01*
X86998567Y-107126492D01*
X87232334Y-107163516D01*
X87310908Y-107175961D01*
X87314191Y-107176133D01*
X87314200Y-107176134D01*
X87458753Y-107183709D01*
X87596872Y-107190948D01*
X87611183Y-107192522D01*
X87617448Y-107193576D01*
X87623724Y-107193653D01*
X87625140Y-107193670D01*
X87625143Y-107193670D01*
X87630000Y-107193729D01*
X87657624Y-107189773D01*
X87675486Y-107188500D01*
X92713324Y-107188500D01*
X92781445Y-107208502D01*
X92827938Y-107262158D01*
X92838042Y-107332432D01*
X92808548Y-107397012D01*
X92778030Y-107422616D01*
X92748346Y-107440381D01*
X92748342Y-107440384D01*
X92744664Y-107442585D01*
X92514871Y-107626684D01*
X92511927Y-107629786D01*
X92511923Y-107629790D01*
X92451315Y-107693658D01*
X92312189Y-107840266D01*
X92140368Y-108079380D01*
X92002589Y-108339600D01*
X92001117Y-108343623D01*
X92001115Y-108343627D01*
X91902875Y-108612080D01*
X91901400Y-108616111D01*
X91838675Y-108903797D01*
X91815573Y-109197333D01*
X91832522Y-109491290D01*
X91833347Y-109495495D01*
X91833348Y-109495503D01*
X91857533Y-109618771D01*
X91889209Y-109780226D01*
X91890596Y-109784276D01*
X91890597Y-109784281D01*
X91983196Y-110054739D01*
X91984585Y-110058795D01*
X92034686Y-110158411D01*
X92114519Y-110317141D01*
X92116884Y-110321844D01*
X92119310Y-110325373D01*
X92119313Y-110325379D01*
X92225695Y-110480165D01*
X92283659Y-110564503D01*
X92481824Y-110782283D01*
X92485119Y-110785038D01*
X92485120Y-110785039D01*
X92566127Y-110852771D01*
X92707712Y-110971154D01*
X92711353Y-110973438D01*
X92953502Y-111125339D01*
X92953506Y-111125341D01*
X92957142Y-111127622D01*
X92961052Y-111129387D01*
X92961053Y-111129388D01*
X92993805Y-111144176D01*
X93225500Y-111248790D01*
X93229619Y-111250010D01*
X93503706Y-111331199D01*
X93503711Y-111331200D01*
X93507819Y-111332417D01*
X93512053Y-111333065D01*
X93512058Y-111333066D01*
X93769396Y-111372444D01*
X93798875Y-111376955D01*
X93948772Y-111379310D01*
X94088993Y-111381513D01*
X94088999Y-111381513D01*
X94093284Y-111381580D01*
X94385595Y-111346206D01*
X94670402Y-111271488D01*
X94942433Y-111158809D01*
X94959076Y-111149084D01*
X95192957Y-111012415D01*
X95192958Y-111012415D01*
X95196655Y-111010254D01*
X95200015Y-111007620D01*
X95200023Y-111007614D01*
X95424992Y-110831215D01*
X95428364Y-110828571D01*
X95633272Y-110617123D01*
X95635805Y-110613675D01*
X95635809Y-110613670D01*
X95783953Y-110411996D01*
X95840402Y-110368937D01*
X95911169Y-110363232D01*
X95973786Y-110396692D01*
X96008373Y-110458694D01*
X96011500Y-110486590D01*
X96011500Y-121926448D01*
X95991498Y-121994569D01*
X95937842Y-122041062D01*
X95867568Y-122051166D01*
X95802988Y-122021672D01*
X95782413Y-121998898D01*
X95664637Y-121831319D01*
X95664631Y-121831312D01*
X95662168Y-121827807D01*
X95461734Y-121612114D01*
X95458419Y-121609400D01*
X95458415Y-121609397D01*
X95237199Y-121428334D01*
X95233881Y-121425618D01*
X94982826Y-121271772D01*
X94713214Y-121153420D01*
X94430034Y-121072755D01*
X94138527Y-121031267D01*
X93983376Y-121030454D01*
X93848373Y-121029747D01*
X93848366Y-121029747D01*
X93844087Y-121029725D01*
X93839843Y-121030284D01*
X93839839Y-121030284D01*
X93711070Y-121047237D01*
X93552162Y-121068158D01*
X93548022Y-121069291D01*
X93548020Y-121069291D01*
X93272298Y-121144720D01*
X93268153Y-121145854D01*
X92997317Y-121261375D01*
X92844880Y-121352607D01*
X92748346Y-121410381D01*
X92748342Y-121410384D01*
X92744664Y-121412585D01*
X92514871Y-121596684D01*
X92511927Y-121599786D01*
X92511923Y-121599790D01*
X92422443Y-121694083D01*
X92312189Y-121810266D01*
X92140368Y-122049380D01*
X92002589Y-122309600D01*
X92001117Y-122313623D01*
X92001115Y-122313627D01*
X91993515Y-122334396D01*
X91901400Y-122586111D01*
X91838675Y-122873797D01*
X91815573Y-123167333D01*
X91832522Y-123461290D01*
X91833347Y-123465495D01*
X91833348Y-123465503D01*
X91866060Y-123632233D01*
X91889209Y-123750226D01*
X91890596Y-123754276D01*
X91890597Y-123754281D01*
X91912973Y-123819635D01*
X91984585Y-124028795D01*
X92050734Y-124160319D01*
X92093832Y-124246009D01*
X92116884Y-124291844D01*
X92119310Y-124295373D01*
X92119313Y-124295379D01*
X92210938Y-124428694D01*
X92283659Y-124534503D01*
X92481824Y-124752283D01*
X92707712Y-124941154D01*
X92711353Y-124943438D01*
X92953502Y-125095339D01*
X92953506Y-125095341D01*
X92957142Y-125097622D01*
X93225500Y-125218790D01*
X93229619Y-125220010D01*
X93503706Y-125301199D01*
X93503711Y-125301200D01*
X93507819Y-125302417D01*
X93512053Y-125303065D01*
X93512058Y-125303066D01*
X93769396Y-125342444D01*
X93798875Y-125346955D01*
X93948772Y-125349310D01*
X94088993Y-125351513D01*
X94088999Y-125351513D01*
X94093284Y-125351580D01*
X94385595Y-125316206D01*
X94670402Y-125241488D01*
X94942433Y-125128809D01*
X94946871Y-125126216D01*
X95192957Y-124982415D01*
X95192958Y-124982415D01*
X95196655Y-124980254D01*
X95200015Y-124977620D01*
X95200023Y-124977614D01*
X95424992Y-124801215D01*
X95428364Y-124798571D01*
X95633272Y-124587123D01*
X95635805Y-124583675D01*
X95635809Y-124583670D01*
X95783953Y-124381996D01*
X95840402Y-124338937D01*
X95911169Y-124333232D01*
X95973786Y-124366692D01*
X96008373Y-124428694D01*
X96011500Y-124456590D01*
X96011500Y-132030633D01*
X96010000Y-132050018D01*
X96007690Y-132064851D01*
X96007690Y-132064855D01*
X96006309Y-132073724D01*
X96007473Y-132082626D01*
X96007473Y-132082629D01*
X96008439Y-132090012D01*
X96009233Y-132114591D01*
X95994660Y-132336922D01*
X95992509Y-132353262D01*
X95943889Y-132597693D01*
X95939625Y-132613606D01*
X95905312Y-132714689D01*
X95859516Y-132849600D01*
X95853209Y-132864826D01*
X95742984Y-133088342D01*
X95734743Y-133102616D01*
X95596287Y-133309829D01*
X95586254Y-133322905D01*
X95421932Y-133510278D01*
X95410278Y-133521932D01*
X95222905Y-133686254D01*
X95209829Y-133696287D01*
X95002616Y-133834743D01*
X94988342Y-133842984D01*
X94764826Y-133953209D01*
X94749602Y-133959515D01*
X94513606Y-134039625D01*
X94497696Y-134043888D01*
X94375478Y-134068199D01*
X94253262Y-134092509D01*
X94236922Y-134094660D01*
X94088134Y-134104413D01*
X94021763Y-134108763D01*
X93998650Y-134107733D01*
X93995146Y-134107690D01*
X93986276Y-134106309D01*
X93977374Y-134107473D01*
X93977372Y-134107473D01*
X93963915Y-134109233D01*
X93954714Y-134110436D01*
X93938379Y-134111500D01*
X53389367Y-134111500D01*
X53369982Y-134110000D01*
X53355149Y-134107690D01*
X53355145Y-134107690D01*
X53346276Y-134106309D01*
X53337374Y-134107473D01*
X53337371Y-134107473D01*
X53329988Y-134108439D01*
X53305409Y-134109233D01*
X53260799Y-134106309D01*
X53083078Y-134094660D01*
X53066738Y-134092509D01*
X52944522Y-134068199D01*
X52822304Y-134043888D01*
X52806394Y-134039625D01*
X52570398Y-133959515D01*
X52555174Y-133953209D01*
X52331658Y-133842984D01*
X52317384Y-133834743D01*
X52110171Y-133696287D01*
X52097095Y-133686254D01*
X51909722Y-133521932D01*
X51898068Y-133510278D01*
X51733746Y-133322905D01*
X51723713Y-133309829D01*
X51585257Y-133102616D01*
X51577016Y-133088342D01*
X51466791Y-132864826D01*
X51460484Y-132849600D01*
X51414688Y-132714689D01*
X51380375Y-132613606D01*
X51376111Y-132597693D01*
X51327491Y-132353262D01*
X51325340Y-132336922D01*
X51311476Y-132125407D01*
X51312650Y-132102232D01*
X51312334Y-132102204D01*
X51312770Y-132097344D01*
X51313576Y-132092552D01*
X51313729Y-132080000D01*
X51309773Y-132052376D01*
X51308500Y-132034514D01*
X51308500Y-126565277D01*
X55650735Y-126565277D01*
X55688705Y-126853687D01*
X55765465Y-127134276D01*
X55767149Y-127138224D01*
X55861490Y-127359402D01*
X55879596Y-127401852D01*
X56028985Y-127651462D01*
X56031669Y-127654813D01*
X56031671Y-127654815D01*
X56046322Y-127673102D01*
X56210867Y-127878489D01*
X56421878Y-128078731D01*
X56658113Y-128248483D01*
X56915200Y-128384603D01*
X56919223Y-128386075D01*
X56919227Y-128386077D01*
X57183616Y-128482830D01*
X57188382Y-128484574D01*
X57472604Y-128546544D01*
X57501650Y-128548830D01*
X57698297Y-128564307D01*
X57698304Y-128564307D01*
X57700753Y-128564500D01*
X57858121Y-128564500D01*
X57860257Y-128564354D01*
X57860268Y-128564354D01*
X58070949Y-128549991D01*
X58070955Y-128549990D01*
X58075226Y-128549699D01*
X58079421Y-128548830D01*
X58079423Y-128548830D01*
X58323391Y-128498307D01*
X58360081Y-128490709D01*
X58634295Y-128393605D01*
X58762167Y-128327605D01*
X58888986Y-128262149D01*
X58888987Y-128262149D01*
X58892793Y-128260184D01*
X58896294Y-128257723D01*
X58896298Y-128257721D01*
X59011793Y-128176549D01*
X59130792Y-128092915D01*
X59343888Y-127894894D01*
X59354895Y-127881447D01*
X59525423Y-127673102D01*
X59528139Y-127669784D01*
X59680133Y-127421752D01*
X59688869Y-127401852D01*
X59795334Y-127159315D01*
X59797059Y-127155386D01*
X59803073Y-127134276D01*
X59823052Y-127064137D01*
X59876754Y-126875616D01*
X59879286Y-126857829D01*
X59917137Y-126591870D01*
X59917742Y-126587619D01*
X59917859Y-126565277D01*
X67080735Y-126565277D01*
X67118705Y-126853687D01*
X67195465Y-127134276D01*
X67197149Y-127138224D01*
X67291490Y-127359402D01*
X67309596Y-127401852D01*
X67458985Y-127651462D01*
X67461669Y-127654813D01*
X67461671Y-127654815D01*
X67476322Y-127673102D01*
X67640867Y-127878489D01*
X67851878Y-128078731D01*
X68088113Y-128248483D01*
X68345200Y-128384603D01*
X68349223Y-128386075D01*
X68349227Y-128386077D01*
X68613616Y-128482830D01*
X68618382Y-128484574D01*
X68902604Y-128546544D01*
X68931650Y-128548830D01*
X69128297Y-128564307D01*
X69128304Y-128564307D01*
X69130753Y-128564500D01*
X69288121Y-128564500D01*
X69290257Y-128564354D01*
X69290268Y-128564354D01*
X69500949Y-128549991D01*
X69500955Y-128549990D01*
X69505226Y-128549699D01*
X69509421Y-128548830D01*
X69509423Y-128548830D01*
X69753391Y-128498307D01*
X69790081Y-128490709D01*
X70064295Y-128393605D01*
X70192167Y-128327605D01*
X70318986Y-128262149D01*
X70318987Y-128262149D01*
X70322793Y-128260184D01*
X70326294Y-128257723D01*
X70326298Y-128257721D01*
X70441793Y-128176549D01*
X70560792Y-128092915D01*
X70773888Y-127894894D01*
X70784895Y-127881447D01*
X70955423Y-127673102D01*
X70958139Y-127669784D01*
X71110133Y-127421752D01*
X71118869Y-127401852D01*
X71225334Y-127159315D01*
X71227059Y-127155386D01*
X71233073Y-127134276D01*
X71253052Y-127064137D01*
X71306754Y-126875616D01*
X71309286Y-126857829D01*
X71347137Y-126591870D01*
X71347742Y-126587619D01*
X71348205Y-126499277D01*
X75970735Y-126499277D01*
X76008705Y-126787687D01*
X76085465Y-127068276D01*
X76199596Y-127335852D01*
X76348985Y-127585462D01*
X76351669Y-127588813D01*
X76351671Y-127588815D01*
X76438907Y-127697703D01*
X76530867Y-127812489D01*
X76741878Y-128012731D01*
X76978113Y-128182483D01*
X77003924Y-128196149D01*
X77128577Y-128262149D01*
X77235200Y-128318603D01*
X77239223Y-128320075D01*
X77239227Y-128320077D01*
X77504351Y-128417099D01*
X77508382Y-128418574D01*
X77792604Y-128480544D01*
X77821650Y-128482830D01*
X78018297Y-128498307D01*
X78018304Y-128498307D01*
X78020753Y-128498500D01*
X78178121Y-128498500D01*
X78180257Y-128498354D01*
X78180268Y-128498354D01*
X78390949Y-128483991D01*
X78390955Y-128483990D01*
X78395226Y-128483699D01*
X78399421Y-128482830D01*
X78399423Y-128482830D01*
X78537654Y-128454204D01*
X78680081Y-128424709D01*
X78954295Y-128327605D01*
X79107591Y-128248483D01*
X79208986Y-128196149D01*
X79208987Y-128196149D01*
X79212793Y-128194184D01*
X79216294Y-128191723D01*
X79216298Y-128191721D01*
X79373508Y-128081231D01*
X79450792Y-128026915D01*
X79607334Y-127881447D01*
X79660745Y-127831815D01*
X79660748Y-127831812D01*
X79663888Y-127828894D01*
X79674895Y-127815447D01*
X79845423Y-127607102D01*
X79848139Y-127603784D01*
X80000133Y-127355752D01*
X80008869Y-127335852D01*
X80088087Y-127155386D01*
X80117059Y-127089386D01*
X80123073Y-127068276D01*
X80142782Y-126999087D01*
X80196754Y-126809616D01*
X80199286Y-126791829D01*
X80237137Y-126525870D01*
X80237742Y-126521619D01*
X80237859Y-126499277D01*
X87400735Y-126499277D01*
X87438705Y-126787687D01*
X87515465Y-127068276D01*
X87629596Y-127335852D01*
X87778985Y-127585462D01*
X87781669Y-127588813D01*
X87781671Y-127588815D01*
X87868907Y-127697703D01*
X87960867Y-127812489D01*
X88171878Y-128012731D01*
X88408113Y-128182483D01*
X88433924Y-128196149D01*
X88558577Y-128262149D01*
X88665200Y-128318603D01*
X88669223Y-128320075D01*
X88669227Y-128320077D01*
X88934351Y-128417099D01*
X88938382Y-128418574D01*
X89222604Y-128480544D01*
X89251650Y-128482830D01*
X89448297Y-128498307D01*
X89448304Y-128498307D01*
X89450753Y-128498500D01*
X89608121Y-128498500D01*
X89610257Y-128498354D01*
X89610268Y-128498354D01*
X89820949Y-128483991D01*
X89820955Y-128483990D01*
X89825226Y-128483699D01*
X89829421Y-128482830D01*
X89829423Y-128482830D01*
X89967654Y-128454204D01*
X90110081Y-128424709D01*
X90384295Y-128327605D01*
X90537591Y-128248483D01*
X90638986Y-128196149D01*
X90638987Y-128196149D01*
X90642793Y-128194184D01*
X90646294Y-128191723D01*
X90646298Y-128191721D01*
X90803508Y-128081231D01*
X90880792Y-128026915D01*
X91037334Y-127881447D01*
X91090745Y-127831815D01*
X91090748Y-127831812D01*
X91093888Y-127828894D01*
X91104895Y-127815447D01*
X91275423Y-127607102D01*
X91278139Y-127603784D01*
X91430133Y-127355752D01*
X91438869Y-127335852D01*
X91518087Y-127155386D01*
X91547059Y-127089386D01*
X91553073Y-127068276D01*
X91572782Y-126999087D01*
X91626754Y-126809616D01*
X91629286Y-126791829D01*
X91667137Y-126525870D01*
X91667742Y-126521619D01*
X91668897Y-126301009D01*
X91669243Y-126235009D01*
X91669243Y-126235003D01*
X91669265Y-126230723D01*
X91631295Y-125942313D01*
X91554535Y-125661724D01*
X91470241Y-125464100D01*
X91442090Y-125398100D01*
X91442088Y-125398096D01*
X91440404Y-125394148D01*
X91291015Y-125144538D01*
X91276337Y-125126216D01*
X91129904Y-124943438D01*
X91109133Y-124917511D01*
X90898122Y-124717269D01*
X90661887Y-124547517D01*
X90482676Y-124452630D01*
X90408587Y-124413402D01*
X90408586Y-124413401D01*
X90404800Y-124411397D01*
X90400777Y-124409925D01*
X90400773Y-124409923D01*
X90135649Y-124312901D01*
X90135647Y-124312900D01*
X90131618Y-124311426D01*
X89847396Y-124249456D01*
X89803598Y-124246009D01*
X89621703Y-124231693D01*
X89621696Y-124231693D01*
X89619247Y-124231500D01*
X89461879Y-124231500D01*
X89459743Y-124231646D01*
X89459732Y-124231646D01*
X89249051Y-124246009D01*
X89249045Y-124246010D01*
X89244774Y-124246301D01*
X89240579Y-124247170D01*
X89240577Y-124247170D01*
X89225130Y-124250369D01*
X88959919Y-124305291D01*
X88685705Y-124402395D01*
X88681896Y-124404361D01*
X88540392Y-124477397D01*
X88427207Y-124535816D01*
X88423706Y-124538277D01*
X88423702Y-124538279D01*
X88410558Y-124547517D01*
X88189208Y-124703085D01*
X88136265Y-124752283D01*
X88083608Y-124801215D01*
X87976112Y-124901106D01*
X87973398Y-124904422D01*
X87973395Y-124904425D01*
X87859426Y-125043668D01*
X87791861Y-125126216D01*
X87639867Y-125374248D01*
X87638148Y-125378165D01*
X87638146Y-125378168D01*
X87629397Y-125398100D01*
X87522941Y-125640614D01*
X87521765Y-125644742D01*
X87521764Y-125644745D01*
X87499252Y-125723776D01*
X87443246Y-125920384D01*
X87442642Y-125924626D01*
X87442641Y-125924632D01*
X87433248Y-125990632D01*
X87402258Y-126208381D01*
X87400735Y-126499277D01*
X80237859Y-126499277D01*
X80238897Y-126301009D01*
X80239243Y-126235009D01*
X80239243Y-126235003D01*
X80239265Y-126230723D01*
X80201295Y-125942313D01*
X80124535Y-125661724D01*
X80040241Y-125464100D01*
X80012090Y-125398100D01*
X80012088Y-125398096D01*
X80010404Y-125394148D01*
X79861015Y-125144538D01*
X79846337Y-125126216D01*
X79699904Y-124943438D01*
X79679133Y-124917511D01*
X79468122Y-124717269D01*
X79231887Y-124547517D01*
X79052676Y-124452630D01*
X78978587Y-124413402D01*
X78978586Y-124413401D01*
X78974800Y-124411397D01*
X78970777Y-124409925D01*
X78970773Y-124409923D01*
X78705649Y-124312901D01*
X78705647Y-124312900D01*
X78701618Y-124311426D01*
X78417396Y-124249456D01*
X78373598Y-124246009D01*
X78191703Y-124231693D01*
X78191696Y-124231693D01*
X78189247Y-124231500D01*
X78031879Y-124231500D01*
X78029743Y-124231646D01*
X78029732Y-124231646D01*
X77819051Y-124246009D01*
X77819045Y-124246010D01*
X77814774Y-124246301D01*
X77810579Y-124247170D01*
X77810577Y-124247170D01*
X77795130Y-124250369D01*
X77529919Y-124305291D01*
X77255705Y-124402395D01*
X77251896Y-124404361D01*
X77110392Y-124477397D01*
X76997207Y-124535816D01*
X76993706Y-124538277D01*
X76993702Y-124538279D01*
X76980558Y-124547517D01*
X76759208Y-124703085D01*
X76706265Y-124752283D01*
X76653608Y-124801215D01*
X76546112Y-124901106D01*
X76543398Y-124904422D01*
X76543395Y-124904425D01*
X76429426Y-125043668D01*
X76361861Y-125126216D01*
X76209867Y-125374248D01*
X76208148Y-125378165D01*
X76208146Y-125378168D01*
X76199397Y-125398100D01*
X76092941Y-125640614D01*
X76091765Y-125644742D01*
X76091764Y-125644745D01*
X76069252Y-125723776D01*
X76013246Y-125920384D01*
X76012642Y-125924626D01*
X76012641Y-125924632D01*
X76003248Y-125990632D01*
X75972258Y-126208381D01*
X75970735Y-126499277D01*
X71348205Y-126499277D01*
X71349265Y-126296723D01*
X71311295Y-126008313D01*
X71234535Y-125727724D01*
X71120404Y-125460148D01*
X70971015Y-125210538D01*
X70956337Y-125192216D01*
X70791823Y-124986869D01*
X70789133Y-124983511D01*
X70594247Y-124798571D01*
X70581231Y-124786219D01*
X70581228Y-124786217D01*
X70578122Y-124783269D01*
X70341887Y-124613517D01*
X70192655Y-124534503D01*
X70088587Y-124479402D01*
X70088586Y-124479401D01*
X70084800Y-124477397D01*
X70080777Y-124475925D01*
X70080773Y-124475923D01*
X69815649Y-124378901D01*
X69815647Y-124378900D01*
X69811618Y-124377426D01*
X69527396Y-124315456D01*
X69464578Y-124310512D01*
X69301703Y-124297693D01*
X69301696Y-124297693D01*
X69299247Y-124297500D01*
X69141879Y-124297500D01*
X69139743Y-124297646D01*
X69139732Y-124297646D01*
X68929051Y-124312009D01*
X68929045Y-124312010D01*
X68924774Y-124312301D01*
X68920579Y-124313170D01*
X68920577Y-124313170D01*
X68823701Y-124333232D01*
X68639919Y-124371291D01*
X68365705Y-124468395D01*
X68361896Y-124470361D01*
X68207566Y-124550017D01*
X68107207Y-124601816D01*
X68103706Y-124604277D01*
X68103702Y-124604279D01*
X68090558Y-124613517D01*
X67869208Y-124769085D01*
X67866067Y-124772004D01*
X67681582Y-124943438D01*
X67656112Y-124967106D01*
X67653398Y-124970422D01*
X67653395Y-124970425D01*
X67639936Y-124986869D01*
X67471861Y-125192216D01*
X67319867Y-125440248D01*
X67318148Y-125444165D01*
X67318146Y-125444168D01*
X67309397Y-125464100D01*
X67202941Y-125706614D01*
X67201765Y-125710742D01*
X67201764Y-125710745D01*
X67177218Y-125796913D01*
X67123246Y-125986384D01*
X67122642Y-125990626D01*
X67122641Y-125990632D01*
X67120125Y-126008313D01*
X67082258Y-126274381D01*
X67082141Y-126296723D01*
X67080964Y-126521619D01*
X67080735Y-126565277D01*
X59917859Y-126565277D01*
X59919265Y-126296723D01*
X59881295Y-126008313D01*
X59804535Y-125727724D01*
X59690404Y-125460148D01*
X59541015Y-125210538D01*
X59526337Y-125192216D01*
X59361823Y-124986869D01*
X59359133Y-124983511D01*
X59164247Y-124798571D01*
X59151231Y-124786219D01*
X59151228Y-124786217D01*
X59148122Y-124783269D01*
X58911887Y-124613517D01*
X58762655Y-124534503D01*
X58658587Y-124479402D01*
X58658586Y-124479401D01*
X58654800Y-124477397D01*
X58650777Y-124475925D01*
X58650773Y-124475923D01*
X58385649Y-124378901D01*
X58385647Y-124378900D01*
X58381618Y-124377426D01*
X58097396Y-124315456D01*
X58034578Y-124310512D01*
X57871703Y-124297693D01*
X57871696Y-124297693D01*
X57869247Y-124297500D01*
X57711879Y-124297500D01*
X57709743Y-124297646D01*
X57709732Y-124297646D01*
X57499051Y-124312009D01*
X57499045Y-124312010D01*
X57494774Y-124312301D01*
X57490579Y-124313170D01*
X57490577Y-124313170D01*
X57393701Y-124333232D01*
X57209919Y-124371291D01*
X56935705Y-124468395D01*
X56931896Y-124470361D01*
X56777566Y-124550017D01*
X56677207Y-124601816D01*
X56673706Y-124604277D01*
X56673702Y-124604279D01*
X56660558Y-124613517D01*
X56439208Y-124769085D01*
X56436067Y-124772004D01*
X56251582Y-124943438D01*
X56226112Y-124967106D01*
X56223398Y-124970422D01*
X56223395Y-124970425D01*
X56209936Y-124986869D01*
X56041861Y-125192216D01*
X55889867Y-125440248D01*
X55888148Y-125444165D01*
X55888146Y-125444168D01*
X55879397Y-125464100D01*
X55772941Y-125706614D01*
X55771765Y-125710742D01*
X55771764Y-125710745D01*
X55747218Y-125796913D01*
X55693246Y-125986384D01*
X55692642Y-125990626D01*
X55692641Y-125990632D01*
X55690125Y-126008313D01*
X55652258Y-126274381D01*
X55652141Y-126296723D01*
X55650964Y-126521619D01*
X55650735Y-126565277D01*
X51308500Y-126565277D01*
X51308500Y-124452630D01*
X51328502Y-124384509D01*
X51382158Y-124338016D01*
X51452432Y-124327912D01*
X51517012Y-124357406D01*
X51538340Y-124381263D01*
X51643659Y-124534503D01*
X51841824Y-124752283D01*
X52067712Y-124941154D01*
X52071353Y-124943438D01*
X52313502Y-125095339D01*
X52313506Y-125095341D01*
X52317142Y-125097622D01*
X52585500Y-125218790D01*
X52589619Y-125220010D01*
X52863706Y-125301199D01*
X52863711Y-125301200D01*
X52867819Y-125302417D01*
X52872053Y-125303065D01*
X52872058Y-125303066D01*
X53129396Y-125342444D01*
X53158875Y-125346955D01*
X53308772Y-125349310D01*
X53448993Y-125351513D01*
X53448999Y-125351513D01*
X53453284Y-125351580D01*
X53745595Y-125316206D01*
X54030402Y-125241488D01*
X54302433Y-125128809D01*
X54306871Y-125126216D01*
X54552957Y-124982415D01*
X54552958Y-124982415D01*
X54556655Y-124980254D01*
X54560015Y-124977620D01*
X54560023Y-124977614D01*
X54784992Y-124801215D01*
X54788364Y-124798571D01*
X54993272Y-124587123D01*
X54995805Y-124583675D01*
X54995809Y-124583670D01*
X55165049Y-124353277D01*
X55167587Y-124349822D01*
X55179483Y-124327912D01*
X55306033Y-124094835D01*
X55306034Y-124094833D01*
X55308083Y-124091059D01*
X55412162Y-123815623D01*
X55477897Y-123528610D01*
X55504071Y-123235331D01*
X55504546Y-123190000D01*
X55504377Y-123187520D01*
X55484811Y-122900514D01*
X55484810Y-122900508D01*
X55484519Y-122896237D01*
X55424810Y-122607911D01*
X55326522Y-122330355D01*
X55191475Y-122068707D01*
X55158419Y-122021672D01*
X55024631Y-121831312D01*
X55022168Y-121827807D01*
X54821734Y-121612114D01*
X54818419Y-121609400D01*
X54818415Y-121609397D01*
X54597199Y-121428334D01*
X54593881Y-121425618D01*
X54342826Y-121271772D01*
X54073214Y-121153420D01*
X53790034Y-121072755D01*
X53498527Y-121031267D01*
X53343376Y-121030454D01*
X53208373Y-121029747D01*
X53208366Y-121029747D01*
X53204087Y-121029725D01*
X53199843Y-121030284D01*
X53199839Y-121030284D01*
X53071070Y-121047237D01*
X52912162Y-121068158D01*
X52908022Y-121069291D01*
X52908020Y-121069291D01*
X52632298Y-121144720D01*
X52628153Y-121145854D01*
X52357317Y-121261375D01*
X52204880Y-121352607D01*
X52108346Y-121410381D01*
X52108342Y-121410384D01*
X52104664Y-121412585D01*
X51874871Y-121596684D01*
X51871927Y-121599786D01*
X51871923Y-121599790D01*
X51782443Y-121694083D01*
X51672189Y-121810266D01*
X51536821Y-121998651D01*
X51480828Y-122042297D01*
X51410124Y-122048743D01*
X51347160Y-122015940D01*
X51311926Y-121954304D01*
X51308500Y-121925123D01*
X51308500Y-111722937D01*
X63498265Y-111722937D01*
X63498955Y-111729502D01*
X63513887Y-111871568D01*
X63518227Y-111912865D01*
X63577242Y-112094493D01*
X63672729Y-112259881D01*
X63800516Y-112401803D01*
X63887180Y-112464768D01*
X63937975Y-112501673D01*
X63955017Y-112514055D01*
X63961045Y-112516739D01*
X63961047Y-112516740D01*
X64058160Y-112559977D01*
X64129481Y-112591731D01*
X64299400Y-112627849D01*
X64362297Y-112662000D01*
X65519842Y-113819546D01*
X65525695Y-113825811D01*
X65563174Y-113868774D01*
X65614715Y-113904998D01*
X65620000Y-113908923D01*
X65660697Y-113940833D01*
X65669572Y-113947792D01*
X65676490Y-113950916D01*
X65679511Y-113952745D01*
X65692230Y-113960000D01*
X65695378Y-113961688D01*
X65701593Y-113966056D01*
X65760282Y-113988938D01*
X65766327Y-113991478D01*
X65823767Y-114017413D01*
X65831240Y-114018798D01*
X65834658Y-114019869D01*
X65848647Y-114023854D01*
X65852139Y-114024751D01*
X65859221Y-114027512D01*
X65866754Y-114028504D01*
X65866755Y-114028504D01*
X65921662Y-114035733D01*
X65928175Y-114036765D01*
X65982650Y-114046861D01*
X65982652Y-114046861D01*
X65990119Y-114048245D01*
X65997699Y-114047808D01*
X65997700Y-114047808D01*
X66051444Y-114044709D01*
X66058697Y-114044500D01*
X79731087Y-114044500D01*
X79739657Y-114044792D01*
X79788963Y-114048154D01*
X79788967Y-114048154D01*
X79796538Y-114048670D01*
X79804014Y-114047365D01*
X79804018Y-114047365D01*
X79858610Y-114037837D01*
X79865135Y-114036874D01*
X79920104Y-114030222D01*
X79920106Y-114030221D01*
X79927646Y-114029309D01*
X79934748Y-114026625D01*
X79938186Y-114025781D01*
X79952309Y-114021917D01*
X79955720Y-114020887D01*
X79963203Y-114019581D01*
X80020883Y-113994261D01*
X80026990Y-113991770D01*
X80078803Y-113972191D01*
X80078804Y-113972190D01*
X80085908Y-113969506D01*
X80092163Y-113965207D01*
X80095304Y-113963565D01*
X80108058Y-113956467D01*
X80111164Y-113954630D01*
X80118119Y-113951577D01*
X80124146Y-113946952D01*
X80124150Y-113946950D01*
X80168088Y-113913235D01*
X80173406Y-113909371D01*
X80225338Y-113873679D01*
X80266205Y-113827811D01*
X80271185Y-113822536D01*
X81592048Y-112501673D01*
X81654360Y-112467647D01*
X81681143Y-112464768D01*
X83334182Y-112464768D01*
X83402303Y-112484770D01*
X83427818Y-112506457D01*
X83472515Y-112556098D01*
X83627016Y-112668350D01*
X83633044Y-112671034D01*
X83633046Y-112671035D01*
X83795449Y-112743341D01*
X83801480Y-112746026D01*
X83894880Y-112765879D01*
X83981824Y-112784360D01*
X83981829Y-112784360D01*
X83988281Y-112785732D01*
X84179255Y-112785732D01*
X84185707Y-112784360D01*
X84185712Y-112784360D01*
X84272655Y-112765879D01*
X84366056Y-112746026D01*
X84372087Y-112743341D01*
X84534490Y-112671035D01*
X84534492Y-112671034D01*
X84540520Y-112668350D01*
X84695021Y-112556098D01*
X84739718Y-112506457D01*
X84818389Y-112419084D01*
X84818390Y-112419083D01*
X84822808Y-112414176D01*
X84909057Y-112264789D01*
X84914991Y-112254511D01*
X84914992Y-112254510D01*
X84918295Y-112248788D01*
X84967293Y-112097989D01*
X85007367Y-112039383D01*
X85060929Y-112013679D01*
X85102054Y-112004937D01*
X85102059Y-112004935D01*
X85108520Y-112003562D01*
X85114551Y-112000877D01*
X85276954Y-111928571D01*
X85276956Y-111928570D01*
X85282984Y-111925886D01*
X85437485Y-111813634D01*
X85565272Y-111671712D01*
X85660759Y-111506324D01*
X85719774Y-111324696D01*
X85725762Y-111267729D01*
X85739046Y-111141333D01*
X85739736Y-111134768D01*
X85730719Y-111048976D01*
X85720464Y-110951403D01*
X85720464Y-110951401D01*
X85719774Y-110944840D01*
X85660759Y-110763212D01*
X85565272Y-110597824D01*
X85470208Y-110492244D01*
X85441907Y-110460813D01*
X85441906Y-110460812D01*
X85437485Y-110455902D01*
X85327584Y-110376054D01*
X85288326Y-110347531D01*
X85288325Y-110347530D01*
X85282984Y-110343650D01*
X85276956Y-110340966D01*
X85276954Y-110340965D01*
X85114551Y-110268659D01*
X85114550Y-110268659D01*
X85108520Y-110265974D01*
X85015119Y-110246121D01*
X84928176Y-110227640D01*
X84928171Y-110227640D01*
X84921719Y-110226268D01*
X84782072Y-110226268D01*
X84730222Y-110215105D01*
X84715472Y-110208445D01*
X84715467Y-110208443D01*
X84708547Y-110205319D01*
X84701080Y-110203935D01*
X84697668Y-110202866D01*
X84683667Y-110198878D01*
X84680175Y-110197981D01*
X84673093Y-110195220D01*
X84665560Y-110194228D01*
X84665559Y-110194228D01*
X84610652Y-110186999D01*
X84604139Y-110185967D01*
X84549664Y-110175871D01*
X84549662Y-110175871D01*
X84542195Y-110174487D01*
X84534615Y-110174924D01*
X84534614Y-110174924D01*
X84480870Y-110178023D01*
X84473617Y-110178232D01*
X83698153Y-110178232D01*
X83689583Y-110177940D01*
X83640277Y-110174578D01*
X83640273Y-110174578D01*
X83632702Y-110174062D01*
X83625226Y-110175367D01*
X83625222Y-110175367D01*
X83570630Y-110184895D01*
X83564105Y-110185858D01*
X83509136Y-110192510D01*
X83509134Y-110192511D01*
X83501594Y-110193423D01*
X83494492Y-110196107D01*
X83491054Y-110196951D01*
X83476931Y-110200815D01*
X83473519Y-110201845D01*
X83466037Y-110203151D01*
X83459084Y-110206203D01*
X83459078Y-110206205D01*
X83408360Y-110228469D01*
X83402264Y-110230957D01*
X83378830Y-110239812D01*
X83350439Y-110250540D01*
X83350436Y-110250542D01*
X83343332Y-110253226D01*
X83337068Y-110257531D01*
X83333901Y-110259187D01*
X83321136Y-110266292D01*
X83318079Y-110268100D01*
X83311121Y-110271154D01*
X83305093Y-110275779D01*
X83305092Y-110275780D01*
X83261158Y-110309492D01*
X83255821Y-110313370D01*
X83243492Y-110321844D01*
X83203902Y-110349053D01*
X83164222Y-110393589D01*
X83103975Y-110431142D01*
X83070148Y-110435768D01*
X81699848Y-110435768D01*
X81631727Y-110415766D01*
X81585234Y-110362110D01*
X81575130Y-110291836D01*
X81590728Y-110246770D01*
X81596759Y-110236324D01*
X81655774Y-110054696D01*
X81675736Y-109864768D01*
X81655774Y-109674840D01*
X81596759Y-109493212D01*
X81501272Y-109327824D01*
X81434351Y-109253500D01*
X81377907Y-109190813D01*
X81377906Y-109190812D01*
X81373485Y-109185902D01*
X81218984Y-109073650D01*
X81212956Y-109070966D01*
X81212954Y-109070965D01*
X81050551Y-108998659D01*
X81050550Y-108998659D01*
X81044520Y-108995974D01*
X80951119Y-108976121D01*
X80864176Y-108957640D01*
X80864171Y-108957640D01*
X80857719Y-108956268D01*
X80666745Y-108956268D01*
X80660290Y-108957640D01*
X80660281Y-108957641D01*
X80634074Y-108963212D01*
X80563283Y-108957811D01*
X80518781Y-108929061D01*
X80274182Y-108684462D01*
X80268328Y-108678196D01*
X80261942Y-108670876D01*
X80230843Y-108635226D01*
X80179307Y-108599006D01*
X80174011Y-108595073D01*
X80130422Y-108560894D01*
X80130419Y-108560892D01*
X80124445Y-108556208D01*
X80117521Y-108553082D01*
X80114486Y-108551244D01*
X80101787Y-108544000D01*
X80098639Y-108542312D01*
X80092424Y-108537944D01*
X80033735Y-108515062D01*
X80027690Y-108512522D01*
X79970250Y-108486587D01*
X79962777Y-108485202D01*
X79959359Y-108484131D01*
X79945370Y-108480146D01*
X79941878Y-108479249D01*
X79934796Y-108476488D01*
X79927263Y-108475496D01*
X79927262Y-108475496D01*
X79872355Y-108468267D01*
X79865842Y-108467235D01*
X79811367Y-108457139D01*
X79811365Y-108457139D01*
X79803898Y-108455755D01*
X79796318Y-108456192D01*
X79796317Y-108456192D01*
X79742573Y-108459291D01*
X79735320Y-108459500D01*
X73182386Y-108459500D01*
X73114265Y-108439498D01*
X73088755Y-108417815D01*
X73001253Y-108320634D01*
X72846752Y-108208382D01*
X72840724Y-108205698D01*
X72840722Y-108205697D01*
X72678319Y-108133391D01*
X72678318Y-108133391D01*
X72672288Y-108130706D01*
X72578887Y-108110853D01*
X72491944Y-108092372D01*
X72491939Y-108092372D01*
X72485487Y-108091000D01*
X72294513Y-108091000D01*
X72288061Y-108092372D01*
X72288056Y-108092372D01*
X72201113Y-108110853D01*
X72107712Y-108130706D01*
X72101682Y-108133391D01*
X72101681Y-108133391D01*
X71939278Y-108205697D01*
X71939276Y-108205698D01*
X71933248Y-108208382D01*
X71778747Y-108320634D01*
X71774326Y-108325544D01*
X71774325Y-108325545D01*
X71657084Y-108455755D01*
X71650960Y-108462556D01*
X71555473Y-108627944D01*
X71552949Y-108626487D01*
X71515208Y-108670876D01*
X71447278Y-108691515D01*
X71378973Y-108672153D01*
X71352463Y-108649834D01*
X71284753Y-108574634D01*
X71130252Y-108462382D01*
X71124224Y-108459698D01*
X71124222Y-108459697D01*
X70961819Y-108387391D01*
X70961818Y-108387391D01*
X70955788Y-108384706D01*
X70862387Y-108364853D01*
X70775444Y-108346372D01*
X70775439Y-108346372D01*
X70768987Y-108345000D01*
X70578013Y-108345000D01*
X70571561Y-108346372D01*
X70571556Y-108346372D01*
X70484613Y-108364853D01*
X70391212Y-108384706D01*
X70385182Y-108387391D01*
X70385181Y-108387391D01*
X70222778Y-108459697D01*
X70222776Y-108459698D01*
X70216748Y-108462382D01*
X70062247Y-108574634D01*
X70057829Y-108579541D01*
X70057825Y-108579545D01*
X69963358Y-108684462D01*
X69934460Y-108716556D01*
X69838973Y-108881944D01*
X69779958Y-109063572D01*
X69759996Y-109253500D01*
X69779958Y-109443428D01*
X69838973Y-109625056D01*
X69934460Y-109790444D01*
X69938878Y-109795351D01*
X69938879Y-109795352D01*
X70007293Y-109871333D01*
X70062247Y-109932366D01*
X70216748Y-110044618D01*
X70222776Y-110047302D01*
X70222778Y-110047303D01*
X70385181Y-110119609D01*
X70391212Y-110122294D01*
X70561131Y-110158412D01*
X70624028Y-110192563D01*
X70695003Y-110263538D01*
X70700856Y-110269803D01*
X70738342Y-110312774D01*
X70787796Y-110347531D01*
X70789889Y-110349002D01*
X70795184Y-110352935D01*
X70844739Y-110391791D01*
X70851663Y-110394917D01*
X70854712Y-110396764D01*
X70867378Y-110403989D01*
X70870543Y-110405686D01*
X70876761Y-110410056D01*
X70935496Y-110432956D01*
X70941509Y-110435483D01*
X70998935Y-110461412D01*
X71006403Y-110462796D01*
X71009811Y-110463864D01*
X71023850Y-110467864D01*
X71027314Y-110468753D01*
X71034389Y-110471512D01*
X71041918Y-110472503D01*
X71041921Y-110472504D01*
X71096845Y-110479735D01*
X71103359Y-110480767D01*
X71157817Y-110490860D01*
X71157820Y-110490860D01*
X71165286Y-110492244D01*
X71172866Y-110491807D01*
X71172867Y-110491807D01*
X71226594Y-110488709D01*
X71233847Y-110488500D01*
X78980954Y-110488500D01*
X79049075Y-110508502D01*
X79095568Y-110562158D01*
X79105393Y-110607324D01*
X79106264Y-110607232D01*
X79124329Y-110779107D01*
X79126226Y-110797160D01*
X79185241Y-110978788D01*
X79280728Y-111144176D01*
X79285146Y-111149083D01*
X79285147Y-111149084D01*
X79373332Y-111247023D01*
X79408515Y-111286098D01*
X79473161Y-111333066D01*
X79533661Y-111377022D01*
X79563016Y-111398350D01*
X79577451Y-111404777D01*
X79631546Y-111450755D01*
X79652197Y-111518682D01*
X79632846Y-111586991D01*
X79615299Y-111608979D01*
X79245684Y-111978595D01*
X79183371Y-112012620D01*
X79156588Y-112015500D01*
X66917395Y-112015500D01*
X66849274Y-111995498D01*
X66802781Y-111941842D01*
X66792677Y-111871568D01*
X66797563Y-111850562D01*
X66804502Y-111829208D01*
X66804503Y-111829203D01*
X66806542Y-111822928D01*
X66826504Y-111633000D01*
X66821668Y-111586991D01*
X66807232Y-111449635D01*
X66807232Y-111449633D01*
X66806542Y-111443072D01*
X66747527Y-111261444D01*
X66652040Y-111096056D01*
X66644000Y-111087126D01*
X66528675Y-110959045D01*
X66528671Y-110959041D01*
X66524253Y-110954134D01*
X66425157Y-110882136D01*
X66375094Y-110845763D01*
X66375093Y-110845762D01*
X66369752Y-110841882D01*
X66363724Y-110839198D01*
X66363722Y-110839197D01*
X66201319Y-110766891D01*
X66201318Y-110766891D01*
X66195288Y-110764206D01*
X66101888Y-110744353D01*
X66014944Y-110725872D01*
X66014939Y-110725872D01*
X66008487Y-110724500D01*
X65817513Y-110724500D01*
X65811061Y-110725872D01*
X65811056Y-110725872D01*
X65724112Y-110744353D01*
X65630712Y-110764206D01*
X65624682Y-110766891D01*
X65624681Y-110766891D01*
X65462278Y-110839197D01*
X65462276Y-110839198D01*
X65456248Y-110841882D01*
X65450907Y-110845762D01*
X65450906Y-110845763D01*
X65400843Y-110882136D01*
X65301747Y-110954134D01*
X65216351Y-111048976D01*
X65215531Y-111049887D01*
X65155085Y-111087126D01*
X65084101Y-111085774D01*
X65032851Y-111052839D01*
X65032349Y-111053397D01*
X65028931Y-111050320D01*
X65028261Y-111049889D01*
X65027439Y-111048976D01*
X65027436Y-111048974D01*
X65023022Y-111044071D01*
X64976477Y-111010254D01*
X64873863Y-110935700D01*
X64873862Y-110935699D01*
X64868521Y-110931819D01*
X64862493Y-110929135D01*
X64862491Y-110929134D01*
X64700088Y-110856828D01*
X64700087Y-110856828D01*
X64694057Y-110854143D01*
X64586190Y-110831215D01*
X64513713Y-110815809D01*
X64513708Y-110815809D01*
X64507256Y-110814437D01*
X64316282Y-110814437D01*
X64309830Y-110815809D01*
X64309825Y-110815809D01*
X64237348Y-110831215D01*
X64129481Y-110854143D01*
X64123451Y-110856828D01*
X64123450Y-110856828D01*
X63961047Y-110929134D01*
X63961045Y-110929135D01*
X63955017Y-110931819D01*
X63949676Y-110935699D01*
X63949675Y-110935700D01*
X63928062Y-110951403D01*
X63800516Y-111044071D01*
X63796095Y-111048981D01*
X63796094Y-111048982D01*
X63690262Y-111166521D01*
X63672729Y-111185993D01*
X63577242Y-111351381D01*
X63518227Y-111533009D01*
X63498265Y-111722937D01*
X51308500Y-111722937D01*
X51308500Y-110482630D01*
X51328502Y-110414509D01*
X51382158Y-110368016D01*
X51452432Y-110357912D01*
X51517012Y-110387406D01*
X51538340Y-110411263D01*
X51643659Y-110564503D01*
X51841824Y-110782283D01*
X51845119Y-110785038D01*
X51845120Y-110785039D01*
X51926127Y-110852771D01*
X52067712Y-110971154D01*
X52071353Y-110973438D01*
X52313502Y-111125339D01*
X52313506Y-111125341D01*
X52317142Y-111127622D01*
X52321052Y-111129387D01*
X52321053Y-111129388D01*
X52353805Y-111144176D01*
X52585500Y-111248790D01*
X52589619Y-111250010D01*
X52863706Y-111331199D01*
X52863711Y-111331200D01*
X52867819Y-111332417D01*
X52872053Y-111333065D01*
X52872058Y-111333066D01*
X53129396Y-111372444D01*
X53158875Y-111376955D01*
X53308772Y-111379310D01*
X53448993Y-111381513D01*
X53448999Y-111381513D01*
X53453284Y-111381580D01*
X53745595Y-111346206D01*
X54030402Y-111271488D01*
X54302433Y-111158809D01*
X54319076Y-111149084D01*
X54552957Y-111012415D01*
X54552958Y-111012415D01*
X54556655Y-111010254D01*
X54560015Y-111007620D01*
X54560023Y-111007614D01*
X54784992Y-110831215D01*
X54788364Y-110828571D01*
X54993272Y-110617123D01*
X54995805Y-110613675D01*
X54995809Y-110613670D01*
X55165049Y-110383277D01*
X55167587Y-110379822D01*
X55181216Y-110354720D01*
X55306033Y-110124835D01*
X55306034Y-110124833D01*
X55308083Y-110121059D01*
X55412162Y-109845623D01*
X55477897Y-109558610D01*
X55492940Y-109390050D01*
X55503851Y-109267799D01*
X55503851Y-109267792D01*
X55504071Y-109265331D01*
X55504415Y-109232552D01*
X55504520Y-109222484D01*
X55504520Y-109222483D01*
X55504546Y-109220000D01*
X55503761Y-109208491D01*
X55484811Y-108930514D01*
X55484810Y-108930508D01*
X55484519Y-108926237D01*
X55475347Y-108881944D01*
X55433821Y-108681424D01*
X55424810Y-108637911D01*
X55326522Y-108360355D01*
X55191475Y-108098707D01*
X55186059Y-108091000D01*
X55024631Y-107861312D01*
X55022168Y-107857807D01*
X54821734Y-107642114D01*
X54818419Y-107639400D01*
X54818415Y-107639397D01*
X54597199Y-107458334D01*
X54593881Y-107455618D01*
X54545022Y-107425677D01*
X54538912Y-107421933D01*
X54491281Y-107369285D01*
X54479674Y-107299244D01*
X54507777Y-107234046D01*
X54566667Y-107194392D01*
X54604747Y-107188500D01*
X59636750Y-107188500D01*
X59657655Y-107190246D01*
X59672656Y-107192770D01*
X59672659Y-107192770D01*
X59677448Y-107193576D01*
X59683525Y-107193650D01*
X59685135Y-107193670D01*
X59685139Y-107193670D01*
X59690000Y-107193729D01*
X59694815Y-107193040D01*
X59694823Y-107193039D01*
X59695904Y-107192884D01*
X59707170Y-107191784D01*
X59788873Y-107187502D01*
X60005799Y-107176134D01*
X60005807Y-107176133D01*
X60009092Y-107175961D01*
X60087666Y-107163516D01*
X60321433Y-107126492D01*
X60321439Y-107126491D01*
X60324689Y-107125976D01*
X60633331Y-107043275D01*
X60931638Y-106928766D01*
X61216342Y-106783702D01*
X61484323Y-106609673D01*
X61732644Y-106408586D01*
X61958586Y-106182644D01*
X61967611Y-106171500D01*
X62157595Y-105936889D01*
X62159673Y-105934323D01*
X62333702Y-105666342D01*
X62478766Y-105381638D01*
X62593275Y-105083331D01*
X62675976Y-104774689D01*
X62694101Y-104660254D01*
X62725446Y-104462343D01*
X62725961Y-104459092D01*
X62727533Y-104429107D01*
X62738779Y-104214503D01*
X62740948Y-104173128D01*
X62742522Y-104158817D01*
X62742769Y-104157348D01*
X62743576Y-104152552D01*
X62743729Y-104140000D01*
X62745737Y-104140024D01*
X62759438Y-104078977D01*
X62809969Y-104029106D01*
X62879441Y-104014471D01*
X62945796Y-104039718D01*
X62973466Y-104068721D01*
X63071229Y-104210967D01*
X63073659Y-104214503D01*
X63076546Y-104217676D01*
X63076547Y-104217677D01*
X63268934Y-104429107D01*
X63271824Y-104432283D01*
X63497712Y-104621154D01*
X63501353Y-104623438D01*
X63743502Y-104775339D01*
X63743506Y-104775341D01*
X63747142Y-104777622D01*
X64015500Y-104898790D01*
X64019619Y-104900010D01*
X64293706Y-104981199D01*
X64293711Y-104981200D01*
X64297819Y-104982417D01*
X64302053Y-104983065D01*
X64302058Y-104983066D01*
X64559396Y-105022444D01*
X64588875Y-105026955D01*
X64738772Y-105029310D01*
X64878993Y-105031513D01*
X64878999Y-105031513D01*
X64883284Y-105031580D01*
X65175595Y-104996206D01*
X65460402Y-104921488D01*
X65732433Y-104808809D01*
X65782782Y-104779388D01*
X65982957Y-104662415D01*
X65982958Y-104662415D01*
X65986655Y-104660254D01*
X65990015Y-104657620D01*
X65990023Y-104657614D01*
X66214992Y-104481215D01*
X66218364Y-104478571D01*
X66423272Y-104267123D01*
X66425805Y-104263675D01*
X66425809Y-104263670D01*
X66595049Y-104033277D01*
X66597587Y-104029822D01*
X66600519Y-104024422D01*
X66736033Y-103774835D01*
X66736034Y-103774833D01*
X66738083Y-103771059D01*
X66842162Y-103495623D01*
X66907897Y-103208610D01*
X66934071Y-102915331D01*
X66934546Y-102870000D01*
X66934377Y-102867520D01*
X66914811Y-102580514D01*
X66914810Y-102580508D01*
X66914519Y-102576237D01*
X66854810Y-102287911D01*
X66756522Y-102010355D01*
X66621475Y-101748707D01*
X66588419Y-101701672D01*
X66454631Y-101511312D01*
X66452168Y-101507807D01*
X66251734Y-101292114D01*
X66248419Y-101289400D01*
X66248415Y-101289397D01*
X66027199Y-101108334D01*
X66023881Y-101105618D01*
X65772826Y-100951772D01*
X65503214Y-100833420D01*
X65220034Y-100752755D01*
X64928527Y-100711267D01*
X64773376Y-100710454D01*
X64638373Y-100709747D01*
X64638366Y-100709747D01*
X64634087Y-100709725D01*
X64629843Y-100710284D01*
X64629839Y-100710284D01*
X64501070Y-100727237D01*
X64342162Y-100748158D01*
X64338022Y-100749291D01*
X64338020Y-100749291D01*
X64062298Y-100824720D01*
X64058153Y-100825854D01*
X63787317Y-100941375D01*
X63634880Y-101032607D01*
X63538346Y-101090381D01*
X63538342Y-101090384D01*
X63534664Y-101092585D01*
X63304871Y-101276684D01*
X63301927Y-101279786D01*
X63301923Y-101279790D01*
X63212443Y-101374083D01*
X63102189Y-101490266D01*
X62966821Y-101678651D01*
X62910828Y-101722297D01*
X62840124Y-101728743D01*
X62777160Y-101695940D01*
X62741926Y-101634304D01*
X62738500Y-101605123D01*
X62738500Y-100346457D01*
X62758502Y-100278336D01*
X62812158Y-100231843D01*
X62882432Y-100221739D01*
X62917749Y-100232262D01*
X63050757Y-100294284D01*
X63056065Y-100295706D01*
X63056067Y-100295707D01*
X63266598Y-100352119D01*
X63266600Y-100352119D01*
X63271913Y-100353543D01*
X63500000Y-100373498D01*
X63728087Y-100353543D01*
X63733400Y-100352119D01*
X63733402Y-100352119D01*
X63943933Y-100295707D01*
X63943935Y-100295706D01*
X63949243Y-100294284D01*
X63983444Y-100278336D01*
X64151762Y-100199849D01*
X64151767Y-100199846D01*
X64156749Y-100197523D01*
X64261611Y-100124098D01*
X64339789Y-100069357D01*
X64339792Y-100069355D01*
X64344300Y-100066198D01*
X64506198Y-99904300D01*
X64637523Y-99716749D01*
X64639846Y-99711767D01*
X64639849Y-99711762D01*
X64731961Y-99514225D01*
X64731961Y-99514224D01*
X64734284Y-99509243D01*
X64793543Y-99288087D01*
X64813498Y-99060000D01*
X64793543Y-98831913D01*
X64792119Y-98826598D01*
X64735707Y-98616067D01*
X64735706Y-98616065D01*
X64734284Y-98610757D01*
X64731961Y-98605775D01*
X64639849Y-98408238D01*
X64639846Y-98408233D01*
X64637523Y-98403251D01*
X64556888Y-98288092D01*
X64509357Y-98220211D01*
X64509355Y-98220208D01*
X64506198Y-98215700D01*
X64344300Y-98053802D01*
X64339792Y-98050645D01*
X64339789Y-98050643D01*
X64261611Y-97995902D01*
X64156749Y-97922477D01*
X64151767Y-97920154D01*
X64151762Y-97920151D01*
X64117543Y-97904195D01*
X64064258Y-97857278D01*
X64044797Y-97789001D01*
X64065339Y-97721041D01*
X64117543Y-97675805D01*
X64151762Y-97659849D01*
X64151767Y-97659846D01*
X64156749Y-97657523D01*
X64261611Y-97584098D01*
X64339789Y-97529357D01*
X64339792Y-97529355D01*
X64344300Y-97526198D01*
X64506198Y-97364300D01*
X64559114Y-97288729D01*
X64616181Y-97207229D01*
X64671638Y-97162901D01*
X64719394Y-97153500D01*
X64742033Y-97153500D01*
X64753216Y-97154027D01*
X64760709Y-97155702D01*
X64768635Y-97155453D01*
X64768636Y-97155453D01*
X64828786Y-97153562D01*
X64832745Y-97153500D01*
X64860656Y-97153500D01*
X64864591Y-97153003D01*
X64864656Y-97152995D01*
X64876493Y-97152062D01*
X64908751Y-97151048D01*
X64912770Y-97150922D01*
X64920689Y-97150673D01*
X64940143Y-97145021D01*
X64959500Y-97141013D01*
X64971730Y-97139468D01*
X64971731Y-97139468D01*
X64979597Y-97138474D01*
X64986968Y-97135555D01*
X64986970Y-97135555D01*
X65020712Y-97122196D01*
X65031942Y-97118351D01*
X65066783Y-97108229D01*
X65066784Y-97108229D01*
X65074393Y-97106018D01*
X65081212Y-97101985D01*
X65081217Y-97101983D01*
X65091828Y-97095707D01*
X65109576Y-97087012D01*
X65128417Y-97079552D01*
X65164187Y-97053564D01*
X65174107Y-97047048D01*
X65205335Y-97028580D01*
X65205338Y-97028578D01*
X65212162Y-97024542D01*
X65226483Y-97010221D01*
X65241517Y-96997380D01*
X65251494Y-96990131D01*
X65257907Y-96985472D01*
X65286098Y-96951395D01*
X65294088Y-96942616D01*
X66752500Y-95484205D01*
X66814812Y-95450179D01*
X66841595Y-95447300D01*
X66897487Y-95447300D01*
X66903939Y-95445928D01*
X66903944Y-95445928D01*
X66990888Y-95427447D01*
X67084288Y-95407594D01*
X67090319Y-95404909D01*
X67252722Y-95332603D01*
X67252724Y-95332602D01*
X67258752Y-95329918D01*
X67276150Y-95317278D01*
X67385662Y-95237712D01*
X67413253Y-95217666D01*
X67441538Y-95186252D01*
X67536621Y-95080652D01*
X67536622Y-95080651D01*
X67541040Y-95075744D01*
X67616645Y-94944793D01*
X67633223Y-94916079D01*
X67633224Y-94916078D01*
X67636527Y-94910356D01*
X67695542Y-94728728D01*
X67704736Y-94641257D01*
X67714814Y-94545365D01*
X67715504Y-94538800D01*
X67704482Y-94433935D01*
X67696232Y-94355435D01*
X67696232Y-94355433D01*
X67695542Y-94348872D01*
X67636527Y-94167244D01*
X67541040Y-94001856D01*
X67526291Y-93985475D01*
X67417675Y-93864845D01*
X67417674Y-93864844D01*
X67413253Y-93859934D01*
X67272115Y-93757391D01*
X67264094Y-93751563D01*
X67264093Y-93751562D01*
X67258752Y-93747682D01*
X67252724Y-93744998D01*
X67252722Y-93744997D01*
X67090319Y-93672691D01*
X67090318Y-93672691D01*
X67084288Y-93670006D01*
X66971721Y-93646079D01*
X66903944Y-93631672D01*
X66903939Y-93631672D01*
X66897487Y-93630300D01*
X66706513Y-93630300D01*
X66700061Y-93631672D01*
X66700056Y-93631672D01*
X66632279Y-93646079D01*
X66519712Y-93670006D01*
X66513682Y-93672691D01*
X66513681Y-93672691D01*
X66351278Y-93744997D01*
X66351276Y-93744998D01*
X66345248Y-93747682D01*
X66339907Y-93751562D01*
X66339906Y-93751563D01*
X66331885Y-93757391D01*
X66190747Y-93859934D01*
X66186326Y-93864844D01*
X66186325Y-93864845D01*
X66077710Y-93985475D01*
X66062960Y-94001856D01*
X65967473Y-94167244D01*
X65908458Y-94348872D01*
X65907768Y-94355433D01*
X65907768Y-94355435D01*
X65891093Y-94514093D01*
X65864080Y-94579750D01*
X65854878Y-94590018D01*
X64720690Y-95724205D01*
X64658378Y-95758231D01*
X64587562Y-95753166D01*
X64528383Y-95707382D01*
X64509359Y-95680214D01*
X64509357Y-95680212D01*
X64506198Y-95675700D01*
X64344300Y-95513802D01*
X64339792Y-95510645D01*
X64339789Y-95510643D01*
X64261611Y-95455902D01*
X64156749Y-95382477D01*
X64151767Y-95380154D01*
X64151762Y-95380151D01*
X64117543Y-95364195D01*
X64064258Y-95317278D01*
X64044797Y-95249001D01*
X64065339Y-95181041D01*
X64117543Y-95135805D01*
X64151762Y-95119849D01*
X64151767Y-95119846D01*
X64156749Y-95117523D01*
X64293628Y-95021679D01*
X64339789Y-94989357D01*
X64339792Y-94989355D01*
X64344300Y-94986198D01*
X64506198Y-94824300D01*
X64515762Y-94810642D01*
X64564553Y-94740960D01*
X64637523Y-94636749D01*
X64639846Y-94631767D01*
X64639849Y-94631762D01*
X64731961Y-94434225D01*
X64731961Y-94434224D01*
X64734284Y-94429243D01*
X64736428Y-94421244D01*
X64792119Y-94213402D01*
X64792119Y-94213400D01*
X64793543Y-94208087D01*
X64813498Y-93980000D01*
X64793543Y-93751913D01*
X64792119Y-93746598D01*
X64792118Y-93746591D01*
X64776541Y-93688459D01*
X64778230Y-93617483D01*
X64809152Y-93566752D01*
X65554300Y-92821604D01*
X65616612Y-92787578D01*
X65643395Y-92784699D01*
X68777017Y-92784699D01*
X68845138Y-92804701D01*
G37*
G04 #@! TD.AperFunction*
G04 #@! TA.AperFunction,Conductor*
G36*
X81351445Y-55138502D02*
G01*
X81397938Y-55192158D01*
X81408042Y-55262432D01*
X81378548Y-55327012D01*
X81348030Y-55352616D01*
X81318346Y-55370381D01*
X81318342Y-55370384D01*
X81314664Y-55372585D01*
X81084871Y-55556684D01*
X81081927Y-55559786D01*
X81081923Y-55559790D01*
X81021315Y-55623658D01*
X80882189Y-55770266D01*
X80710368Y-56009380D01*
X80572589Y-56269600D01*
X80571117Y-56273623D01*
X80571115Y-56273627D01*
X80563515Y-56294396D01*
X80471400Y-56546111D01*
X80408675Y-56833797D01*
X80385573Y-57127333D01*
X80402522Y-57421290D01*
X80403347Y-57425495D01*
X80403348Y-57425503D01*
X80436060Y-57592233D01*
X80459209Y-57710226D01*
X80460596Y-57714276D01*
X80460597Y-57714281D01*
X80482973Y-57779635D01*
X80554585Y-57988795D01*
X80686884Y-58251844D01*
X80689310Y-58255373D01*
X80689313Y-58255379D01*
X80748340Y-58341263D01*
X80853659Y-58494503D01*
X81051824Y-58712283D01*
X81277712Y-58901154D01*
X81281353Y-58903438D01*
X81523502Y-59055339D01*
X81523506Y-59055341D01*
X81527142Y-59057622D01*
X81795500Y-59178790D01*
X81799619Y-59180010D01*
X82073706Y-59261199D01*
X82073711Y-59261200D01*
X82077819Y-59262417D01*
X82082053Y-59263065D01*
X82082058Y-59263066D01*
X82339396Y-59302444D01*
X82368875Y-59306955D01*
X82518772Y-59309310D01*
X82658993Y-59311513D01*
X82658999Y-59311513D01*
X82663284Y-59311580D01*
X82955595Y-59276206D01*
X83240402Y-59201488D01*
X83512433Y-59088809D01*
X83562782Y-59059388D01*
X83762957Y-58942415D01*
X83762958Y-58942415D01*
X83766655Y-58940254D01*
X83770015Y-58937620D01*
X83770023Y-58937614D01*
X83994992Y-58761215D01*
X83998364Y-58758571D01*
X84203272Y-58547123D01*
X84205805Y-58543675D01*
X84205809Y-58543670D01*
X84353953Y-58341996D01*
X84410402Y-58298937D01*
X84481169Y-58293232D01*
X84543786Y-58326692D01*
X84578373Y-58388694D01*
X84581500Y-58416590D01*
X84581500Y-69833543D01*
X84561498Y-69901664D01*
X84507842Y-69948157D01*
X84437568Y-69958261D01*
X84402250Y-69947738D01*
X84274225Y-69888039D01*
X84274224Y-69888039D01*
X84269243Y-69885716D01*
X84263935Y-69884294D01*
X84263933Y-69884293D01*
X84053402Y-69827881D01*
X84053400Y-69827881D01*
X84048087Y-69826457D01*
X83820000Y-69806502D01*
X83591913Y-69826457D01*
X83586600Y-69827881D01*
X83586598Y-69827881D01*
X83376067Y-69884293D01*
X83376065Y-69884294D01*
X83370757Y-69885716D01*
X83365776Y-69888039D01*
X83365775Y-69888039D01*
X83168238Y-69980151D01*
X83168233Y-69980154D01*
X83163251Y-69982477D01*
X83058389Y-70055902D01*
X82980211Y-70110643D01*
X82980208Y-70110645D01*
X82975700Y-70113802D01*
X82813802Y-70275700D01*
X82682477Y-70463251D01*
X82680154Y-70468233D01*
X82680151Y-70468238D01*
X82588039Y-70665775D01*
X82585716Y-70670757D01*
X82526457Y-70891913D01*
X82506502Y-71120000D01*
X82526457Y-71348087D01*
X82585716Y-71569243D01*
X82588039Y-71574224D01*
X82588039Y-71574225D01*
X82680151Y-71771762D01*
X82680154Y-71771767D01*
X82682477Y-71776749D01*
X82813802Y-71964300D01*
X82975700Y-72126198D01*
X82980208Y-72129355D01*
X82980211Y-72129357D01*
X83058389Y-72184098D01*
X83163251Y-72257523D01*
X83168233Y-72259846D01*
X83168238Y-72259849D01*
X83202457Y-72275805D01*
X83255742Y-72322722D01*
X83275203Y-72390999D01*
X83254661Y-72458959D01*
X83202457Y-72504195D01*
X83168238Y-72520151D01*
X83168233Y-72520154D01*
X83163251Y-72522477D01*
X83058389Y-72595902D01*
X82980211Y-72650643D01*
X82980208Y-72650645D01*
X82975700Y-72653802D01*
X82813802Y-72815700D01*
X82682477Y-73003251D01*
X82680154Y-73008233D01*
X82680151Y-73008238D01*
X82588039Y-73205775D01*
X82585716Y-73210757D01*
X82526457Y-73431913D01*
X82506502Y-73660000D01*
X82526457Y-73888087D01*
X82585716Y-74109243D01*
X82588039Y-74114224D01*
X82588039Y-74114225D01*
X82680151Y-74311762D01*
X82680154Y-74311767D01*
X82682477Y-74316749D01*
X82813802Y-74504300D01*
X82975700Y-74666198D01*
X82980208Y-74669355D01*
X82980211Y-74669357D01*
X83058389Y-74724098D01*
X83163251Y-74797523D01*
X83168233Y-74799846D01*
X83168238Y-74799849D01*
X83202457Y-74815805D01*
X83255742Y-74862722D01*
X83275203Y-74930999D01*
X83254661Y-74998959D01*
X83202457Y-75044195D01*
X83168238Y-75060151D01*
X83168233Y-75060154D01*
X83163251Y-75062477D01*
X83058389Y-75135902D01*
X82980211Y-75190643D01*
X82980208Y-75190645D01*
X82975700Y-75193802D01*
X82813802Y-75355700D01*
X82682477Y-75543251D01*
X82680154Y-75548233D01*
X82680151Y-75548238D01*
X82588039Y-75745775D01*
X82585716Y-75750757D01*
X82526457Y-75971913D01*
X82506502Y-76200000D01*
X82526457Y-76428087D01*
X82585716Y-76649243D01*
X82588039Y-76654224D01*
X82588039Y-76654225D01*
X82680151Y-76851762D01*
X82680154Y-76851767D01*
X82682477Y-76856749D01*
X82813802Y-77044300D01*
X82975700Y-77206198D01*
X82980208Y-77209355D01*
X82980211Y-77209357D01*
X83058389Y-77264098D01*
X83163251Y-77337523D01*
X83168233Y-77339846D01*
X83168238Y-77339849D01*
X83202457Y-77355805D01*
X83255742Y-77402722D01*
X83275203Y-77470999D01*
X83254661Y-77538959D01*
X83202457Y-77584195D01*
X83168238Y-77600151D01*
X83168233Y-77600154D01*
X83163251Y-77602477D01*
X83058389Y-77675902D01*
X82980211Y-77730643D01*
X82980208Y-77730645D01*
X82975700Y-77733802D01*
X82813802Y-77895700D01*
X82682477Y-78083251D01*
X82680154Y-78088233D01*
X82680151Y-78088238D01*
X82588039Y-78285775D01*
X82585716Y-78290757D01*
X82526457Y-78511913D01*
X82506502Y-78740000D01*
X82526457Y-78968087D01*
X82585716Y-79189243D01*
X82588039Y-79194224D01*
X82588039Y-79194225D01*
X82680151Y-79391762D01*
X82680154Y-79391767D01*
X82682477Y-79396749D01*
X82813802Y-79584300D01*
X82975700Y-79746198D01*
X82980208Y-79749355D01*
X82980211Y-79749357D01*
X83058389Y-79804098D01*
X83163251Y-79877523D01*
X83168233Y-79879846D01*
X83168238Y-79879849D01*
X83202457Y-79895805D01*
X83255742Y-79942722D01*
X83275203Y-80010999D01*
X83254661Y-80078959D01*
X83202457Y-80124195D01*
X83168238Y-80140151D01*
X83168233Y-80140154D01*
X83163251Y-80142477D01*
X83058389Y-80215902D01*
X82980211Y-80270643D01*
X82980208Y-80270645D01*
X82975700Y-80273802D01*
X82813802Y-80435700D01*
X82682477Y-80623251D01*
X82680154Y-80628233D01*
X82680151Y-80628238D01*
X82588039Y-80825775D01*
X82585716Y-80830757D01*
X82526457Y-81051913D01*
X82506502Y-81280000D01*
X82526457Y-81508087D01*
X82585716Y-81729243D01*
X82588039Y-81734224D01*
X82588039Y-81734225D01*
X82680151Y-81931762D01*
X82680154Y-81931767D01*
X82682477Y-81936749D01*
X82813802Y-82124300D01*
X82975700Y-82286198D01*
X82980208Y-82289355D01*
X82980211Y-82289357D01*
X83058389Y-82344098D01*
X83163251Y-82417523D01*
X83168233Y-82419846D01*
X83168238Y-82419849D01*
X83202457Y-82435805D01*
X83255742Y-82482722D01*
X83275203Y-82550999D01*
X83254661Y-82618959D01*
X83202457Y-82664195D01*
X83168238Y-82680151D01*
X83168233Y-82680154D01*
X83163251Y-82682477D01*
X83058389Y-82755902D01*
X82980211Y-82810643D01*
X82980208Y-82810645D01*
X82975700Y-82813802D01*
X82813802Y-82975700D01*
X82682477Y-83163251D01*
X82680154Y-83168233D01*
X82680151Y-83168238D01*
X82610053Y-83318565D01*
X82585716Y-83370757D01*
X82584294Y-83376065D01*
X82584293Y-83376067D01*
X82548886Y-83508206D01*
X82526457Y-83591913D01*
X82506502Y-83820000D01*
X82526457Y-84048087D01*
X82527881Y-84053400D01*
X82527881Y-84053402D01*
X82572288Y-84219128D01*
X82585716Y-84269243D01*
X82588039Y-84274224D01*
X82588039Y-84274225D01*
X82680151Y-84471762D01*
X82680154Y-84471767D01*
X82682477Y-84476749D01*
X82813802Y-84664300D01*
X82975700Y-84826198D01*
X82980208Y-84829355D01*
X82980211Y-84829357D01*
X83058389Y-84884098D01*
X83163251Y-84957523D01*
X83168233Y-84959846D01*
X83168238Y-84959849D01*
X83202457Y-84975805D01*
X83255742Y-85022722D01*
X83275203Y-85090999D01*
X83254661Y-85158959D01*
X83202457Y-85204195D01*
X83168238Y-85220151D01*
X83168233Y-85220154D01*
X83163251Y-85222477D01*
X83058389Y-85295902D01*
X82980211Y-85350643D01*
X82980208Y-85350645D01*
X82975700Y-85353802D01*
X82813802Y-85515700D01*
X82682477Y-85703251D01*
X82680154Y-85708233D01*
X82680151Y-85708238D01*
X82588039Y-85905775D01*
X82585716Y-85910757D01*
X82526457Y-86131913D01*
X82506502Y-86360000D01*
X82526457Y-86588087D01*
X82585716Y-86809243D01*
X82588039Y-86814224D01*
X82588039Y-86814225D01*
X82680151Y-87011762D01*
X82680154Y-87011767D01*
X82682477Y-87016749D01*
X82813802Y-87204300D01*
X82975700Y-87366198D01*
X82980208Y-87369355D01*
X82980211Y-87369357D01*
X83058389Y-87424098D01*
X83163251Y-87497523D01*
X83168233Y-87499846D01*
X83168238Y-87499849D01*
X83202457Y-87515805D01*
X83255742Y-87562722D01*
X83275203Y-87630999D01*
X83254661Y-87698959D01*
X83202457Y-87744195D01*
X83168238Y-87760151D01*
X83168233Y-87760154D01*
X83163251Y-87762477D01*
X83058389Y-87835902D01*
X82980211Y-87890643D01*
X82980208Y-87890645D01*
X82975700Y-87893802D01*
X82813802Y-88055700D01*
X82682477Y-88243251D01*
X82680154Y-88248233D01*
X82680151Y-88248238D01*
X82588039Y-88445775D01*
X82585716Y-88450757D01*
X82526457Y-88671913D01*
X82506502Y-88900000D01*
X82526457Y-89128087D01*
X82585716Y-89349243D01*
X82588039Y-89354224D01*
X82588039Y-89354225D01*
X82680151Y-89551762D01*
X82680154Y-89551767D01*
X82682477Y-89556749D01*
X82813802Y-89744300D01*
X82975700Y-89906198D01*
X82980208Y-89909355D01*
X82980211Y-89909357D01*
X83058389Y-89964098D01*
X83163251Y-90037523D01*
X83168233Y-90039846D01*
X83168238Y-90039849D01*
X83202457Y-90055805D01*
X83255742Y-90102722D01*
X83275203Y-90170999D01*
X83254661Y-90238959D01*
X83202457Y-90284195D01*
X83168238Y-90300151D01*
X83168233Y-90300154D01*
X83163251Y-90302477D01*
X83058389Y-90375902D01*
X82980211Y-90430643D01*
X82980208Y-90430645D01*
X82975700Y-90433802D01*
X82813802Y-90595700D01*
X82682477Y-90783251D01*
X82680154Y-90788233D01*
X82680151Y-90788238D01*
X82588039Y-90985775D01*
X82585716Y-90990757D01*
X82526457Y-91211913D01*
X82506502Y-91440000D01*
X82526457Y-91668087D01*
X82527881Y-91673400D01*
X82527881Y-91673402D01*
X82531184Y-91685727D01*
X82585716Y-91889243D01*
X82588039Y-91894224D01*
X82588039Y-91894225D01*
X82680151Y-92091762D01*
X82680154Y-92091767D01*
X82682477Y-92096749D01*
X82813802Y-92284300D01*
X82975700Y-92446198D01*
X82980208Y-92449355D01*
X82980211Y-92449357D01*
X83058389Y-92504098D01*
X83163251Y-92577523D01*
X83168233Y-92579846D01*
X83168238Y-92579849D01*
X83202457Y-92595805D01*
X83255742Y-92642722D01*
X83275203Y-92710999D01*
X83254661Y-92778959D01*
X83202457Y-92824195D01*
X83168238Y-92840151D01*
X83168233Y-92840154D01*
X83163251Y-92842477D01*
X83058389Y-92915902D01*
X82980211Y-92970643D01*
X82980208Y-92970645D01*
X82975700Y-92973802D01*
X82813802Y-93135700D01*
X82810645Y-93140208D01*
X82810643Y-93140211D01*
X82755902Y-93218389D01*
X82682477Y-93323251D01*
X82680154Y-93328233D01*
X82680151Y-93328238D01*
X82636803Y-93421200D01*
X82585716Y-93530757D01*
X82584294Y-93536065D01*
X82584293Y-93536067D01*
X82528310Y-93744997D01*
X82526457Y-93751913D01*
X82506502Y-93980000D01*
X82526457Y-94208087D01*
X82527879Y-94213392D01*
X82527881Y-94213406D01*
X82543459Y-94271539D01*
X82541771Y-94342516D01*
X82510848Y-94393248D01*
X82056699Y-94847396D01*
X81994387Y-94881421D01*
X81967604Y-94884300D01*
X76728572Y-94884300D01*
X76660451Y-94864298D01*
X76613958Y-94810642D01*
X76603262Y-94771470D01*
X76599015Y-94731056D01*
X76589907Y-94644400D01*
X76586232Y-94609435D01*
X76586232Y-94609433D01*
X76585542Y-94602872D01*
X76526527Y-94421244D01*
X76510364Y-94393248D01*
X76481073Y-94342516D01*
X76431040Y-94255856D01*
X76383095Y-94202607D01*
X76307675Y-94118845D01*
X76307674Y-94118844D01*
X76303253Y-94113934D01*
X76148752Y-94001682D01*
X76142724Y-93998998D01*
X76142722Y-93998997D01*
X75980319Y-93926691D01*
X75980318Y-93926691D01*
X75974288Y-93924006D01*
X75876418Y-93903203D01*
X75793944Y-93885672D01*
X75793939Y-93885672D01*
X75787487Y-93884300D01*
X75731594Y-93884300D01*
X75663473Y-93864298D01*
X75642499Y-93847395D01*
X74612975Y-92817870D01*
X73554051Y-91758946D01*
X73546511Y-91750660D01*
X73542399Y-91744181D01*
X73492747Y-91697555D01*
X73489906Y-91694801D01*
X73470169Y-91675064D01*
X73466972Y-91672584D01*
X73457950Y-91664879D01*
X73455531Y-91662607D01*
X73425720Y-91634613D01*
X73418774Y-91630794D01*
X73418771Y-91630792D01*
X73407965Y-91624851D01*
X73391446Y-91614000D01*
X73384151Y-91608342D01*
X73375440Y-91601585D01*
X73368171Y-91598440D01*
X73368167Y-91598437D01*
X73334862Y-91584025D01*
X73324212Y-91578808D01*
X73285459Y-91557504D01*
X73265836Y-91552466D01*
X73247133Y-91546062D01*
X73235819Y-91541166D01*
X73235818Y-91541166D01*
X73228544Y-91538018D01*
X73220721Y-91536779D01*
X73220711Y-91536776D01*
X73184875Y-91531100D01*
X73173255Y-91528694D01*
X73138110Y-91519671D01*
X73138109Y-91519671D01*
X73130429Y-91517699D01*
X73110175Y-91517699D01*
X73090464Y-91516148D01*
X73078285Y-91514219D01*
X73070456Y-91512979D01*
X73041185Y-91515746D01*
X73026438Y-91517140D01*
X73014580Y-91517699D01*
X65407568Y-91517699D01*
X65396385Y-91517172D01*
X65388892Y-91515497D01*
X65380966Y-91515746D01*
X65380965Y-91515746D01*
X65320815Y-91517637D01*
X65316856Y-91517699D01*
X65288945Y-91517699D01*
X65285011Y-91518196D01*
X65285010Y-91518196D01*
X65284945Y-91518204D01*
X65273108Y-91519137D01*
X65241291Y-91520137D01*
X65236830Y-91520277D01*
X65228911Y-91520526D01*
X65211255Y-91525655D01*
X65209459Y-91526177D01*
X65190107Y-91530185D01*
X65183036Y-91531079D01*
X65170004Y-91532725D01*
X65162635Y-91535642D01*
X65162633Y-91535643D01*
X65128898Y-91548999D01*
X65117670Y-91552844D01*
X65075208Y-91565181D01*
X65068386Y-91569215D01*
X65068380Y-91569218D01*
X65057769Y-91575493D01*
X65040019Y-91584189D01*
X65028557Y-91588727D01*
X65028552Y-91588730D01*
X65021184Y-91591647D01*
X65008908Y-91600566D01*
X64942045Y-91624422D01*
X64872893Y-91608342D01*
X64823413Y-91557429D01*
X64809330Y-91487648D01*
X64813019Y-91445478D01*
X64813019Y-91445475D01*
X64813498Y-91440000D01*
X64793543Y-91211913D01*
X64734284Y-90990757D01*
X64731961Y-90985775D01*
X64639849Y-90788238D01*
X64639846Y-90788233D01*
X64637523Y-90783251D01*
X64506198Y-90595700D01*
X64344300Y-90433802D01*
X64339792Y-90430645D01*
X64339789Y-90430643D01*
X64261611Y-90375902D01*
X64156749Y-90302477D01*
X64151767Y-90300154D01*
X64151762Y-90300151D01*
X64117543Y-90284195D01*
X64064258Y-90237278D01*
X64044797Y-90169001D01*
X64065339Y-90101041D01*
X64117543Y-90055805D01*
X64151762Y-90039849D01*
X64151767Y-90039846D01*
X64156749Y-90037523D01*
X64261611Y-89964098D01*
X64339789Y-89909357D01*
X64339792Y-89909355D01*
X64344300Y-89906198D01*
X64506198Y-89744300D01*
X64637523Y-89556749D01*
X64639846Y-89551767D01*
X64639849Y-89551762D01*
X64731961Y-89354225D01*
X64731961Y-89354224D01*
X64734284Y-89349243D01*
X64793543Y-89128087D01*
X64813498Y-88900000D01*
X64793543Y-88671913D01*
X64734284Y-88450757D01*
X64731961Y-88445775D01*
X64639849Y-88248238D01*
X64639846Y-88248233D01*
X64637523Y-88243251D01*
X64506198Y-88055700D01*
X64344300Y-87893802D01*
X64339792Y-87890645D01*
X64339789Y-87890643D01*
X64261611Y-87835902D01*
X64156749Y-87762477D01*
X64151767Y-87760154D01*
X64151762Y-87760151D01*
X64117543Y-87744195D01*
X64064258Y-87697278D01*
X64044797Y-87629001D01*
X64065339Y-87561041D01*
X64117543Y-87515805D01*
X64151762Y-87499849D01*
X64151767Y-87499846D01*
X64156749Y-87497523D01*
X64261611Y-87424098D01*
X64339789Y-87369357D01*
X64339792Y-87369355D01*
X64344300Y-87366198D01*
X64506198Y-87204300D01*
X64637523Y-87016749D01*
X64639846Y-87011767D01*
X64639849Y-87011762D01*
X64731961Y-86814225D01*
X64731961Y-86814224D01*
X64734284Y-86809243D01*
X64793543Y-86588087D01*
X64813498Y-86360000D01*
X64793543Y-86131913D01*
X64734284Y-85910757D01*
X64731961Y-85905775D01*
X64639849Y-85708238D01*
X64639846Y-85708233D01*
X64637523Y-85703251D01*
X64506198Y-85515700D01*
X64344300Y-85353802D01*
X64339792Y-85350645D01*
X64339789Y-85350643D01*
X64261611Y-85295902D01*
X64156749Y-85222477D01*
X64151767Y-85220154D01*
X64151762Y-85220151D01*
X64117543Y-85204195D01*
X64064258Y-85157278D01*
X64044797Y-85089001D01*
X64065339Y-85021041D01*
X64117543Y-84975805D01*
X64151762Y-84959849D01*
X64151767Y-84959846D01*
X64156749Y-84957523D01*
X64261611Y-84884098D01*
X64339789Y-84829357D01*
X64339792Y-84829355D01*
X64344300Y-84826198D01*
X64506198Y-84664300D01*
X64637523Y-84476749D01*
X64639846Y-84471767D01*
X64639849Y-84471762D01*
X64731961Y-84274225D01*
X64731961Y-84274224D01*
X64734284Y-84269243D01*
X64747713Y-84219128D01*
X64792119Y-84053402D01*
X64792119Y-84053400D01*
X64793543Y-84048087D01*
X64813498Y-83820000D01*
X64793543Y-83591913D01*
X64771114Y-83508206D01*
X64735707Y-83376067D01*
X64735706Y-83376065D01*
X64734284Y-83370757D01*
X64709947Y-83318565D01*
X64706886Y-83312000D01*
X75184896Y-83312000D01*
X75185586Y-83318565D01*
X75191072Y-83370757D01*
X75204858Y-83501928D01*
X75263873Y-83683556D01*
X75359360Y-83848944D01*
X75487147Y-83990866D01*
X75641648Y-84103118D01*
X75647676Y-84105802D01*
X75647678Y-84105803D01*
X75810081Y-84178109D01*
X75816112Y-84180794D01*
X75909513Y-84200647D01*
X75996456Y-84219128D01*
X75996461Y-84219128D01*
X76002913Y-84220500D01*
X76193887Y-84220500D01*
X76200339Y-84219128D01*
X76200344Y-84219128D01*
X76287287Y-84200647D01*
X76380688Y-84180794D01*
X76386719Y-84178109D01*
X76549122Y-84105803D01*
X76549124Y-84105802D01*
X76555152Y-84103118D01*
X76709653Y-83990866D01*
X76714068Y-83985963D01*
X76718980Y-83981540D01*
X76720105Y-83982789D01*
X76773414Y-83949949D01*
X76806600Y-83945500D01*
X77879400Y-83945500D01*
X77947521Y-83965502D01*
X77966747Y-83981843D01*
X77967020Y-83981540D01*
X77971932Y-83985963D01*
X77976347Y-83990866D01*
X78130848Y-84103118D01*
X78136876Y-84105802D01*
X78136878Y-84105803D01*
X78299281Y-84178109D01*
X78305312Y-84180794D01*
X78398713Y-84200647D01*
X78485656Y-84219128D01*
X78485661Y-84219128D01*
X78492113Y-84220500D01*
X78683087Y-84220500D01*
X78689539Y-84219128D01*
X78689544Y-84219128D01*
X78776487Y-84200647D01*
X78869888Y-84180794D01*
X78875919Y-84178109D01*
X79038322Y-84105803D01*
X79038324Y-84105802D01*
X79044352Y-84103118D01*
X79198853Y-83990866D01*
X79326640Y-83848944D01*
X79422127Y-83683556D01*
X79481142Y-83501928D01*
X79494929Y-83370757D01*
X79500414Y-83318565D01*
X79501104Y-83312000D01*
X79481142Y-83122072D01*
X79422127Y-82940444D01*
X79326640Y-82775056D01*
X79309325Y-82755825D01*
X79203275Y-82638045D01*
X79203274Y-82638044D01*
X79198853Y-82633134D01*
X79044352Y-82520882D01*
X79038324Y-82518198D01*
X79038322Y-82518197D01*
X78875919Y-82445891D01*
X78875918Y-82445891D01*
X78869888Y-82443206D01*
X78749060Y-82417523D01*
X78689544Y-82404872D01*
X78689539Y-82404872D01*
X78683087Y-82403500D01*
X78492113Y-82403500D01*
X78485661Y-82404872D01*
X78485656Y-82404872D01*
X78426140Y-82417523D01*
X78305312Y-82443206D01*
X78299282Y-82445891D01*
X78299281Y-82445891D01*
X78136878Y-82518197D01*
X78136876Y-82518198D01*
X78130848Y-82520882D01*
X78125507Y-82524762D01*
X78125506Y-82524763D01*
X78041612Y-82585716D01*
X77976347Y-82633134D01*
X77971932Y-82638037D01*
X77967020Y-82642460D01*
X77965895Y-82641211D01*
X77912586Y-82674051D01*
X77879400Y-82678500D01*
X76806600Y-82678500D01*
X76738479Y-82658498D01*
X76719253Y-82642157D01*
X76718980Y-82642460D01*
X76714068Y-82638037D01*
X76709653Y-82633134D01*
X76644388Y-82585716D01*
X76560494Y-82524763D01*
X76560493Y-82524762D01*
X76555152Y-82520882D01*
X76549124Y-82518198D01*
X76549122Y-82518197D01*
X76386719Y-82445891D01*
X76386718Y-82445891D01*
X76380688Y-82443206D01*
X76259860Y-82417523D01*
X76200344Y-82404872D01*
X76200339Y-82404872D01*
X76193887Y-82403500D01*
X76002913Y-82403500D01*
X75996461Y-82404872D01*
X75996456Y-82404872D01*
X75936940Y-82417523D01*
X75816112Y-82443206D01*
X75810082Y-82445891D01*
X75810081Y-82445891D01*
X75647678Y-82518197D01*
X75647676Y-82518198D01*
X75641648Y-82520882D01*
X75487147Y-82633134D01*
X75482726Y-82638044D01*
X75482725Y-82638045D01*
X75376676Y-82755825D01*
X75359360Y-82775056D01*
X75263873Y-82940444D01*
X75204858Y-83122072D01*
X75184896Y-83312000D01*
X64706886Y-83312000D01*
X64639849Y-83168238D01*
X64639846Y-83168233D01*
X64637523Y-83163251D01*
X64506198Y-82975700D01*
X64344300Y-82813802D01*
X64339792Y-82810645D01*
X64339789Y-82810643D01*
X64261611Y-82755902D01*
X64156749Y-82682477D01*
X64151767Y-82680154D01*
X64151762Y-82680151D01*
X64117543Y-82664195D01*
X64064258Y-82617278D01*
X64044797Y-82549001D01*
X64065339Y-82481041D01*
X64117543Y-82435805D01*
X64151762Y-82419849D01*
X64151767Y-82419846D01*
X64156749Y-82417523D01*
X64261611Y-82344098D01*
X64339789Y-82289357D01*
X64339792Y-82289355D01*
X64344300Y-82286198D01*
X64506198Y-82124300D01*
X64637523Y-81936749D01*
X64639846Y-81931767D01*
X64639849Y-81931762D01*
X64731961Y-81734225D01*
X64731961Y-81734224D01*
X64734284Y-81729243D01*
X64793543Y-81508087D01*
X64813498Y-81280000D01*
X64793543Y-81051913D01*
X64734284Y-80830757D01*
X64731961Y-80825775D01*
X64639849Y-80628238D01*
X64639846Y-80628233D01*
X64637523Y-80623251D01*
X64506198Y-80435700D01*
X64344300Y-80273802D01*
X64339792Y-80270645D01*
X64339789Y-80270643D01*
X64261611Y-80215902D01*
X64156749Y-80142477D01*
X64151767Y-80140154D01*
X64151762Y-80140151D01*
X64117543Y-80124195D01*
X64064258Y-80077278D01*
X64044797Y-80009001D01*
X64065339Y-79941041D01*
X64117543Y-79895805D01*
X64151762Y-79879849D01*
X64151767Y-79879846D01*
X64156749Y-79877523D01*
X64261611Y-79804098D01*
X64339789Y-79749357D01*
X64339792Y-79749355D01*
X64344300Y-79746198D01*
X64506198Y-79584300D01*
X64637523Y-79396749D01*
X64639846Y-79391767D01*
X64639849Y-79391762D01*
X64731961Y-79194225D01*
X64731961Y-79194224D01*
X64734284Y-79189243D01*
X64793543Y-78968087D01*
X64813498Y-78740000D01*
X64793543Y-78511913D01*
X64734284Y-78290757D01*
X64731961Y-78285775D01*
X64639849Y-78088238D01*
X64639846Y-78088233D01*
X64637523Y-78083251D01*
X64506198Y-77895700D01*
X64344300Y-77733802D01*
X64339792Y-77730645D01*
X64339789Y-77730643D01*
X64261611Y-77675902D01*
X64156749Y-77602477D01*
X64151767Y-77600154D01*
X64151762Y-77600151D01*
X64117543Y-77584195D01*
X64064258Y-77537278D01*
X64044797Y-77469001D01*
X64065339Y-77401041D01*
X64117543Y-77355805D01*
X64151762Y-77339849D01*
X64151767Y-77339846D01*
X64156749Y-77337523D01*
X64261611Y-77264098D01*
X64339789Y-77209357D01*
X64339792Y-77209355D01*
X64344300Y-77206198D01*
X64506198Y-77044300D01*
X64637523Y-76856749D01*
X64639846Y-76851767D01*
X64639849Y-76851762D01*
X64731961Y-76654225D01*
X64731961Y-76654224D01*
X64734284Y-76649243D01*
X64793543Y-76428087D01*
X64813498Y-76200000D01*
X64793543Y-75971913D01*
X64734284Y-75750757D01*
X64731961Y-75745775D01*
X64639849Y-75548238D01*
X64639846Y-75548233D01*
X64637523Y-75543251D01*
X64506198Y-75355700D01*
X64344300Y-75193802D01*
X64339792Y-75190645D01*
X64339789Y-75190643D01*
X64261611Y-75135902D01*
X64156749Y-75062477D01*
X64151767Y-75060154D01*
X64151762Y-75060151D01*
X64117543Y-75044195D01*
X64064258Y-74997278D01*
X64044797Y-74929001D01*
X64065339Y-74861041D01*
X64117543Y-74815805D01*
X64151762Y-74799849D01*
X64151767Y-74799846D01*
X64156749Y-74797523D01*
X64261611Y-74724098D01*
X64339789Y-74669357D01*
X64339792Y-74669355D01*
X64344300Y-74666198D01*
X64506198Y-74504300D01*
X64637523Y-74316749D01*
X64639846Y-74311767D01*
X64639849Y-74311762D01*
X64731961Y-74114225D01*
X64731961Y-74114224D01*
X64734284Y-74109243D01*
X64793543Y-73888087D01*
X64813498Y-73660000D01*
X64793543Y-73431913D01*
X64734284Y-73210757D01*
X64731961Y-73205775D01*
X64639849Y-73008238D01*
X64639846Y-73008233D01*
X64637523Y-73003251D01*
X64506198Y-72815700D01*
X64344300Y-72653802D01*
X64339792Y-72650645D01*
X64339789Y-72650643D01*
X64261611Y-72595902D01*
X64156749Y-72522477D01*
X64151767Y-72520154D01*
X64151762Y-72520151D01*
X64117543Y-72504195D01*
X64064258Y-72457278D01*
X64044797Y-72389001D01*
X64065339Y-72321041D01*
X64117543Y-72275805D01*
X64151762Y-72259849D01*
X64151767Y-72259846D01*
X64156749Y-72257523D01*
X64261611Y-72184098D01*
X64339789Y-72129357D01*
X64339792Y-72129355D01*
X64344300Y-72126198D01*
X64506198Y-71964300D01*
X64637523Y-71776749D01*
X64639846Y-71771767D01*
X64639849Y-71771762D01*
X64731961Y-71574225D01*
X64731961Y-71574224D01*
X64734284Y-71569243D01*
X64793543Y-71348087D01*
X64813498Y-71120000D01*
X64793543Y-70891913D01*
X64734284Y-70670757D01*
X64731961Y-70665775D01*
X64639849Y-70468238D01*
X64639846Y-70468233D01*
X64637523Y-70463251D01*
X64506198Y-70275700D01*
X64344300Y-70113802D01*
X64339792Y-70110645D01*
X64339789Y-70110643D01*
X64261611Y-70055902D01*
X64156749Y-69982477D01*
X64151767Y-69980154D01*
X64151762Y-69980151D01*
X64116951Y-69963919D01*
X64063666Y-69917002D01*
X64044205Y-69848725D01*
X64064747Y-69780765D01*
X64116951Y-69735529D01*
X64151511Y-69719414D01*
X64161006Y-69713931D01*
X64213048Y-69677491D01*
X64221424Y-69667012D01*
X64214356Y-69653566D01*
X63229885Y-68669095D01*
X63195859Y-68606783D01*
X63197694Y-68581132D01*
X63864408Y-68581132D01*
X63864539Y-68582965D01*
X63868790Y-68589580D01*
X64574287Y-69295077D01*
X64586062Y-69301507D01*
X64598077Y-69292211D01*
X64633931Y-69241006D01*
X64639414Y-69231511D01*
X64731490Y-69034053D01*
X64735236Y-69023761D01*
X64791625Y-68813312D01*
X64793528Y-68802519D01*
X64812517Y-68585475D01*
X64812517Y-68574525D01*
X64793528Y-68357481D01*
X64791625Y-68346688D01*
X64735236Y-68136239D01*
X64731490Y-68125947D01*
X64639414Y-67928489D01*
X64633931Y-67918994D01*
X64597491Y-67866952D01*
X64587012Y-67858576D01*
X64573566Y-67865644D01*
X63872022Y-68567188D01*
X63864408Y-68581132D01*
X63197694Y-68581132D01*
X63200924Y-68535968D01*
X63229885Y-68490905D01*
X64215077Y-67505713D01*
X64221507Y-67493938D01*
X64212211Y-67481923D01*
X64161006Y-67446069D01*
X64151511Y-67440586D01*
X64116951Y-67424471D01*
X64063666Y-67377554D01*
X64044205Y-67309277D01*
X64064747Y-67241317D01*
X64116951Y-67196081D01*
X64151762Y-67179849D01*
X64151767Y-67179846D01*
X64156749Y-67177523D01*
X64261611Y-67104098D01*
X64339789Y-67049357D01*
X64339792Y-67049355D01*
X64344300Y-67046198D01*
X64506198Y-66884300D01*
X64637523Y-66696749D01*
X64639846Y-66691767D01*
X64639849Y-66691762D01*
X64731961Y-66494225D01*
X64731961Y-66494224D01*
X64734284Y-66489243D01*
X64793543Y-66268087D01*
X64813498Y-66040000D01*
X64793543Y-65811913D01*
X64734284Y-65590757D01*
X64731961Y-65585775D01*
X64639849Y-65388238D01*
X64639846Y-65388233D01*
X64637523Y-65383251D01*
X64506198Y-65195700D01*
X64344300Y-65033802D01*
X64339792Y-65030645D01*
X64339789Y-65030643D01*
X64261611Y-64975902D01*
X64156749Y-64902477D01*
X64151767Y-64900154D01*
X64151762Y-64900151D01*
X64117543Y-64884195D01*
X64064258Y-64837278D01*
X64044797Y-64769001D01*
X64065339Y-64701041D01*
X64117543Y-64655805D01*
X64151762Y-64639849D01*
X64151767Y-64639846D01*
X64156749Y-64637523D01*
X64261611Y-64564098D01*
X64339789Y-64509357D01*
X64339792Y-64509355D01*
X64344300Y-64506198D01*
X64506198Y-64344300D01*
X64637523Y-64156749D01*
X64639846Y-64151767D01*
X64639849Y-64151762D01*
X64731961Y-63954225D01*
X64731961Y-63954224D01*
X64734284Y-63949243D01*
X64793543Y-63728087D01*
X64813498Y-63500000D01*
X64793543Y-63271913D01*
X64734284Y-63050757D01*
X64731961Y-63045775D01*
X64639849Y-62848238D01*
X64639846Y-62848233D01*
X64637523Y-62843251D01*
X64506198Y-62655700D01*
X64344300Y-62493802D01*
X64339789Y-62490643D01*
X64335576Y-62487108D01*
X64336527Y-62485974D01*
X64296529Y-62435929D01*
X64289224Y-62365310D01*
X64321258Y-62301951D01*
X64382462Y-62265970D01*
X64399517Y-62262918D01*
X64410316Y-62261745D01*
X64546705Y-62210615D01*
X64663261Y-62123261D01*
X64750615Y-62006705D01*
X64801745Y-61870316D01*
X64808500Y-61808134D01*
X64808500Y-60111866D01*
X64801745Y-60049684D01*
X64750615Y-59913295D01*
X64663261Y-59796739D01*
X64546705Y-59709385D01*
X64410316Y-59658255D01*
X64348134Y-59651500D01*
X62864500Y-59651500D01*
X62796379Y-59631498D01*
X62749886Y-59577842D01*
X62738500Y-59525500D01*
X62738500Y-58412630D01*
X62758502Y-58344509D01*
X62812158Y-58298016D01*
X62882432Y-58287912D01*
X62947012Y-58317406D01*
X62968340Y-58341263D01*
X63073659Y-58494503D01*
X63271824Y-58712283D01*
X63497712Y-58901154D01*
X63501353Y-58903438D01*
X63743502Y-59055339D01*
X63743506Y-59055341D01*
X63747142Y-59057622D01*
X64015500Y-59178790D01*
X64019619Y-59180010D01*
X64293706Y-59261199D01*
X64293711Y-59261200D01*
X64297819Y-59262417D01*
X64302053Y-59263065D01*
X64302058Y-59263066D01*
X64559396Y-59302444D01*
X64588875Y-59306955D01*
X64738772Y-59309310D01*
X64878993Y-59311513D01*
X64878999Y-59311513D01*
X64883284Y-59311580D01*
X65175595Y-59276206D01*
X65460402Y-59201488D01*
X65732433Y-59088809D01*
X65782782Y-59059388D01*
X65982957Y-58942415D01*
X65982958Y-58942415D01*
X65986655Y-58940254D01*
X65990015Y-58937620D01*
X65990023Y-58937614D01*
X66214992Y-58761215D01*
X66218364Y-58758571D01*
X66423272Y-58547123D01*
X66425805Y-58543675D01*
X66425809Y-58543670D01*
X66595049Y-58313277D01*
X66597587Y-58309822D01*
X66629066Y-58251844D01*
X66736033Y-58054835D01*
X66736034Y-58054833D01*
X66738083Y-58051059D01*
X66842162Y-57775623D01*
X66907897Y-57488610D01*
X66934071Y-57195331D01*
X66934415Y-57162552D01*
X66934520Y-57152484D01*
X66934520Y-57152483D01*
X66934546Y-57150000D01*
X66933761Y-57138491D01*
X66914811Y-56860514D01*
X66914810Y-56860508D01*
X66914519Y-56856237D01*
X66854810Y-56567911D01*
X66756522Y-56290355D01*
X66621475Y-56028707D01*
X66452168Y-55787807D01*
X66251734Y-55572114D01*
X66248419Y-55569400D01*
X66248415Y-55569397D01*
X66027199Y-55388334D01*
X66023881Y-55385618D01*
X65975022Y-55355677D01*
X65968912Y-55351933D01*
X65921281Y-55299285D01*
X65909674Y-55229244D01*
X65937777Y-55164046D01*
X65996667Y-55124392D01*
X66034747Y-55118500D01*
X81283324Y-55118500D01*
X81351445Y-55138502D01*
G37*
G04 #@! TD.AperFunction*
M02*
