M48
; DRILL file {KiCad (6.0.8-1)-1} date Thursday, April 13, 2023 at 12:43:00 AM
; FORMAT={-:-/ absolute / metric / decimal}
; #@! TF.CreationDate,2023-04-13T00:43:00-04:00
; #@! TF.GenerationSoftware,Kicad,Pcbnew,(6.0.8-1)-1
; #@! TF.FileFunction,Plated,1,2,PTH
FMAT,2
METRIC
; #@! TA.AperFunction,Plated,PTH,ComponentDrill
T1C0.300
; #@! TA.AperFunction,Plated,PTH,ViaDrill
T2C0.400
; #@! TA.AperFunction,Plated,PTH,ComponentDrill
T3C0.800
; #@! TA.AperFunction,Plated,PTH,ComponentDrill
T4C2.540
%
G90
G05
T1
X73.772Y-96.754
X73.772Y-98.054
X75.072Y-96.754
X75.072Y-98.054
T2
X57.15Y-129.489
X64.412Y-111.723
X65.913Y-111.633
X66.802Y-94.539
X67.818Y-90.729
X68.123Y-93.472
X68.123Y-99.974
X69.748Y-93.269
X69.748Y-129.438
X70.673Y-109.253
X70.815Y-95.758
X71.086Y-97.654
X71.43Y-98.801
X71.73Y-93.421
X72.39Y-108.999
X72.517Y-104.902
X72.949Y-93.523
X74.172Y-94.644
X75.692Y-94.793
X76.098Y-83.312
X76.581Y-104.902
X77.47Y-129.438
X77.724Y-90.475
X78.588Y-83.312
X79.858Y-99.873
X80.02Y-110.607
X80.762Y-109.865
X81.585Y-94.691
X84.084Y-111.877
X84.826Y-111.135
X89.916Y-129.388
T3
X63.5Y-60.96
X63.5Y-63.5
X63.5Y-66.04
X63.5Y-68.58
X63.5Y-71.12
X63.5Y-73.66
X63.5Y-76.2
X63.5Y-78.74
X63.5Y-81.28
X63.5Y-83.82
X63.5Y-86.36
X63.5Y-88.9
X63.5Y-91.44
X63.5Y-93.98
X63.5Y-96.52
X63.5Y-99.06
X83.82Y-71.12
X83.82Y-73.66
X83.82Y-76.2
X83.82Y-78.74
X83.82Y-81.28
X83.82Y-83.82
X83.82Y-86.36
X83.82Y-88.9
X83.82Y-91.44
X83.82Y-93.98
X83.82Y-96.52
X83.82Y-99.06
T4
X53.34Y-109.22
X53.34Y-123.19
X64.77Y-57.15
X64.77Y-102.87
X82.55Y-57.15
X82.55Y-102.87
X93.98Y-109.22
X93.98Y-123.19
T0
M30
