G04 #@! TF.GenerationSoftware,KiCad,Pcbnew,(6.0.8-1)-1*
G04 #@! TF.CreationDate,2023-04-13T00:42:49-04:00*
G04 #@! TF.ProjectId,featherwing_rs485,66656174-6865-4727-9769-6e675f727334,1*
G04 #@! TF.SameCoordinates,Original*
G04 #@! TF.FileFunction,Legend,Top*
G04 #@! TF.FilePolarity,Positive*
%FSLAX46Y46*%
G04 Gerber Fmt 4.6, Leading zero omitted, Abs format (unit mm)*
G04 Created by KiCad (PCBNEW (6.0.8-1)-1) date 2023-04-13 00:42:49*
%MOMM*%
%LPD*%
G01*
G04 APERTURE LIST*
G04 Aperture macros list*
%AMRoundRect*
0 Rectangle with rounded corners*
0 $1 Rounding radius*
0 $2 $3 $4 $5 $6 $7 $8 $9 X,Y pos of 4 corners*
0 Add a 4 corners polygon primitive as box body*
4,1,4,$2,$3,$4,$5,$6,$7,$8,$9,$2,$3,0*
0 Add four circle primitives for the rounded corners*
1,1,$1+$1,$2,$3*
1,1,$1+$1,$4,$5*
1,1,$1+$1,$6,$7*
1,1,$1+$1,$8,$9*
0 Add four rect primitives between the rounded corners*
20,1,$1+$1,$2,$3,$4,$5,0*
20,1,$1+$1,$4,$5,$6,$7,0*
20,1,$1+$1,$6,$7,$8,$9,0*
20,1,$1+$1,$8,$9,$2,$3,0*%
G04 Aperture macros list end*
%ADD10C,0.150000*%
%ADD11C,0.120000*%
%ADD12C,3.250000*%
%ADD13R,0.760000X6.350000*%
%ADD14R,2.540000X2.940000*%
%ADD15RoundRect,0.200000X-0.275000X0.200000X-0.275000X-0.200000X0.275000X-0.200000X0.275000X0.200000X0*%
%ADD16C,3.302000*%
%ADD17RoundRect,0.200000X0.200000X0.275000X-0.200000X0.275000X-0.200000X-0.275000X0.200000X-0.275000X0*%
%ADD18RoundRect,0.200000X-0.200000X-0.275000X0.200000X-0.275000X0.200000X0.275000X-0.200000X0.275000X0*%
%ADD19R,1.120000X2.160000*%
%ADD20RoundRect,0.062500X-0.062500X0.325000X-0.062500X-0.325000X0.062500X-0.325000X0.062500X0.325000X0*%
%ADD21RoundRect,0.062500X-0.325000X0.062500X-0.325000X-0.062500X0.325000X-0.062500X0.325000X0.062500X0*%
%ADD22R,1.800000X1.800000*%
%ADD23RoundRect,0.150000X0.150000X-0.587500X0.150000X0.587500X-0.150000X0.587500X-0.150000X-0.587500X0*%
%ADD24RoundRect,0.200000X0.275000X-0.200000X0.275000X0.200000X-0.275000X0.200000X-0.275000X-0.200000X0*%
%ADD25R,1.600000X1.600000*%
%ADD26C,1.600000*%
G04 APERTURE END LIST*
D10*
X77398571Y-75866476D02*
X77398571Y-76199809D01*
X77922380Y-76199809D02*
X76922380Y-76199809D01*
X76922380Y-75723619D01*
X76922380Y-75342666D02*
X77731904Y-75342666D01*
X77827142Y-75295047D01*
X77874761Y-75247428D01*
X77922380Y-75152190D01*
X77922380Y-74961714D01*
X77874761Y-74866476D01*
X77827142Y-74818857D01*
X77731904Y-74771238D01*
X76922380Y-74771238D01*
X77922380Y-73818857D02*
X77922380Y-74295047D01*
X76922380Y-74295047D01*
X77922380Y-73009333D02*
X77922380Y-73485523D01*
X76922380Y-73485523D01*
X74477619Y-62459809D02*
X74430000Y-62412190D01*
X74382380Y-62316952D01*
X74382380Y-62078857D01*
X74430000Y-61983619D01*
X74477619Y-61936000D01*
X74572857Y-61888380D01*
X74668095Y-61888380D01*
X74810952Y-61936000D01*
X75382380Y-62507428D01*
X75382380Y-61888380D01*
X74382380Y-61269333D02*
X74382380Y-61174095D01*
X74430000Y-61078857D01*
X74477619Y-61031238D01*
X74572857Y-60983619D01*
X74763333Y-60936000D01*
X75001428Y-60936000D01*
X75191904Y-60983619D01*
X75287142Y-61031238D01*
X75334761Y-61078857D01*
X75382380Y-61174095D01*
X75382380Y-61269333D01*
X75334761Y-61364571D01*
X75287142Y-61412190D01*
X75191904Y-61459809D01*
X75001428Y-61507428D01*
X74763333Y-61507428D01*
X74572857Y-61459809D01*
X74477619Y-61412190D01*
X74430000Y-61364571D01*
X74382380Y-61269333D01*
X75382380Y-59745523D02*
X74382380Y-59745523D01*
X75096666Y-59412190D01*
X74382380Y-59078857D01*
X75382380Y-59078857D01*
X75382380Y-58602666D02*
X74382380Y-58602666D01*
X74763333Y-58602666D02*
X74715714Y-58507428D01*
X74715714Y-58316952D01*
X74763333Y-58221714D01*
X74810952Y-58174095D01*
X74906190Y-58126476D01*
X75191904Y-58126476D01*
X75287142Y-58174095D01*
X75334761Y-58221714D01*
X75382380Y-58316952D01*
X75382380Y-58507428D01*
X75334761Y-58602666D01*
X74715714Y-57697904D02*
X75715714Y-57697904D01*
X74763333Y-57697904D02*
X74715714Y-57602666D01*
X74715714Y-57412190D01*
X74763333Y-57316952D01*
X74810952Y-57269333D01*
X74906190Y-57221714D01*
X75191904Y-57221714D01*
X75287142Y-57269333D01*
X75334761Y-57316952D01*
X75382380Y-57412190D01*
X75382380Y-57602666D01*
X75334761Y-57697904D01*
X75334761Y-56840761D02*
X75382380Y-56745523D01*
X75382380Y-56555047D01*
X75334761Y-56459809D01*
X75239523Y-56412190D01*
X75191904Y-56412190D01*
X75096666Y-56459809D01*
X75049047Y-56555047D01*
X75049047Y-56697904D01*
X75001428Y-56793142D01*
X74906190Y-56840761D01*
X74858571Y-56840761D01*
X74763333Y-56793142D01*
X74715714Y-56697904D01*
X74715714Y-56555047D01*
X74763333Y-56459809D01*
X71842380Y-62214047D02*
X71842380Y-62023571D01*
X71890000Y-61928333D01*
X71985238Y-61833095D01*
X72175714Y-61785476D01*
X72509047Y-61785476D01*
X72699523Y-61833095D01*
X72794761Y-61928333D01*
X72842380Y-62023571D01*
X72842380Y-62214047D01*
X72794761Y-62309285D01*
X72699523Y-62404523D01*
X72509047Y-62452142D01*
X72175714Y-62452142D01*
X71985238Y-62404523D01*
X71890000Y-62309285D01*
X71842380Y-62214047D01*
X72842380Y-61356904D02*
X71842380Y-61356904D01*
X72842380Y-60785476D01*
X71842380Y-60785476D01*
X74128380Y-86390904D02*
X74128380Y-85819476D01*
X75128380Y-86105190D02*
X74128380Y-86105190D01*
X74128380Y-85581380D02*
X75128380Y-84914714D01*
X74128380Y-84914714D02*
X75128380Y-85581380D01*
X75080761Y-83819476D02*
X75128380Y-83676619D01*
X75128380Y-83438523D01*
X75080761Y-83343285D01*
X75033142Y-83295666D01*
X74937904Y-83248047D01*
X74842666Y-83248047D01*
X74747428Y-83295666D01*
X74699809Y-83343285D01*
X74652190Y-83438523D01*
X74604571Y-83629000D01*
X74556952Y-83724238D01*
X74509333Y-83771857D01*
X74414095Y-83819476D01*
X74318857Y-83819476D01*
X74223619Y-83771857D01*
X74176000Y-83724238D01*
X74128380Y-83629000D01*
X74128380Y-83390904D01*
X74176000Y-83248047D01*
X75128380Y-82819476D02*
X74128380Y-82819476D01*
X74128380Y-82438523D01*
X74176000Y-82343285D01*
X74223619Y-82295666D01*
X74318857Y-82248047D01*
X74461714Y-82248047D01*
X74556952Y-82295666D01*
X74604571Y-82343285D01*
X74652190Y-82438523D01*
X74652190Y-82819476D01*
X75128380Y-81819476D02*
X74128380Y-81819476D01*
X74128380Y-81581380D01*
X74176000Y-81438523D01*
X74271238Y-81343285D01*
X74366476Y-81295666D01*
X74556952Y-81248047D01*
X74699809Y-81248047D01*
X74890285Y-81295666D01*
X74985523Y-81343285D01*
X75080761Y-81438523D01*
X75128380Y-81581380D01*
X75128380Y-81819476D01*
X75033142Y-80819476D02*
X75080761Y-80771857D01*
X75128380Y-80819476D01*
X75080761Y-80867095D01*
X75033142Y-80819476D01*
X75128380Y-80819476D01*
X74509333Y-80819476D02*
X74556952Y-80771857D01*
X74604571Y-80819476D01*
X74556952Y-80867095D01*
X74509333Y-80819476D01*
X74604571Y-80819476D01*
X74128380Y-79105190D02*
X74128380Y-79581380D01*
X74604571Y-79629000D01*
X74556952Y-79581380D01*
X74509333Y-79486142D01*
X74509333Y-79248047D01*
X74556952Y-79152809D01*
X74604571Y-79105190D01*
X74699809Y-79057571D01*
X74937904Y-79057571D01*
X75033142Y-79105190D01*
X75080761Y-79152809D01*
X75128380Y-79248047D01*
X75128380Y-79486142D01*
X75080761Y-79581380D01*
X75033142Y-79629000D01*
X74128380Y-78438523D02*
X74128380Y-78343285D01*
X74176000Y-78248047D01*
X74223619Y-78200428D01*
X74318857Y-78152809D01*
X74509333Y-78105190D01*
X74747428Y-78105190D01*
X74937904Y-78152809D01*
X75033142Y-78200428D01*
X75080761Y-78248047D01*
X75128380Y-78343285D01*
X75128380Y-78438523D01*
X75080761Y-78533761D01*
X75033142Y-78581380D01*
X74937904Y-78629000D01*
X74747428Y-78676619D01*
X74509333Y-78676619D01*
X74318857Y-78629000D01*
X74223619Y-78581380D01*
X74176000Y-78533761D01*
X74128380Y-78438523D01*
X74128380Y-77486142D02*
X74128380Y-77390904D01*
X74176000Y-77295666D01*
X74223619Y-77248047D01*
X74318857Y-77200428D01*
X74509333Y-77152809D01*
X74747428Y-77152809D01*
X74937904Y-77200428D01*
X75033142Y-77248047D01*
X75080761Y-77295666D01*
X75128380Y-77390904D01*
X75128380Y-77486142D01*
X75080761Y-77581380D01*
X75033142Y-77629000D01*
X74937904Y-77676619D01*
X74747428Y-77724238D01*
X74509333Y-77724238D01*
X74318857Y-77676619D01*
X74223619Y-77629000D01*
X74176000Y-77581380D01*
X74128380Y-77486142D01*
X75128380Y-75962333D02*
X74128380Y-75962333D01*
X74747428Y-75867095D02*
X75128380Y-75581380D01*
X74461714Y-75581380D02*
X74842666Y-75962333D01*
X75128380Y-75152809D02*
X74128380Y-75152809D01*
X74509333Y-75152809D02*
X74461714Y-75057571D01*
X74461714Y-74867095D01*
X74509333Y-74771857D01*
X74556952Y-74724238D01*
X74652190Y-74676619D01*
X74937904Y-74676619D01*
X75033142Y-74724238D01*
X75080761Y-74771857D01*
X75128380Y-74867095D01*
X75128380Y-75057571D01*
X75080761Y-75152809D01*
X74461714Y-74248047D02*
X75461714Y-74248047D01*
X74509333Y-74248047D02*
X74461714Y-74152809D01*
X74461714Y-73962333D01*
X74509333Y-73867095D01*
X74556952Y-73819476D01*
X74652190Y-73771857D01*
X74937904Y-73771857D01*
X75033142Y-73819476D01*
X75080761Y-73867095D01*
X75128380Y-73962333D01*
X75128380Y-74152809D01*
X75080761Y-74248047D01*
X75080761Y-73390904D02*
X75128380Y-73295666D01*
X75128380Y-73105190D01*
X75080761Y-73009952D01*
X74985523Y-72962333D01*
X74937904Y-72962333D01*
X74842666Y-73009952D01*
X74795047Y-73105190D01*
X74795047Y-73248047D01*
X74747428Y-73343285D01*
X74652190Y-73390904D01*
X74604571Y-73390904D01*
X74509333Y-73343285D01*
X74461714Y-73248047D01*
X74461714Y-73105190D01*
X74509333Y-73009952D01*
X70302380Y-81573190D02*
X69826190Y-81906523D01*
X70302380Y-82144619D02*
X69302380Y-82144619D01*
X69302380Y-81763666D01*
X69350000Y-81668428D01*
X69397619Y-81620809D01*
X69492857Y-81573190D01*
X69635714Y-81573190D01*
X69730952Y-81620809D01*
X69778571Y-81668428D01*
X69826190Y-81763666D01*
X69826190Y-82144619D01*
X69302380Y-81239857D02*
X70302380Y-80573190D01*
X69302380Y-80573190D02*
X70302380Y-81239857D01*
X70302380Y-78858904D02*
X69826190Y-79192238D01*
X70302380Y-79430333D02*
X69302380Y-79430333D01*
X69302380Y-79049380D01*
X69350000Y-78954142D01*
X69397619Y-78906523D01*
X69492857Y-78858904D01*
X69635714Y-78858904D01*
X69730952Y-78906523D01*
X69778571Y-78954142D01*
X69826190Y-79049380D01*
X69826190Y-79430333D01*
X69778571Y-78430333D02*
X69778571Y-78097000D01*
X70302380Y-77954142D02*
X70302380Y-78430333D01*
X69302380Y-78430333D01*
X69302380Y-77954142D01*
X70254761Y-77573190D02*
X70302380Y-77430333D01*
X70302380Y-77192238D01*
X70254761Y-77097000D01*
X70207142Y-77049380D01*
X70111904Y-77001761D01*
X70016666Y-77001761D01*
X69921428Y-77049380D01*
X69873809Y-77097000D01*
X69826190Y-77192238D01*
X69778571Y-77382714D01*
X69730952Y-77477952D01*
X69683333Y-77525571D01*
X69588095Y-77573190D01*
X69492857Y-77573190D01*
X69397619Y-77525571D01*
X69350000Y-77477952D01*
X69302380Y-77382714D01*
X69302380Y-77144619D01*
X69350000Y-77001761D01*
X70207142Y-76573190D02*
X70254761Y-76525571D01*
X70302380Y-76573190D01*
X70254761Y-76620809D01*
X70207142Y-76573190D01*
X70302380Y-76573190D01*
X69683333Y-76573190D02*
X69730952Y-76525571D01*
X69778571Y-76573190D01*
X69730952Y-76620809D01*
X69683333Y-76573190D01*
X69778571Y-76573190D01*
X69302380Y-75144619D02*
X69302380Y-74954142D01*
X69350000Y-74858904D01*
X69445238Y-74763666D01*
X69635714Y-74716047D01*
X69969047Y-74716047D01*
X70159523Y-74763666D01*
X70254761Y-74858904D01*
X70302380Y-74954142D01*
X70302380Y-75144619D01*
X70254761Y-75239857D01*
X70159523Y-75335095D01*
X69969047Y-75382714D01*
X69635714Y-75382714D01*
X69445238Y-75335095D01*
X69350000Y-75239857D01*
X69302380Y-75144619D01*
X69778571Y-73954142D02*
X69778571Y-74287476D01*
X70302380Y-74287476D02*
X69302380Y-74287476D01*
X69302380Y-73811285D01*
X69778571Y-73097000D02*
X69778571Y-73430333D01*
X70302380Y-73430333D02*
X69302380Y-73430333D01*
X69302380Y-72954142D01*
X71969380Y-82041428D02*
X71969380Y-81470000D01*
X72969380Y-81755714D02*
X71969380Y-81755714D01*
X71969380Y-81231904D02*
X72969380Y-80565238D01*
X71969380Y-80565238D02*
X72969380Y-81231904D01*
X72969380Y-78850952D02*
X72493190Y-79184285D01*
X72969380Y-79422380D02*
X71969380Y-79422380D01*
X71969380Y-79041428D01*
X72017000Y-78946190D01*
X72064619Y-78898571D01*
X72159857Y-78850952D01*
X72302714Y-78850952D01*
X72397952Y-78898571D01*
X72445571Y-78946190D01*
X72493190Y-79041428D01*
X72493190Y-79422380D01*
X72445571Y-78422380D02*
X72445571Y-78089047D01*
X72969380Y-77946190D02*
X72969380Y-78422380D01*
X71969380Y-78422380D01*
X71969380Y-77946190D01*
X72921761Y-77565238D02*
X72969380Y-77422380D01*
X72969380Y-77184285D01*
X72921761Y-77089047D01*
X72874142Y-77041428D01*
X72778904Y-76993809D01*
X72683666Y-76993809D01*
X72588428Y-77041428D01*
X72540809Y-77089047D01*
X72493190Y-77184285D01*
X72445571Y-77374761D01*
X72397952Y-77470000D01*
X72350333Y-77517619D01*
X72255095Y-77565238D01*
X72159857Y-77565238D01*
X72064619Y-77517619D01*
X72017000Y-77470000D01*
X71969380Y-77374761D01*
X71969380Y-77136666D01*
X72017000Y-76993809D01*
X72874142Y-76565238D02*
X72921761Y-76517619D01*
X72969380Y-76565238D01*
X72921761Y-76612857D01*
X72874142Y-76565238D01*
X72969380Y-76565238D01*
X72350333Y-76565238D02*
X72397952Y-76517619D01*
X72445571Y-76565238D01*
X72397952Y-76612857D01*
X72350333Y-76565238D01*
X72445571Y-76565238D01*
X71969380Y-75136666D02*
X71969380Y-74946190D01*
X72017000Y-74850952D01*
X72112238Y-74755714D01*
X72302714Y-74708095D01*
X72636047Y-74708095D01*
X72826523Y-74755714D01*
X72921761Y-74850952D01*
X72969380Y-74946190D01*
X72969380Y-75136666D01*
X72921761Y-75231904D01*
X72826523Y-75327142D01*
X72636047Y-75374761D01*
X72302714Y-75374761D01*
X72112238Y-75327142D01*
X72017000Y-75231904D01*
X71969380Y-75136666D01*
X72445571Y-73946190D02*
X72445571Y-74279523D01*
X72969380Y-74279523D02*
X71969380Y-74279523D01*
X71969380Y-73803333D01*
X72445571Y-73089047D02*
X72445571Y-73422380D01*
X72969380Y-73422380D02*
X71969380Y-73422380D01*
X71969380Y-72946190D01*
X69302380Y-62214047D02*
X69302380Y-62023571D01*
X69350000Y-61928333D01*
X69445238Y-61833095D01*
X69635714Y-61785476D01*
X69969047Y-61785476D01*
X70159523Y-61833095D01*
X70254761Y-61928333D01*
X70302380Y-62023571D01*
X70302380Y-62214047D01*
X70254761Y-62309285D01*
X70159523Y-62404523D01*
X69969047Y-62452142D01*
X69635714Y-62452142D01*
X69445238Y-62404523D01*
X69350000Y-62309285D01*
X69302380Y-62214047D01*
X70302380Y-61356904D02*
X69302380Y-61356904D01*
X70302380Y-60785476D01*
X69302380Y-60785476D01*
X77922380Y-62507619D02*
X76922380Y-62507619D01*
X77398571Y-62507619D02*
X77398571Y-61936190D01*
X77922380Y-61936190D02*
X76922380Y-61936190D01*
X77636666Y-61507619D02*
X77636666Y-61031428D01*
X77922380Y-61602857D02*
X76922380Y-61269523D01*
X77922380Y-60936190D01*
X77922380Y-60126666D02*
X77922380Y-60602857D01*
X76922380Y-60602857D01*
X77398571Y-59460000D02*
X77398571Y-59793333D01*
X77922380Y-59793333D02*
X76922380Y-59793333D01*
X76922380Y-59317142D01*
X91908380Y-118570333D02*
X92622666Y-118570333D01*
X92765523Y-118617952D01*
X92860761Y-118713190D01*
X92908380Y-118856047D01*
X92908380Y-118951285D01*
X92908380Y-117570333D02*
X92908380Y-118141761D01*
X92908380Y-117856047D02*
X91908380Y-117856047D01*
X92051238Y-117951285D01*
X92146476Y-118046523D01*
X92194095Y-118141761D01*
X78049380Y-100877666D02*
X77573190Y-101211000D01*
X78049380Y-101449095D02*
X77049380Y-101449095D01*
X77049380Y-101068142D01*
X77097000Y-100972904D01*
X77144619Y-100925285D01*
X77239857Y-100877666D01*
X77382714Y-100877666D01*
X77477952Y-100925285D01*
X77525571Y-100972904D01*
X77573190Y-101068142D01*
X77573190Y-101449095D01*
X77049380Y-100020523D02*
X77049380Y-100211000D01*
X77097000Y-100306238D01*
X77144619Y-100353857D01*
X77287476Y-100449095D01*
X77477952Y-100496714D01*
X77858904Y-100496714D01*
X77954142Y-100449095D01*
X78001761Y-100401476D01*
X78049380Y-100306238D01*
X78049380Y-100115761D01*
X78001761Y-100020523D01*
X77954142Y-99972904D01*
X77858904Y-99925285D01*
X77620809Y-99925285D01*
X77525571Y-99972904D01*
X77477952Y-100020523D01*
X77430333Y-100115761D01*
X77430333Y-100306238D01*
X77477952Y-100401476D01*
X77525571Y-100449095D01*
X77620809Y-100496714D01*
X75128380Y-90177857D02*
X74652190Y-90511190D01*
X75128380Y-90749285D02*
X74128380Y-90749285D01*
X74128380Y-90368333D01*
X74176000Y-90273095D01*
X74223619Y-90225476D01*
X74318857Y-90177857D01*
X74461714Y-90177857D01*
X74556952Y-90225476D01*
X74604571Y-90273095D01*
X74652190Y-90368333D01*
X74652190Y-90749285D01*
X75128380Y-89225476D02*
X75128380Y-89796904D01*
X75128380Y-89511190D02*
X74128380Y-89511190D01*
X74271238Y-89606428D01*
X74366476Y-89701666D01*
X74414095Y-89796904D01*
X74128380Y-88606428D02*
X74128380Y-88511190D01*
X74176000Y-88415952D01*
X74223619Y-88368333D01*
X74318857Y-88320714D01*
X74509333Y-88273095D01*
X74747428Y-88273095D01*
X74937904Y-88320714D01*
X75033142Y-88368333D01*
X75080761Y-88415952D01*
X75128380Y-88511190D01*
X75128380Y-88606428D01*
X75080761Y-88701666D01*
X75033142Y-88749285D01*
X74937904Y-88796904D01*
X74747428Y-88844523D01*
X74509333Y-88844523D01*
X74318857Y-88796904D01*
X74223619Y-88749285D01*
X74176000Y-88701666D01*
X74128380Y-88606428D01*
X66254333Y-97729380D02*
X65921000Y-97253190D01*
X65682904Y-97729380D02*
X65682904Y-96729380D01*
X66063857Y-96729380D01*
X66159095Y-96777000D01*
X66206714Y-96824619D01*
X66254333Y-96919857D01*
X66254333Y-97062714D01*
X66206714Y-97157952D01*
X66159095Y-97205571D01*
X66063857Y-97253190D01*
X65682904Y-97253190D01*
X66635285Y-96824619D02*
X66682904Y-96777000D01*
X66778142Y-96729380D01*
X67016238Y-96729380D01*
X67111476Y-96777000D01*
X67159095Y-96824619D01*
X67206714Y-96919857D01*
X67206714Y-97015095D01*
X67159095Y-97157952D01*
X66587666Y-97729380D01*
X67206714Y-97729380D01*
X72080380Y-100882666D02*
X71604190Y-101216000D01*
X72080380Y-101454095D02*
X71080380Y-101454095D01*
X71080380Y-101073142D01*
X71128000Y-100977904D01*
X71175619Y-100930285D01*
X71270857Y-100882666D01*
X71413714Y-100882666D01*
X71508952Y-100930285D01*
X71556571Y-100977904D01*
X71604190Y-101073142D01*
X71604190Y-101454095D01*
X72080380Y-100406476D02*
X72080380Y-100216000D01*
X72032761Y-100120761D01*
X71985142Y-100073142D01*
X71842285Y-99977904D01*
X71651809Y-99930285D01*
X71270857Y-99930285D01*
X71175619Y-99977904D01*
X71128000Y-100025523D01*
X71080380Y-100120761D01*
X71080380Y-100311238D01*
X71128000Y-100406476D01*
X71175619Y-100454095D01*
X71270857Y-100501714D01*
X71508952Y-100501714D01*
X71604190Y-100454095D01*
X71651809Y-100406476D01*
X71699428Y-100311238D01*
X71699428Y-100120761D01*
X71651809Y-100025523D01*
X71604190Y-99977904D01*
X71508952Y-99930285D01*
X76652380Y-90209666D02*
X76176190Y-90543000D01*
X76652380Y-90781095D02*
X75652380Y-90781095D01*
X75652380Y-90400142D01*
X75700000Y-90304904D01*
X75747619Y-90257285D01*
X75842857Y-90209666D01*
X75985714Y-90209666D01*
X76080952Y-90257285D01*
X76128571Y-90304904D01*
X76176190Y-90400142D01*
X76176190Y-90781095D01*
X75652380Y-89304904D02*
X75652380Y-89781095D01*
X76128571Y-89828714D01*
X76080952Y-89781095D01*
X76033333Y-89685857D01*
X76033333Y-89447761D01*
X76080952Y-89352523D01*
X76128571Y-89304904D01*
X76223809Y-89257285D01*
X76461904Y-89257285D01*
X76557142Y-89304904D01*
X76604761Y-89352523D01*
X76652380Y-89447761D01*
X76652380Y-89685857D01*
X76604761Y-89781095D01*
X76557142Y-89828714D01*
X73985380Y-100882666D02*
X73509190Y-101216000D01*
X73985380Y-101454095D02*
X72985380Y-101454095D01*
X72985380Y-101073142D01*
X73033000Y-100977904D01*
X73080619Y-100930285D01*
X73175857Y-100882666D01*
X73318714Y-100882666D01*
X73413952Y-100930285D01*
X73461571Y-100977904D01*
X73509190Y-101073142D01*
X73509190Y-101454095D01*
X73413952Y-100311238D02*
X73366333Y-100406476D01*
X73318714Y-100454095D01*
X73223476Y-100501714D01*
X73175857Y-100501714D01*
X73080619Y-100454095D01*
X73033000Y-100406476D01*
X72985380Y-100311238D01*
X72985380Y-100120761D01*
X73033000Y-100025523D01*
X73080619Y-99977904D01*
X73175857Y-99930285D01*
X73223476Y-99930285D01*
X73318714Y-99977904D01*
X73366333Y-100025523D01*
X73413952Y-100120761D01*
X73413952Y-100311238D01*
X73461571Y-100406476D01*
X73509190Y-100454095D01*
X73604428Y-100501714D01*
X73794904Y-100501714D01*
X73890142Y-100454095D01*
X73937761Y-100406476D01*
X73985380Y-100311238D01*
X73985380Y-100120761D01*
X73937761Y-100025523D01*
X73890142Y-99977904D01*
X73794904Y-99930285D01*
X73604428Y-99930285D01*
X73509190Y-99977904D01*
X73461571Y-100025523D01*
X73413952Y-100120761D01*
X76017380Y-100877666D02*
X75541190Y-101211000D01*
X76017380Y-101449095D02*
X75017380Y-101449095D01*
X75017380Y-101068142D01*
X75065000Y-100972904D01*
X75112619Y-100925285D01*
X75207857Y-100877666D01*
X75350714Y-100877666D01*
X75445952Y-100925285D01*
X75493571Y-100972904D01*
X75541190Y-101068142D01*
X75541190Y-101449095D01*
X75017380Y-100544333D02*
X75017380Y-99877666D01*
X76017380Y-100306238D01*
X81367333Y-97512142D02*
X81319714Y-97559761D01*
X81176857Y-97607380D01*
X81081619Y-97607380D01*
X80938761Y-97559761D01*
X80843523Y-97464523D01*
X80795904Y-97369285D01*
X80748285Y-97178809D01*
X80748285Y-97035952D01*
X80795904Y-96845476D01*
X80843523Y-96750238D01*
X80938761Y-96655000D01*
X81081619Y-96607380D01*
X81176857Y-96607380D01*
X81319714Y-96655000D01*
X81367333Y-96702619D01*
X81748285Y-96702619D02*
X81795904Y-96655000D01*
X81891142Y-96607380D01*
X82129238Y-96607380D01*
X82224476Y-96655000D01*
X82272095Y-96702619D01*
X82319714Y-96797857D01*
X82319714Y-96893095D01*
X82272095Y-97035952D01*
X81700666Y-97607380D01*
X82319714Y-97607380D01*
X66254333Y-96205380D02*
X65921000Y-95729190D01*
X65682904Y-96205380D02*
X65682904Y-95205380D01*
X66063857Y-95205380D01*
X66159095Y-95253000D01*
X66206714Y-95300619D01*
X66254333Y-95395857D01*
X66254333Y-95538714D01*
X66206714Y-95633952D01*
X66159095Y-95681571D01*
X66063857Y-95729190D01*
X65682904Y-95729190D01*
X67206714Y-96205380D02*
X66635285Y-96205380D01*
X66921000Y-96205380D02*
X66921000Y-95205380D01*
X66825761Y-95348238D01*
X66730523Y-95443476D01*
X66635285Y-95491095D01*
X80877261Y-69278333D02*
X80924880Y-69135476D01*
X80924880Y-68897380D01*
X80877261Y-68802142D01*
X80829642Y-68754523D01*
X80734404Y-68706904D01*
X80639166Y-68706904D01*
X80543928Y-68754523D01*
X80496309Y-68802142D01*
X80448690Y-68897380D01*
X80401071Y-69087857D01*
X80353452Y-69183095D01*
X80305833Y-69230714D01*
X80210595Y-69278333D01*
X80115357Y-69278333D01*
X80020119Y-69230714D01*
X79972500Y-69183095D01*
X79924880Y-69087857D01*
X79924880Y-68849761D01*
X79972500Y-68706904D01*
X79924880Y-68373571D02*
X80924880Y-68135476D01*
X80210595Y-67945000D01*
X80924880Y-67754523D01*
X79924880Y-67516428D01*
X80924880Y-66611666D02*
X80924880Y-67183095D01*
X80924880Y-66897380D02*
X79924880Y-66897380D01*
X80067738Y-66992619D01*
X80162976Y-67087857D01*
X80210595Y-67183095D01*
X72299580Y-95097504D02*
X73109104Y-95097504D01*
X73204342Y-95049885D01*
X73251961Y-95002266D01*
X73299580Y-94907028D01*
X73299580Y-94716552D01*
X73251961Y-94621314D01*
X73204342Y-94573695D01*
X73109104Y-94526076D01*
X72299580Y-94526076D01*
X73299580Y-93526076D02*
X73299580Y-94097504D01*
X73299580Y-93811790D02*
X72299580Y-93811790D01*
X72442438Y-93907028D01*
X72537676Y-94002266D01*
X72585295Y-94097504D01*
X75763380Y-110720095D02*
X74763380Y-110720095D01*
X74763380Y-110482000D01*
X74811000Y-110339142D01*
X74906238Y-110243904D01*
X75001476Y-110196285D01*
X75191952Y-110148666D01*
X75334809Y-110148666D01*
X75525285Y-110196285D01*
X75620523Y-110243904D01*
X75715761Y-110339142D01*
X75763380Y-110482000D01*
X75763380Y-110720095D01*
X74858619Y-109767714D02*
X74811000Y-109720095D01*
X74763380Y-109624857D01*
X74763380Y-109386761D01*
X74811000Y-109291523D01*
X74858619Y-109243904D01*
X74953857Y-109196285D01*
X75049095Y-109196285D01*
X75191952Y-109243904D01*
X75763380Y-109815333D01*
X75763380Y-109196285D01*
X78176380Y-90209666D02*
X77700190Y-90543000D01*
X78176380Y-90781095D02*
X77176380Y-90781095D01*
X77176380Y-90400142D01*
X77224000Y-90304904D01*
X77271619Y-90257285D01*
X77366857Y-90209666D01*
X77509714Y-90209666D01*
X77604952Y-90257285D01*
X77652571Y-90304904D01*
X77700190Y-90400142D01*
X77700190Y-90781095D01*
X77509714Y-89352523D02*
X78176380Y-89352523D01*
X77128761Y-89590619D02*
X77843047Y-89828714D01*
X77843047Y-89209666D01*
X66264333Y-99151380D02*
X65931000Y-98675190D01*
X65692904Y-99151380D02*
X65692904Y-98151380D01*
X66073857Y-98151380D01*
X66169095Y-98199000D01*
X66216714Y-98246619D01*
X66264333Y-98341857D01*
X66264333Y-98484714D01*
X66216714Y-98579952D01*
X66169095Y-98627571D01*
X66073857Y-98675190D01*
X65692904Y-98675190D01*
X66597666Y-98151380D02*
X67216714Y-98151380D01*
X66883380Y-98532333D01*
X67026238Y-98532333D01*
X67121476Y-98579952D01*
X67169095Y-98627571D01*
X67216714Y-98722809D01*
X67216714Y-98960904D01*
X67169095Y-99056142D01*
X67121476Y-99103761D01*
X67026238Y-99151380D01*
X66740523Y-99151380D01*
X66645285Y-99103761D01*
X66597666Y-99056142D01*
X71588380Y-118636333D02*
X72302666Y-118636333D01*
X72445523Y-118683952D01*
X72540761Y-118779190D01*
X72588380Y-118922047D01*
X72588380Y-119017285D01*
X71683619Y-118207761D02*
X71636000Y-118160142D01*
X71588380Y-118064904D01*
X71588380Y-117826809D01*
X71636000Y-117731571D01*
X71683619Y-117683952D01*
X71778857Y-117636333D01*
X71874095Y-117636333D01*
X72016952Y-117683952D01*
X72588380Y-118255380D01*
X72588380Y-117636333D01*
X71953380Y-110720095D02*
X70953380Y-110720095D01*
X70953380Y-110482000D01*
X71001000Y-110339142D01*
X71096238Y-110243904D01*
X71191476Y-110196285D01*
X71381952Y-110148666D01*
X71524809Y-110148666D01*
X71715285Y-110196285D01*
X71810523Y-110243904D01*
X71905761Y-110339142D01*
X71953380Y-110482000D01*
X71953380Y-110720095D01*
X71953380Y-109196285D02*
X71953380Y-109767714D01*
X71953380Y-109482000D02*
X70953380Y-109482000D01*
X71096238Y-109577238D01*
X71191476Y-109672476D01*
X71239095Y-109767714D01*
X81367333Y-99036142D02*
X81319714Y-99083761D01*
X81176857Y-99131380D01*
X81081619Y-99131380D01*
X80938761Y-99083761D01*
X80843523Y-98988523D01*
X80795904Y-98893285D01*
X80748285Y-98702809D01*
X80748285Y-98559952D01*
X80795904Y-98369476D01*
X80843523Y-98274238D01*
X80938761Y-98179000D01*
X81081619Y-98131380D01*
X81176857Y-98131380D01*
X81319714Y-98179000D01*
X81367333Y-98226619D01*
X82319714Y-99131380D02*
X81748285Y-99131380D01*
X82034000Y-99131380D02*
X82034000Y-98131380D01*
X81938761Y-98274238D01*
X81843523Y-98369476D01*
X81748285Y-98417095D01*
D11*
X76200000Y-116205000D02*
X76200000Y-124333000D01*
X78232000Y-116205000D02*
X76200000Y-116205000D01*
X91440000Y-124333000D02*
X91440000Y-116205000D01*
X76200000Y-134493000D02*
X91440000Y-134493000D01*
X91440000Y-134493000D02*
X91440000Y-131445000D01*
X76200000Y-134493000D02*
X76200000Y-131445000D01*
X91440000Y-116205000D02*
X89408000Y-116205000D01*
X77074500Y-103008742D02*
X77074500Y-103483258D01*
X78119500Y-103008742D02*
X78119500Y-103483258D01*
X75198500Y-92340742D02*
X75198500Y-92815258D01*
X74153500Y-92340742D02*
X74153500Y-92815258D01*
X69198258Y-96754500D02*
X68723742Y-96754500D01*
X69198258Y-97799500D02*
X68723742Y-97799500D01*
X72023500Y-103013742D02*
X72023500Y-103488258D01*
X70978500Y-103013742D02*
X70978500Y-103488258D01*
X76722500Y-92345742D02*
X76722500Y-92820258D01*
X75677500Y-92345742D02*
X75677500Y-92820258D01*
X73010500Y-103013742D02*
X73010500Y-103488258D01*
X74055500Y-103013742D02*
X74055500Y-103488258D01*
X75088500Y-103008742D02*
X75088500Y-103483258D01*
X76133500Y-103008742D02*
X76133500Y-103483258D01*
X78756742Y-96632500D02*
X79231258Y-96632500D01*
X78756742Y-97677500D02*
X79231258Y-97677500D01*
X69198258Y-95230500D02*
X68723742Y-95230500D01*
X69198258Y-96275500D02*
X68723742Y-96275500D01*
X76727500Y-66135000D02*
X76727500Y-69755000D01*
X74617500Y-66135000D02*
X74617500Y-67341667D01*
X79472500Y-64535000D02*
X78162500Y-64535000D01*
X69107500Y-69755000D02*
X70377500Y-69755000D01*
X77517500Y-66135000D02*
X77517500Y-67341667D01*
X69777500Y-66135000D02*
X69777500Y-67341667D01*
X77277500Y-66135000D02*
X77277500Y-67341667D01*
X70137500Y-66135000D02*
X70137500Y-67341667D01*
X71482500Y-71355000D02*
X70542500Y-71355000D01*
X74022500Y-71355000D02*
X73082500Y-71355000D01*
X75217500Y-66135000D02*
X75217500Y-67341667D01*
X69537500Y-66135000D02*
X69537500Y-67341667D01*
X74857500Y-66135000D02*
X74857500Y-67341667D01*
X74187500Y-69755000D02*
X75457500Y-69755000D01*
X74257500Y-66135000D02*
X74257500Y-67341667D01*
X74977500Y-66135000D02*
X74977500Y-67341667D01*
X77877500Y-66135000D02*
X77877500Y-67341667D01*
X72917500Y-67341667D02*
X71647500Y-67341667D01*
X69897500Y-66135000D02*
X69897500Y-67341667D01*
X69417500Y-66135000D02*
X69417500Y-67341667D01*
X75457500Y-69755000D02*
X75457500Y-66135000D01*
X71837500Y-66135000D02*
X71837500Y-67341667D01*
X77397500Y-66135000D02*
X77397500Y-67341667D01*
X71482500Y-64535000D02*
X70542500Y-64535000D01*
X77997500Y-66135000D02*
X76727500Y-66135000D01*
X74497500Y-66135000D02*
X74497500Y-67341667D01*
X68942500Y-71355000D02*
X67632500Y-71355000D01*
X71717500Y-66135000D02*
X71717500Y-67341667D01*
X72917500Y-69755000D02*
X72917500Y-66135000D01*
X72197500Y-66135000D02*
X72197500Y-67341667D01*
X72077500Y-66135000D02*
X72077500Y-67341667D01*
X69297500Y-66135000D02*
X69297500Y-67341667D01*
X72317500Y-66135000D02*
X72317500Y-67341667D01*
X71647500Y-66135000D02*
X71647500Y-69755000D01*
X71957500Y-66135000D02*
X71957500Y-67341667D01*
X72557500Y-66135000D02*
X72557500Y-67341667D01*
X74377500Y-66135000D02*
X74377500Y-67341667D01*
X75097500Y-66135000D02*
X75097500Y-67341667D01*
X75457500Y-67341667D02*
X74187500Y-67341667D01*
X70017500Y-66135000D02*
X70017500Y-67341667D01*
X79472500Y-64535000D02*
X79472500Y-71355000D01*
X79472500Y-71355000D02*
X78162500Y-71355000D01*
X71647500Y-69755000D02*
X72917500Y-69755000D01*
X75457500Y-66135000D02*
X74187500Y-66135000D01*
X74737500Y-66135000D02*
X74737500Y-67341667D01*
X77997500Y-69755000D02*
X77997500Y-66135000D01*
X74022500Y-64535000D02*
X73082500Y-64535000D01*
X76917500Y-66135000D02*
X76917500Y-67341667D01*
X69107500Y-66135000D02*
X69107500Y-69755000D01*
X70377500Y-69755000D02*
X70377500Y-66135000D01*
X76562500Y-64535000D02*
X75622500Y-64535000D01*
X77757500Y-66135000D02*
X77757500Y-67341667D01*
X79712500Y-64295000D02*
X79712500Y-65678000D01*
X72917500Y-66135000D02*
X71647500Y-66135000D01*
X76727500Y-69755000D02*
X77997500Y-69755000D01*
X72437500Y-66135000D02*
X72437500Y-67341667D01*
X75337500Y-66135000D02*
X75337500Y-67341667D01*
X72677500Y-66135000D02*
X72677500Y-67341667D01*
X68942500Y-64535000D02*
X67632500Y-64535000D01*
X77637500Y-66135000D02*
X77637500Y-67341667D01*
X77997500Y-67341667D02*
X76727500Y-67341667D01*
X69177500Y-66135000D02*
X69177500Y-67341667D01*
X79712500Y-64295000D02*
X78329500Y-64295000D01*
X77037500Y-66135000D02*
X77037500Y-67341667D01*
X70377500Y-66135000D02*
X69107500Y-66135000D01*
X67632500Y-64535000D02*
X67632500Y-71355000D01*
X72797500Y-66135000D02*
X72797500Y-67341667D01*
X69657500Y-66135000D02*
X69657500Y-67341667D01*
X76562500Y-71355000D02*
X75622500Y-71355000D01*
X70257500Y-66135000D02*
X70257500Y-67341667D01*
X74187500Y-66135000D02*
X74187500Y-69755000D01*
X76797500Y-66135000D02*
X76797500Y-67341667D01*
X77157500Y-66135000D02*
X77157500Y-67341667D01*
X70377500Y-67341667D02*
X69107500Y-67341667D01*
X72812000Y-99014000D02*
X73287000Y-99014000D01*
X72812000Y-98539000D02*
X72812000Y-99014000D01*
X76032000Y-98539000D02*
X76032000Y-99014000D01*
X72812000Y-96269000D02*
X72812000Y-95794000D01*
X76032000Y-96269000D02*
X76032000Y-95794000D01*
X72812000Y-95794000D02*
X73287000Y-95794000D01*
X76032000Y-99014000D02*
X75557000Y-99014000D01*
X75021000Y-106934000D02*
X75021000Y-106284000D01*
X75021000Y-106934000D02*
X75021000Y-108609000D01*
X78141000Y-106934000D02*
X78141000Y-107584000D01*
X78141000Y-106934000D02*
X78141000Y-106284000D01*
X78246500Y-92820258D02*
X78246500Y-92345742D01*
X77201500Y-92820258D02*
X77201500Y-92345742D01*
X69198258Y-98278500D02*
X68723742Y-98278500D01*
X69198258Y-99323500D02*
X68723742Y-99323500D01*
X55880000Y-134559000D02*
X71120000Y-134559000D01*
X71120000Y-116271000D02*
X69088000Y-116271000D01*
X55880000Y-116271000D02*
X55880000Y-124399000D01*
X57912000Y-116271000D02*
X55880000Y-116271000D01*
X55880000Y-134559000D02*
X55880000Y-131511000D01*
X71120000Y-124399000D02*
X71120000Y-116271000D01*
X71120000Y-134559000D02*
X71120000Y-131511000D01*
X74077000Y-106934000D02*
X74077000Y-107584000D01*
X74077000Y-106934000D02*
X74077000Y-106284000D01*
X70957000Y-106934000D02*
X70957000Y-108609000D01*
X70957000Y-106934000D02*
X70957000Y-106284000D01*
X78756742Y-99201500D02*
X79231258Y-99201500D01*
X78756742Y-98156500D02*
X79231258Y-98156500D01*
%LPC*%
D12*
X89535000Y-126365000D03*
X78105000Y-126365000D03*
D13*
X79375000Y-116140000D03*
X80645000Y-116140000D03*
X81915000Y-116140000D03*
X83185000Y-116140000D03*
X84455000Y-116140000D03*
X85725000Y-116140000D03*
X86995000Y-116140000D03*
X88265000Y-116140000D03*
D14*
X92285000Y-129415000D03*
X75355000Y-129415000D03*
D15*
X77597000Y-102421000D03*
X77597000Y-104071000D03*
D16*
X82550000Y-57150000D03*
X82550000Y-102870000D03*
D15*
X74676000Y-91753000D03*
X74676000Y-93403000D03*
D16*
X53340000Y-109220000D03*
D17*
X69786000Y-97277000D03*
X68136000Y-97277000D03*
D16*
X64770000Y-57150000D03*
X53340000Y-123190000D03*
D15*
X71501000Y-102426000D03*
X71501000Y-104076000D03*
X76200000Y-91758000D03*
X76200000Y-93408000D03*
X73533000Y-102426000D03*
X73533000Y-104076000D03*
X75611000Y-102421000D03*
X75611000Y-104071000D03*
D18*
X78169000Y-97155000D03*
X79819000Y-97155000D03*
D17*
X69786000Y-95753000D03*
X68136000Y-95753000D03*
D19*
X77362500Y-64580000D03*
X74822500Y-64580000D03*
X72282500Y-64580000D03*
X69742500Y-64580000D03*
X69742500Y-71310000D03*
X72282500Y-71310000D03*
X74822500Y-71310000D03*
X77362500Y-71310000D03*
D20*
X75172000Y-95916500D03*
X74672000Y-95916500D03*
X74172000Y-95916500D03*
X73672000Y-95916500D03*
D21*
X72934500Y-96654000D03*
X72934500Y-97154000D03*
X72934500Y-97654000D03*
X72934500Y-98154000D03*
D20*
X73672000Y-98891500D03*
X74172000Y-98891500D03*
X74672000Y-98891500D03*
X75172000Y-98891500D03*
D21*
X75909500Y-98154000D03*
X75909500Y-97654000D03*
X75909500Y-97154000D03*
X75909500Y-96654000D03*
D22*
X74422000Y-97404000D03*
D23*
X75631000Y-107871500D03*
X77531000Y-107871500D03*
X76581000Y-105996500D03*
D24*
X77724000Y-93408000D03*
X77724000Y-91758000D03*
D16*
X93980000Y-109220000D03*
X64770000Y-102870000D03*
X93980000Y-123190000D03*
D25*
X63500000Y-60960000D03*
D26*
X63500000Y-63500000D03*
X63500000Y-66040000D03*
X63500000Y-68580000D03*
X63500000Y-71120000D03*
X63500000Y-73660000D03*
X63500000Y-76200000D03*
X63500000Y-78740000D03*
X63500000Y-81280000D03*
X63500000Y-83820000D03*
X63500000Y-86360000D03*
X63500000Y-88900000D03*
X63500000Y-91440000D03*
X63500000Y-93980000D03*
X63500000Y-96520000D03*
X63500000Y-99060000D03*
X83820000Y-99060000D03*
X83820000Y-96520000D03*
X83820000Y-93980000D03*
X83820000Y-91440000D03*
X83820000Y-88900000D03*
X83820000Y-86360000D03*
X83820000Y-83820000D03*
X83820000Y-81280000D03*
X83820000Y-78740000D03*
X83820000Y-76200000D03*
X83820000Y-73660000D03*
X83820000Y-71120000D03*
D17*
X69786000Y-98801000D03*
X68136000Y-98801000D03*
D12*
X69215000Y-126431000D03*
X57785000Y-126431000D03*
D13*
X59055000Y-116206000D03*
X60325000Y-116206000D03*
X61595000Y-116206000D03*
X62865000Y-116206000D03*
X64135000Y-116206000D03*
X65405000Y-116206000D03*
X66675000Y-116206000D03*
X67945000Y-116206000D03*
D14*
X55035000Y-129481000D03*
X71965000Y-129481000D03*
D23*
X71567000Y-107871500D03*
X73467000Y-107871500D03*
X72517000Y-105996500D03*
D18*
X78169000Y-98679000D03*
X79819000Y-98679000D03*
M02*
