G04 #@! TF.GenerationSoftware,KiCad,Pcbnew,(6.0.8-1)-1*
G04 #@! TF.CreationDate,2023-04-13T00:42:49-04:00*
G04 #@! TF.ProjectId,featherwing_rs485,66656174-6865-4727-9769-6e675f727334,1*
G04 #@! TF.SameCoordinates,Original*
G04 #@! TF.FileFunction,Copper,L1,Top*
G04 #@! TF.FilePolarity,Positive*
%FSLAX46Y46*%
G04 Gerber Fmt 4.6, Leading zero omitted, Abs format (unit mm)*
G04 Created by KiCad (PCBNEW (6.0.8-1)-1) date 2023-04-13 00:42:49*
%MOMM*%
%LPD*%
G01*
G04 APERTURE LIST*
G04 Aperture macros list*
%AMRoundRect*
0 Rectangle with rounded corners*
0 $1 Rounding radius*
0 $2 $3 $4 $5 $6 $7 $8 $9 X,Y pos of 4 corners*
0 Add a 4 corners polygon primitive as box body*
4,1,4,$2,$3,$4,$5,$6,$7,$8,$9,$2,$3,0*
0 Add four circle primitives for the rounded corners*
1,1,$1+$1,$2,$3*
1,1,$1+$1,$4,$5*
1,1,$1+$1,$6,$7*
1,1,$1+$1,$8,$9*
0 Add four rect primitives between the rounded corners*
20,1,$1+$1,$2,$3,$4,$5,0*
20,1,$1+$1,$4,$5,$6,$7,0*
20,1,$1+$1,$6,$7,$8,$9,0*
20,1,$1+$1,$8,$9,$2,$3,0*%
G04 Aperture macros list end*
G04 #@! TA.AperFunction,SMDPad,CuDef*
%ADD10R,0.760000X6.350000*%
G04 #@! TD*
G04 #@! TA.AperFunction,SMDPad,CuDef*
%ADD11R,2.540000X2.940000*%
G04 #@! TD*
G04 #@! TA.AperFunction,SMDPad,CuDef*
%ADD12RoundRect,0.200000X-0.275000X0.200000X-0.275000X-0.200000X0.275000X-0.200000X0.275000X0.200000X0*%
G04 #@! TD*
G04 #@! TA.AperFunction,ComponentPad*
%ADD13C,3.302000*%
G04 #@! TD*
G04 #@! TA.AperFunction,SMDPad,CuDef*
%ADD14RoundRect,0.200000X0.200000X0.275000X-0.200000X0.275000X-0.200000X-0.275000X0.200000X-0.275000X0*%
G04 #@! TD*
G04 #@! TA.AperFunction,SMDPad,CuDef*
%ADD15RoundRect,0.200000X-0.200000X-0.275000X0.200000X-0.275000X0.200000X0.275000X-0.200000X0.275000X0*%
G04 #@! TD*
G04 #@! TA.AperFunction,SMDPad,CuDef*
%ADD16R,1.120000X2.160000*%
G04 #@! TD*
G04 #@! TA.AperFunction,SMDPad,CuDef*
%ADD17RoundRect,0.062500X-0.062500X0.325000X-0.062500X-0.325000X0.062500X-0.325000X0.062500X0.325000X0*%
G04 #@! TD*
G04 #@! TA.AperFunction,SMDPad,CuDef*
%ADD18RoundRect,0.062500X-0.325000X0.062500X-0.325000X-0.062500X0.325000X-0.062500X0.325000X0.062500X0*%
G04 #@! TD*
G04 #@! TA.AperFunction,ComponentPad*
%ADD19C,0.500000*%
G04 #@! TD*
G04 #@! TA.AperFunction,SMDPad,CuDef*
%ADD20R,1.800000X1.800000*%
G04 #@! TD*
G04 #@! TA.AperFunction,SMDPad,CuDef*
%ADD21RoundRect,0.150000X0.150000X-0.587500X0.150000X0.587500X-0.150000X0.587500X-0.150000X-0.587500X0*%
G04 #@! TD*
G04 #@! TA.AperFunction,SMDPad,CuDef*
%ADD22RoundRect,0.200000X0.275000X-0.200000X0.275000X0.200000X-0.275000X0.200000X-0.275000X-0.200000X0*%
G04 #@! TD*
G04 #@! TA.AperFunction,ComponentPad*
%ADD23R,1.600000X1.600000*%
G04 #@! TD*
G04 #@! TA.AperFunction,ComponentPad*
%ADD24C,1.600000*%
G04 #@! TD*
G04 #@! TA.AperFunction,ViaPad*
%ADD25C,0.800000*%
G04 #@! TD*
G04 #@! TA.AperFunction,Conductor*
%ADD26C,0.250000*%
G04 #@! TD*
G04 #@! TA.AperFunction,Conductor*
%ADD27C,0.381000*%
G04 #@! TD*
G04 APERTURE END LIST*
D10*
X79375000Y-116140000D03*
X80645000Y-116140000D03*
X81915000Y-116140000D03*
X83185000Y-116140000D03*
X84455000Y-116140000D03*
X85725000Y-116140000D03*
X86995000Y-116140000D03*
X88265000Y-116140000D03*
D11*
X92285000Y-129415000D03*
X75355000Y-129415000D03*
D12*
X77597000Y-102421000D03*
X77597000Y-104071000D03*
D13*
X82550000Y-57150000D03*
X82550000Y-102870000D03*
D12*
X74676000Y-91753000D03*
X74676000Y-93403000D03*
D13*
X53340000Y-109220000D03*
D14*
X69786000Y-97277000D03*
X68136000Y-97277000D03*
D13*
X64770000Y-57150000D03*
X53340000Y-123190000D03*
D12*
X71501000Y-102426000D03*
X71501000Y-104076000D03*
X76200000Y-91758000D03*
X76200000Y-93408000D03*
X73533000Y-102426000D03*
X73533000Y-104076000D03*
X75611000Y-102421000D03*
X75611000Y-104071000D03*
D15*
X78169000Y-97155000D03*
X79819000Y-97155000D03*
D14*
X69786000Y-95753000D03*
X68136000Y-95753000D03*
D16*
X77362500Y-64580000D03*
X74822500Y-64580000D03*
X72282500Y-64580000D03*
X69742500Y-64580000D03*
X69742500Y-71310000D03*
X72282500Y-71310000D03*
X74822500Y-71310000D03*
X77362500Y-71310000D03*
D17*
X75172000Y-95916500D03*
X74672000Y-95916500D03*
X74172000Y-95916500D03*
X73672000Y-95916500D03*
D18*
X72934500Y-96654000D03*
X72934500Y-97154000D03*
X72934500Y-97654000D03*
X72934500Y-98154000D03*
D17*
X73672000Y-98891500D03*
X74172000Y-98891500D03*
X74672000Y-98891500D03*
X75172000Y-98891500D03*
D18*
X75909500Y-98154000D03*
X75909500Y-97654000D03*
X75909500Y-97154000D03*
X75909500Y-96654000D03*
D19*
X75072000Y-98054000D03*
X75072000Y-96754000D03*
X73772000Y-98054000D03*
X73772000Y-96754000D03*
D20*
X74422000Y-97404000D03*
D21*
X75631000Y-107871500D03*
X77531000Y-107871500D03*
X76581000Y-105996500D03*
D22*
X77724000Y-93408000D03*
X77724000Y-91758000D03*
D13*
X93980000Y-109220000D03*
X64770000Y-102870000D03*
X93980000Y-123190000D03*
D23*
X63500000Y-60960000D03*
D24*
X63500000Y-63500000D03*
X63500000Y-66040000D03*
X63500000Y-68580000D03*
X63500000Y-71120000D03*
X63500000Y-73660000D03*
X63500000Y-76200000D03*
X63500000Y-78740000D03*
X63500000Y-81280000D03*
X63500000Y-83820000D03*
X63500000Y-86360000D03*
X63500000Y-88900000D03*
X63500000Y-91440000D03*
X63500000Y-93980000D03*
X63500000Y-96520000D03*
X63500000Y-99060000D03*
X83820000Y-99060000D03*
X83820000Y-96520000D03*
X83820000Y-93980000D03*
X83820000Y-91440000D03*
X83820000Y-88900000D03*
X83820000Y-86360000D03*
X83820000Y-83820000D03*
X83820000Y-81280000D03*
X83820000Y-78740000D03*
X83820000Y-76200000D03*
X83820000Y-73660000D03*
X83820000Y-71120000D03*
D14*
X69786000Y-98801000D03*
X68136000Y-98801000D03*
D10*
X59055000Y-116206000D03*
X60325000Y-116206000D03*
X61595000Y-116206000D03*
X62865000Y-116206000D03*
X64135000Y-116206000D03*
X65405000Y-116206000D03*
X66675000Y-116206000D03*
X67945000Y-116206000D03*
D11*
X55035000Y-129481000D03*
X71965000Y-129481000D03*
D21*
X71567000Y-107871500D03*
X73467000Y-107871500D03*
X72517000Y-105996500D03*
D15*
X78169000Y-98679000D03*
X79819000Y-98679000D03*
D25*
X67818000Y-90728800D03*
X69748400Y-129438400D03*
X72517000Y-104902000D03*
X68122800Y-93472000D03*
X68122800Y-99974400D03*
X77470000Y-129438400D03*
X79857600Y-99872800D03*
X89916000Y-129387600D03*
X81584800Y-94691200D03*
X57150000Y-129489200D03*
X77724000Y-90474800D03*
X76581000Y-104902000D03*
X76098400Y-83312000D03*
X78587600Y-83312000D03*
X70673500Y-109253500D03*
X80019768Y-110607232D03*
X80762232Y-109864768D03*
X72390000Y-108999500D03*
X75692000Y-94792800D03*
X66802000Y-94538800D03*
X74172000Y-94644400D03*
X84083768Y-111877232D03*
X64411769Y-111722937D03*
X65913000Y-111633000D03*
X84826232Y-111134768D03*
X69748400Y-93268800D03*
X70815200Y-95758000D03*
X71729600Y-93421200D03*
X71085600Y-97654000D03*
X71429800Y-98801000D03*
X72948800Y-93522800D03*
D26*
X57141800Y-129481000D02*
X57150000Y-129489200D01*
X68122800Y-93472000D02*
X68122800Y-91033600D01*
X69791000Y-129481000D02*
X69748400Y-129438400D01*
X68136000Y-95753000D02*
X68136000Y-98843600D01*
X75355000Y-129415000D02*
X77446600Y-129415000D01*
X89943400Y-129415000D02*
X89916000Y-129387600D01*
X55035000Y-129481000D02*
X57141800Y-129481000D01*
X72934500Y-97154000D02*
X74141600Y-97154000D01*
X79857600Y-99872800D02*
X79857600Y-97180400D01*
X76581000Y-105996500D02*
X76581000Y-104902000D01*
X79819000Y-97155000D02*
X79819000Y-96457000D01*
X79819000Y-96457000D02*
X81584800Y-94691200D01*
X72517000Y-105996500D02*
X72517000Y-104902000D01*
X79819000Y-98692200D02*
X79806800Y-98704400D01*
X77724000Y-91758000D02*
X77724000Y-90474800D01*
X71965000Y-129481000D02*
X69791000Y-129481000D01*
X68122800Y-91033600D02*
X67818000Y-90728800D01*
X74141600Y-97154000D02*
X74168000Y-97180400D01*
X77446600Y-129415000D02*
X77470000Y-129438400D01*
X68136000Y-99961200D02*
X68122800Y-99974400D01*
X68136000Y-98801000D02*
X68136000Y-99961200D01*
X92285000Y-129415000D02*
X89943400Y-129415000D01*
X80568800Y-76911200D02*
X81280000Y-76200000D01*
X81280000Y-76200000D02*
X83718400Y-76200000D01*
X78169000Y-97155000D02*
X80568800Y-94755200D01*
X80568800Y-94755200D02*
X80568800Y-76911200D01*
X78169000Y-97155000D02*
X77635600Y-97688400D01*
X77635600Y-97688400D02*
X75647000Y-97688400D01*
D27*
X77362500Y-64580000D02*
X69761600Y-64580000D01*
D26*
X77630800Y-98154000D02*
X78181200Y-98704400D01*
X75909500Y-98154000D02*
X77630800Y-98154000D01*
D27*
X74676000Y-91753000D02*
X76157400Y-91753000D01*
X62035806Y-112462194D02*
X61595000Y-112903000D01*
X81915000Y-116140000D02*
X81915000Y-113345000D01*
X71567000Y-107871500D02*
X71567000Y-108879131D01*
X62861314Y-109412500D02*
X62041500Y-110232314D01*
X80316047Y-110607232D02*
X80019768Y-110607232D01*
X81915000Y-113345000D02*
X82234500Y-113025500D01*
X62041500Y-110232314D02*
X62041500Y-112462194D01*
X61595000Y-112903000D02*
X61595000Y-114046000D01*
X71567000Y-108879131D02*
X71033631Y-109412500D01*
X82234500Y-113025500D02*
X82234500Y-112525685D01*
X71501000Y-104076000D02*
X71501000Y-107950000D01*
X71033631Y-109412500D02*
X62861314Y-109412500D01*
X62041500Y-112462194D02*
X62035806Y-112462194D01*
X82234500Y-112525685D02*
X80316047Y-110607232D01*
X82865500Y-112264315D02*
X80762232Y-110161047D01*
X82865500Y-113025500D02*
X82865500Y-112264315D01*
X83185000Y-113345000D02*
X82865500Y-113025500D01*
X73467000Y-107871500D02*
X71295000Y-110043500D01*
X80762232Y-110161047D02*
X80762232Y-109864768D01*
X71295000Y-110043500D02*
X63122686Y-110043500D01*
X62672500Y-110493686D02*
X62672500Y-113980500D01*
X62672500Y-113980500D02*
X62865000Y-114173000D01*
X83185000Y-116140000D02*
X83185000Y-113345000D01*
X73533000Y-104076000D02*
X73533000Y-107950000D01*
X63122686Y-110043500D02*
X62672500Y-110493686D01*
D26*
X75172000Y-95916500D02*
X75172000Y-95312800D01*
X76200000Y-94284800D02*
X76200000Y-93421200D01*
X75172000Y-95312800D02*
X76200000Y-94284800D01*
X72593200Y-94335600D02*
X73672000Y-95414400D01*
X67005200Y-94335600D02*
X66802000Y-94538800D01*
X73672000Y-95916500D02*
X73672000Y-95414400D01*
X67056000Y-94335600D02*
X67005200Y-94335600D01*
X72593200Y-94335600D02*
X67056000Y-94335600D01*
X74172000Y-93874400D02*
X74676000Y-93370400D01*
X74672000Y-95916500D02*
X74174100Y-95916500D01*
X74172000Y-94644400D02*
X74172000Y-93874400D01*
X74172000Y-95916500D02*
X74172000Y-94644400D01*
D27*
X75611000Y-107777000D02*
X75565000Y-107823000D01*
X75611000Y-104071000D02*
X75611000Y-107777000D01*
X84774500Y-112271685D02*
X84380047Y-111877232D01*
X84380047Y-111877232D02*
X84083768Y-111877232D01*
X84455000Y-116140000D02*
X84455000Y-113345000D01*
X65147314Y-110682500D02*
X64570769Y-111259045D01*
X64570769Y-112848231D02*
X64008000Y-113411000D01*
X75631000Y-108879131D02*
X73827631Y-110682500D01*
X84774500Y-113025500D02*
X84774500Y-112271685D01*
X75631000Y-107871500D02*
X75631000Y-108879131D01*
X73827631Y-110682500D02*
X65147314Y-110682500D01*
X84455000Y-113345000D02*
X84774500Y-113025500D01*
X64570769Y-111259045D02*
X64570769Y-112848231D01*
X85725000Y-116140000D02*
X85725000Y-113345000D01*
X74089000Y-111313500D02*
X65408686Y-111313500D01*
X77597000Y-104071000D02*
X77597000Y-108077000D01*
X85725000Y-113345000D02*
X85405500Y-113025500D01*
X65408686Y-111313500D02*
X65201769Y-111520417D01*
X77531000Y-107871500D02*
X77597000Y-107937500D01*
X85405500Y-112010315D02*
X84826232Y-111431047D01*
X77531000Y-107871500D02*
X74089000Y-111313500D01*
X84826232Y-111431047D02*
X84826232Y-111134768D01*
X65201769Y-113207769D02*
X65405000Y-113411000D01*
X65201769Y-111520417D02*
X65201769Y-113207769D01*
X85405500Y-113025500D02*
X85405500Y-112010315D01*
D26*
X72524000Y-96654000D02*
X71628000Y-95758000D01*
X69742500Y-71310000D02*
X69742500Y-93262900D01*
X69742500Y-93262900D02*
X69748400Y-93268800D01*
X70815200Y-95758000D02*
X69799200Y-95758000D01*
X71628000Y-95758000D02*
X70815200Y-95758000D01*
X72934500Y-96654000D02*
X72524000Y-96654000D01*
X72282500Y-71310000D02*
X72282500Y-92868300D01*
X72282500Y-92868300D02*
X71729600Y-93421200D01*
X70713600Y-97282000D02*
X69748400Y-97282000D01*
X72934500Y-97654000D02*
X71085600Y-97654000D01*
X71085600Y-97654000D02*
X70713600Y-97282000D01*
X69786000Y-98801000D02*
X71429800Y-98801000D01*
X71429800Y-98801000D02*
X72085200Y-98145600D01*
X72085200Y-98145600D02*
X73050400Y-98145600D01*
X72948800Y-89306400D02*
X72948800Y-93522800D01*
X74822500Y-87432700D02*
X72948800Y-89306400D01*
X74822500Y-71310000D02*
X74822500Y-87432700D01*
X77362500Y-88386100D02*
X78841600Y-89865200D01*
X76378800Y-97154000D02*
X77724000Y-95808800D01*
X78841600Y-92405200D02*
X77774800Y-93472000D01*
X77724000Y-95808800D02*
X77724000Y-93370400D01*
X77362500Y-71310000D02*
X77362500Y-88386100D01*
X75909500Y-97154000D02*
X76378800Y-97154000D01*
X78841600Y-89865200D02*
X78841600Y-92405200D01*
X71501000Y-101346000D02*
X73660000Y-99187000D01*
X71501000Y-102426000D02*
X71501000Y-101346000D01*
X73739810Y-99759198D02*
X73732004Y-99751392D01*
X73202800Y-100280596D02*
X73202800Y-102514400D01*
X74172000Y-99327008D02*
X73739810Y-99759198D01*
X73732004Y-99751392D02*
X73202800Y-100280596D01*
X74172000Y-98891500D02*
X74172000Y-99327008D01*
X77597000Y-101600000D02*
X75184000Y-99187000D01*
X77597000Y-102421000D02*
X77597000Y-101600000D01*
X75946000Y-100601008D02*
X75946000Y-102362000D01*
X74672000Y-98891500D02*
X74672000Y-99327008D01*
X74672000Y-99327008D02*
X75946000Y-100601008D01*
G04 #@! TA.AperFunction,Conductor*
G36*
X81351445Y-55138502D02*
G01*
X81397938Y-55192158D01*
X81408042Y-55262432D01*
X81378548Y-55327012D01*
X81348030Y-55352616D01*
X81318346Y-55370381D01*
X81318342Y-55370384D01*
X81314664Y-55372585D01*
X81084871Y-55556684D01*
X81081927Y-55559786D01*
X81081923Y-55559790D01*
X81021315Y-55623658D01*
X80882189Y-55770266D01*
X80710368Y-56009380D01*
X80572589Y-56269600D01*
X80571117Y-56273623D01*
X80571115Y-56273627D01*
X80563515Y-56294396D01*
X80471400Y-56546111D01*
X80408675Y-56833797D01*
X80385573Y-57127333D01*
X80402522Y-57421290D01*
X80403347Y-57425495D01*
X80403348Y-57425503D01*
X80436060Y-57592233D01*
X80459209Y-57710226D01*
X80460596Y-57714276D01*
X80460597Y-57714281D01*
X80482973Y-57779635D01*
X80554585Y-57988795D01*
X80686884Y-58251844D01*
X80689310Y-58255373D01*
X80689313Y-58255379D01*
X80748340Y-58341263D01*
X80853659Y-58494503D01*
X81051824Y-58712283D01*
X81277712Y-58901154D01*
X81281353Y-58903438D01*
X81523502Y-59055339D01*
X81523506Y-59055341D01*
X81527142Y-59057622D01*
X81795500Y-59178790D01*
X81799619Y-59180010D01*
X82073706Y-59261199D01*
X82073711Y-59261200D01*
X82077819Y-59262417D01*
X82082053Y-59263065D01*
X82082058Y-59263066D01*
X82339396Y-59302444D01*
X82368875Y-59306955D01*
X82518772Y-59309310D01*
X82658993Y-59311513D01*
X82658999Y-59311513D01*
X82663284Y-59311580D01*
X82955595Y-59276206D01*
X83240402Y-59201488D01*
X83512433Y-59088809D01*
X83562782Y-59059388D01*
X83762957Y-58942415D01*
X83762958Y-58942415D01*
X83766655Y-58940254D01*
X83770015Y-58937620D01*
X83770023Y-58937614D01*
X83994992Y-58761215D01*
X83998364Y-58758571D01*
X84203272Y-58547123D01*
X84205805Y-58543675D01*
X84205809Y-58543670D01*
X84353953Y-58341996D01*
X84410402Y-58298937D01*
X84481169Y-58293232D01*
X84543786Y-58326692D01*
X84578373Y-58388694D01*
X84581500Y-58416590D01*
X84581500Y-69833543D01*
X84561498Y-69901664D01*
X84507842Y-69948157D01*
X84437568Y-69958261D01*
X84402250Y-69947738D01*
X84274225Y-69888039D01*
X84274224Y-69888039D01*
X84269243Y-69885716D01*
X84263935Y-69884294D01*
X84263933Y-69884293D01*
X84053402Y-69827881D01*
X84053400Y-69827881D01*
X84048087Y-69826457D01*
X83820000Y-69806502D01*
X83591913Y-69826457D01*
X83586600Y-69827881D01*
X83586598Y-69827881D01*
X83376067Y-69884293D01*
X83376065Y-69884294D01*
X83370757Y-69885716D01*
X83365776Y-69888039D01*
X83365775Y-69888039D01*
X83168238Y-69980151D01*
X83168233Y-69980154D01*
X83163251Y-69982477D01*
X83058389Y-70055902D01*
X82980211Y-70110643D01*
X82980208Y-70110645D01*
X82975700Y-70113802D01*
X82813802Y-70275700D01*
X82682477Y-70463251D01*
X82680154Y-70468233D01*
X82680151Y-70468238D01*
X82588039Y-70665775D01*
X82585716Y-70670757D01*
X82526457Y-70891913D01*
X82506502Y-71120000D01*
X82526457Y-71348087D01*
X82585716Y-71569243D01*
X82588039Y-71574224D01*
X82588039Y-71574225D01*
X82680151Y-71771762D01*
X82680154Y-71771767D01*
X82682477Y-71776749D01*
X82813802Y-71964300D01*
X82975700Y-72126198D01*
X82980208Y-72129355D01*
X82980211Y-72129357D01*
X83058389Y-72184098D01*
X83163251Y-72257523D01*
X83168233Y-72259846D01*
X83168238Y-72259849D01*
X83202457Y-72275805D01*
X83255742Y-72322722D01*
X83275203Y-72390999D01*
X83254661Y-72458959D01*
X83202457Y-72504195D01*
X83168238Y-72520151D01*
X83168233Y-72520154D01*
X83163251Y-72522477D01*
X83058389Y-72595902D01*
X82980211Y-72650643D01*
X82980208Y-72650645D01*
X82975700Y-72653802D01*
X82813802Y-72815700D01*
X82810645Y-72820208D01*
X82810643Y-72820211D01*
X82772355Y-72874892D01*
X82682477Y-73003251D01*
X82680154Y-73008233D01*
X82680151Y-73008238D01*
X82588039Y-73205775D01*
X82585716Y-73210757D01*
X82526457Y-73431913D01*
X82506502Y-73660000D01*
X82526457Y-73888087D01*
X82585716Y-74109243D01*
X82588039Y-74114224D01*
X82588039Y-74114225D01*
X82680151Y-74311762D01*
X82680154Y-74311767D01*
X82682477Y-74316749D01*
X82813802Y-74504300D01*
X82975700Y-74666198D01*
X82980208Y-74669355D01*
X82980211Y-74669357D01*
X83058389Y-74724098D01*
X83163251Y-74797523D01*
X83168233Y-74799846D01*
X83168238Y-74799849D01*
X83202457Y-74815805D01*
X83255742Y-74862722D01*
X83275203Y-74930999D01*
X83254661Y-74998959D01*
X83202457Y-75044195D01*
X83168238Y-75060151D01*
X83168233Y-75060154D01*
X83163251Y-75062477D01*
X83058389Y-75135902D01*
X82980211Y-75190643D01*
X82980208Y-75190645D01*
X82975700Y-75193802D01*
X82813802Y-75355700D01*
X82810645Y-75360208D01*
X82810643Y-75360211D01*
X82703819Y-75512771D01*
X82648362Y-75557099D01*
X82600606Y-75566500D01*
X81358768Y-75566500D01*
X81347585Y-75565973D01*
X81340092Y-75564298D01*
X81332166Y-75564547D01*
X81332165Y-75564547D01*
X81272002Y-75566438D01*
X81268044Y-75566500D01*
X81240144Y-75566500D01*
X81236154Y-75567004D01*
X81224320Y-75567936D01*
X81180111Y-75569326D01*
X81172495Y-75571539D01*
X81172493Y-75571539D01*
X81160652Y-75574979D01*
X81141293Y-75578988D01*
X81139983Y-75579154D01*
X81121203Y-75581526D01*
X81113837Y-75584442D01*
X81113831Y-75584444D01*
X81080098Y-75597800D01*
X81068868Y-75601645D01*
X81034017Y-75611770D01*
X81026407Y-75613981D01*
X81019584Y-75618016D01*
X81008966Y-75624295D01*
X80991213Y-75632992D01*
X80983568Y-75636019D01*
X80972383Y-75640448D01*
X80965968Y-75645109D01*
X80936612Y-75666437D01*
X80926695Y-75672951D01*
X80888638Y-75695458D01*
X80874317Y-75709779D01*
X80859284Y-75722619D01*
X80842893Y-75734528D01*
X80816516Y-75766413D01*
X80814712Y-75768593D01*
X80806722Y-75777374D01*
X80176542Y-76407553D01*
X80168263Y-76415087D01*
X80161782Y-76419200D01*
X80153437Y-76428087D01*
X80115157Y-76468851D01*
X80112402Y-76471693D01*
X80092665Y-76491430D01*
X80090185Y-76494627D01*
X80082482Y-76503647D01*
X80052214Y-76535879D01*
X80048395Y-76542825D01*
X80048393Y-76542828D01*
X80042452Y-76553634D01*
X80031601Y-76570153D01*
X80019186Y-76586159D01*
X80016041Y-76593428D01*
X80016038Y-76593432D01*
X80001626Y-76626737D01*
X79996409Y-76637387D01*
X79975105Y-76676140D01*
X79973134Y-76683815D01*
X79973134Y-76683816D01*
X79970067Y-76695762D01*
X79963663Y-76714466D01*
X79955619Y-76733055D01*
X79954380Y-76740878D01*
X79954377Y-76740888D01*
X79948701Y-76776724D01*
X79946295Y-76788344D01*
X79935300Y-76831170D01*
X79935300Y-76851424D01*
X79933749Y-76871134D01*
X79930580Y-76891143D01*
X79931326Y-76899035D01*
X79934741Y-76935161D01*
X79935300Y-76947019D01*
X79935300Y-94440606D01*
X79915298Y-94508727D01*
X79898395Y-94529701D01*
X78572595Y-95855500D01*
X78510283Y-95889526D01*
X78439467Y-95884461D01*
X78382632Y-95841914D01*
X78357821Y-95775394D01*
X78357500Y-95766405D01*
X78357500Y-94290225D01*
X78377502Y-94222104D01*
X78418229Y-94182449D01*
X78432880Y-94173576D01*
X78439381Y-94169639D01*
X78560639Y-94048381D01*
X78649472Y-93901699D01*
X78661022Y-93864845D01*
X78698078Y-93746598D01*
X78700753Y-93738062D01*
X78707500Y-93664635D01*
X78707500Y-93487395D01*
X78727502Y-93419274D01*
X78744405Y-93398300D01*
X79233853Y-92908852D01*
X79242139Y-92901312D01*
X79248618Y-92897200D01*
X79295244Y-92847548D01*
X79297998Y-92844707D01*
X79317735Y-92824970D01*
X79320215Y-92821773D01*
X79327920Y-92812751D01*
X79338891Y-92801068D01*
X79358186Y-92780521D01*
X79362005Y-92773575D01*
X79362007Y-92773572D01*
X79367948Y-92762766D01*
X79378799Y-92746247D01*
X79381834Y-92742334D01*
X79391214Y-92730241D01*
X79394359Y-92722972D01*
X79394362Y-92722968D01*
X79408774Y-92689663D01*
X79413991Y-92679013D01*
X79435295Y-92640260D01*
X79440333Y-92620637D01*
X79446737Y-92601934D01*
X79451633Y-92590620D01*
X79451633Y-92590619D01*
X79454781Y-92583345D01*
X79456020Y-92575522D01*
X79456023Y-92575512D01*
X79461699Y-92539676D01*
X79464105Y-92528056D01*
X79473128Y-92492911D01*
X79473128Y-92492910D01*
X79475100Y-92485230D01*
X79475100Y-92464976D01*
X79476651Y-92445265D01*
X79477121Y-92442301D01*
X79479820Y-92425257D01*
X79475659Y-92381238D01*
X79475100Y-92369381D01*
X79475100Y-89943967D01*
X79475627Y-89932784D01*
X79477302Y-89925291D01*
X79475162Y-89857214D01*
X79475100Y-89853255D01*
X79475100Y-89825344D01*
X79474595Y-89821344D01*
X79473662Y-89809501D01*
X79472522Y-89773229D01*
X79472273Y-89765310D01*
X79466622Y-89745858D01*
X79462614Y-89726506D01*
X79461067Y-89714263D01*
X79460074Y-89706403D01*
X79452615Y-89687563D01*
X79443800Y-89665297D01*
X79439955Y-89654070D01*
X79430345Y-89620994D01*
X79427618Y-89611607D01*
X79423584Y-89604785D01*
X79423581Y-89604779D01*
X79417306Y-89594168D01*
X79408610Y-89576418D01*
X79404072Y-89564956D01*
X79404069Y-89564951D01*
X79401152Y-89557583D01*
X79375173Y-89521825D01*
X79368657Y-89511907D01*
X79350175Y-89480657D01*
X79346142Y-89473837D01*
X79331818Y-89459513D01*
X79318976Y-89444478D01*
X79307072Y-89428093D01*
X79273006Y-89399911D01*
X79264227Y-89391922D01*
X78032905Y-88160600D01*
X77998879Y-88098288D01*
X77996000Y-88071505D01*
X77996000Y-72992874D01*
X78016002Y-72924753D01*
X78069658Y-72878260D01*
X78077771Y-72874892D01*
X78160795Y-72843768D01*
X78160796Y-72843767D01*
X78169205Y-72840615D01*
X78285761Y-72753261D01*
X78373115Y-72636705D01*
X78424245Y-72500316D01*
X78431000Y-72438134D01*
X78431000Y-70181866D01*
X78424245Y-70119684D01*
X78373115Y-69983295D01*
X78285761Y-69866739D01*
X78169205Y-69779385D01*
X78032816Y-69728255D01*
X77970634Y-69721500D01*
X76754366Y-69721500D01*
X76692184Y-69728255D01*
X76555795Y-69779385D01*
X76439239Y-69866739D01*
X76351885Y-69983295D01*
X76300755Y-70119684D01*
X76294000Y-70181866D01*
X76294000Y-72438134D01*
X76300755Y-72500316D01*
X76351885Y-72636705D01*
X76439239Y-72753261D01*
X76555795Y-72840615D01*
X76564204Y-72843767D01*
X76564205Y-72843768D01*
X76647229Y-72874892D01*
X76703994Y-72917533D01*
X76728694Y-72984095D01*
X76729000Y-72992874D01*
X76729000Y-88307333D01*
X76728473Y-88318516D01*
X76726798Y-88326009D01*
X76727047Y-88333935D01*
X76727047Y-88333936D01*
X76728938Y-88394086D01*
X76729000Y-88398045D01*
X76729000Y-88425956D01*
X76729497Y-88429890D01*
X76729497Y-88429891D01*
X76729505Y-88429956D01*
X76730438Y-88441793D01*
X76731827Y-88485989D01*
X76737478Y-88505439D01*
X76741487Y-88524800D01*
X76744026Y-88544897D01*
X76746945Y-88552268D01*
X76746945Y-88552270D01*
X76760304Y-88586012D01*
X76764149Y-88597242D01*
X76776482Y-88639693D01*
X76780515Y-88646512D01*
X76780517Y-88646517D01*
X76786793Y-88657128D01*
X76795488Y-88674876D01*
X76802948Y-88693717D01*
X76807610Y-88700133D01*
X76807610Y-88700134D01*
X76828936Y-88729487D01*
X76835452Y-88739407D01*
X76857958Y-88777462D01*
X76872279Y-88791783D01*
X76885119Y-88806816D01*
X76897028Y-88823207D01*
X76903134Y-88828258D01*
X76931105Y-88851398D01*
X76939884Y-88859388D01*
X77481628Y-89401132D01*
X77515654Y-89463444D01*
X77510589Y-89534259D01*
X77468042Y-89591095D01*
X77441256Y-89604981D01*
X77441712Y-89606006D01*
X77273278Y-89680997D01*
X77273276Y-89680998D01*
X77267248Y-89683682D01*
X77261907Y-89687562D01*
X77261906Y-89687563D01*
X77235975Y-89706403D01*
X77112747Y-89795934D01*
X77108326Y-89800844D01*
X77108325Y-89800845D01*
X76996274Y-89925291D01*
X76984960Y-89937856D01*
X76889473Y-90103244D01*
X76830458Y-90284872D01*
X76829768Y-90291433D01*
X76829768Y-90291435D01*
X76815137Y-90430643D01*
X76810496Y-90474800D01*
X76830458Y-90664728D01*
X76832498Y-90671006D01*
X76850046Y-90725014D01*
X76852073Y-90795982D01*
X76815411Y-90856780D01*
X76751699Y-90888105D01*
X76692534Y-90884184D01*
X76611355Y-90858744D01*
X76598306Y-90856131D01*
X76534479Y-90850266D01*
X76528691Y-90850000D01*
X76472115Y-90850000D01*
X76456876Y-90854475D01*
X76455671Y-90855865D01*
X76454000Y-90863548D01*
X76454000Y-91886000D01*
X76433998Y-91954121D01*
X76380342Y-92000614D01*
X76328000Y-92012000D01*
X75199985Y-92012000D01*
X75173202Y-92009121D01*
X75163452Y-92007000D01*
X74548000Y-92007000D01*
X74479879Y-91986998D01*
X74433386Y-91933342D01*
X74422000Y-91881000D01*
X74422000Y-91480885D01*
X74930000Y-91480885D01*
X74934475Y-91496124D01*
X74935865Y-91497329D01*
X74943548Y-91499000D01*
X75676015Y-91499000D01*
X75702798Y-91501879D01*
X75712548Y-91504000D01*
X75927885Y-91504000D01*
X75943124Y-91499525D01*
X75944329Y-91498135D01*
X75946000Y-91490452D01*
X75946000Y-90868116D01*
X75941525Y-90852877D01*
X75940135Y-90851672D01*
X75932452Y-90850001D01*
X75871295Y-90850001D01*
X75865546Y-90850264D01*
X75801685Y-90856132D01*
X75788649Y-90858743D01*
X75638757Y-90905715D01*
X75625012Y-90911921D01*
X75507400Y-90983150D01*
X75438770Y-91001329D01*
X75376856Y-90983150D01*
X75250988Y-90906921D01*
X75237243Y-90900715D01*
X75087356Y-90853744D01*
X75074306Y-90851131D01*
X75010479Y-90845266D01*
X75004691Y-90845000D01*
X74948115Y-90845000D01*
X74932876Y-90849475D01*
X74931671Y-90850865D01*
X74930000Y-90858548D01*
X74930000Y-91480885D01*
X74422000Y-91480885D01*
X74422000Y-90863116D01*
X74417525Y-90847877D01*
X74416135Y-90846672D01*
X74408452Y-90845001D01*
X74347295Y-90845001D01*
X74341546Y-90845264D01*
X74277685Y-90851132D01*
X74264649Y-90853743D01*
X74114757Y-90900715D01*
X74101012Y-90906921D01*
X73967426Y-90987824D01*
X73955557Y-90997131D01*
X73845131Y-91107557D01*
X73835822Y-91119429D01*
X73816076Y-91152033D01*
X73763679Y-91199940D01*
X73693699Y-91211913D01*
X73628355Y-91184152D01*
X73588393Y-91125470D01*
X73582300Y-91086762D01*
X73582300Y-89620994D01*
X73602302Y-89552873D01*
X73619205Y-89531899D01*
X74411698Y-88739407D01*
X75214753Y-87936352D01*
X75223039Y-87928812D01*
X75229518Y-87924700D01*
X75276144Y-87875048D01*
X75278898Y-87872207D01*
X75298635Y-87852470D01*
X75301115Y-87849273D01*
X75308820Y-87840251D01*
X75333659Y-87813800D01*
X75339086Y-87808021D01*
X75342905Y-87801075D01*
X75342907Y-87801072D01*
X75348848Y-87790266D01*
X75359699Y-87773747D01*
X75360059Y-87773283D01*
X75372114Y-87757741D01*
X75375259Y-87750472D01*
X75375262Y-87750468D01*
X75389674Y-87717163D01*
X75394891Y-87706513D01*
X75416195Y-87667760D01*
X75421233Y-87648137D01*
X75427637Y-87629434D01*
X75432533Y-87618120D01*
X75432533Y-87618119D01*
X75435681Y-87610845D01*
X75436920Y-87603022D01*
X75436923Y-87603012D01*
X75442599Y-87567176D01*
X75445005Y-87555556D01*
X75454028Y-87520411D01*
X75454028Y-87520410D01*
X75456000Y-87512730D01*
X75456000Y-87492476D01*
X75457551Y-87472765D01*
X75459480Y-87460586D01*
X75460720Y-87452757D01*
X75456559Y-87408738D01*
X75456000Y-87396881D01*
X75456000Y-72992874D01*
X75476002Y-72924753D01*
X75529658Y-72878260D01*
X75537771Y-72874892D01*
X75620795Y-72843768D01*
X75620796Y-72843767D01*
X75629205Y-72840615D01*
X75745761Y-72753261D01*
X75833115Y-72636705D01*
X75884245Y-72500316D01*
X75891000Y-72438134D01*
X75891000Y-70181866D01*
X75884245Y-70119684D01*
X75833115Y-69983295D01*
X75745761Y-69866739D01*
X75629205Y-69779385D01*
X75492816Y-69728255D01*
X75430634Y-69721500D01*
X74214366Y-69721500D01*
X74152184Y-69728255D01*
X74015795Y-69779385D01*
X73899239Y-69866739D01*
X73811885Y-69983295D01*
X73760755Y-70119684D01*
X73754000Y-70181866D01*
X73754000Y-72438134D01*
X73760755Y-72500316D01*
X73811885Y-72636705D01*
X73899239Y-72753261D01*
X74015795Y-72840615D01*
X74024204Y-72843767D01*
X74024205Y-72843768D01*
X74107229Y-72874892D01*
X74163994Y-72917533D01*
X74188694Y-72984095D01*
X74189000Y-72992874D01*
X74189000Y-87118106D01*
X74168998Y-87186227D01*
X74152095Y-87207201D01*
X73131095Y-88228200D01*
X73068783Y-88262226D01*
X72997967Y-88257161D01*
X72941132Y-88214614D01*
X72916321Y-88148094D01*
X72916000Y-88139105D01*
X72916000Y-72992874D01*
X72936002Y-72924753D01*
X72989658Y-72878260D01*
X72997771Y-72874892D01*
X73080795Y-72843768D01*
X73080796Y-72843767D01*
X73089205Y-72840615D01*
X73205761Y-72753261D01*
X73293115Y-72636705D01*
X73344245Y-72500316D01*
X73351000Y-72438134D01*
X73351000Y-70181866D01*
X73344245Y-70119684D01*
X73293115Y-69983295D01*
X73205761Y-69866739D01*
X73089205Y-69779385D01*
X72952816Y-69728255D01*
X72890634Y-69721500D01*
X71674366Y-69721500D01*
X71612184Y-69728255D01*
X71475795Y-69779385D01*
X71359239Y-69866739D01*
X71271885Y-69983295D01*
X71220755Y-70119684D01*
X71214000Y-70181866D01*
X71214000Y-72438134D01*
X71220755Y-72500316D01*
X71271885Y-72636705D01*
X71359239Y-72753261D01*
X71475795Y-72840615D01*
X71484204Y-72843767D01*
X71484205Y-72843768D01*
X71567229Y-72874892D01*
X71623994Y-72917533D01*
X71648694Y-72984095D01*
X71649000Y-72992874D01*
X71649000Y-92407503D01*
X71628998Y-92475624D01*
X71575342Y-92522117D01*
X71549198Y-92530749D01*
X71507575Y-92539597D01*
X71453770Y-92551033D01*
X71453767Y-92551034D01*
X71447312Y-92552406D01*
X71441282Y-92555091D01*
X71441281Y-92555091D01*
X71278878Y-92627397D01*
X71278876Y-92627398D01*
X71272848Y-92630082D01*
X71267507Y-92633962D01*
X71267506Y-92633963D01*
X71253646Y-92644033D01*
X71118347Y-92742334D01*
X71113926Y-92747244D01*
X71113925Y-92747245D01*
X71036544Y-92833186D01*
X70990560Y-92884256D01*
X70895073Y-93049644D01*
X70893032Y-93055927D01*
X70883177Y-93086256D01*
X70843103Y-93144862D01*
X70777706Y-93172498D01*
X70707749Y-93160391D01*
X70655443Y-93112384D01*
X70642182Y-93078794D01*
X70641942Y-93078872D01*
X70640684Y-93075001D01*
X70582927Y-92897244D01*
X70575429Y-92884256D01*
X70541425Y-92825361D01*
X70487440Y-92731856D01*
X70408364Y-92644033D01*
X70377646Y-92580026D01*
X70376000Y-92559723D01*
X70376000Y-72992874D01*
X70396002Y-72924753D01*
X70449658Y-72878260D01*
X70457771Y-72874892D01*
X70540795Y-72843768D01*
X70540796Y-72843767D01*
X70549205Y-72840615D01*
X70665761Y-72753261D01*
X70753115Y-72636705D01*
X70804245Y-72500316D01*
X70811000Y-72438134D01*
X70811000Y-70181866D01*
X70804245Y-70119684D01*
X70753115Y-69983295D01*
X70665761Y-69866739D01*
X70549205Y-69779385D01*
X70412816Y-69728255D01*
X70350634Y-69721500D01*
X69134366Y-69721500D01*
X69072184Y-69728255D01*
X68935795Y-69779385D01*
X68819239Y-69866739D01*
X68731885Y-69983295D01*
X68680755Y-70119684D01*
X68674000Y-70181866D01*
X68674000Y-72438134D01*
X68680755Y-72500316D01*
X68731885Y-72636705D01*
X68819239Y-72753261D01*
X68935795Y-72840615D01*
X68944204Y-72843767D01*
X68944205Y-72843768D01*
X69027229Y-72874892D01*
X69083994Y-72917533D01*
X69108694Y-72984095D01*
X69109000Y-72992874D01*
X69109000Y-92572828D01*
X69088998Y-92640949D01*
X69076636Y-92657138D01*
X69028140Y-92710999D01*
X69009360Y-92731856D01*
X69000475Y-92747245D01*
X68991419Y-92762931D01*
X68940037Y-92811924D01*
X68870323Y-92825361D01*
X68804412Y-92798974D01*
X68763230Y-92741142D01*
X68756300Y-92699931D01*
X68756300Y-91112367D01*
X68756827Y-91101184D01*
X68758502Y-91093691D01*
X68756362Y-91025614D01*
X68756300Y-91021655D01*
X68756300Y-90993744D01*
X68755795Y-90989744D01*
X68754862Y-90977901D01*
X68753722Y-90941629D01*
X68753473Y-90933710D01*
X68747822Y-90914258D01*
X68743814Y-90894906D01*
X68742267Y-90882663D01*
X68741274Y-90874803D01*
X68732820Y-90853450D01*
X68724662Y-90793896D01*
X68730814Y-90735364D01*
X68731504Y-90728800D01*
X68711542Y-90538872D01*
X68652527Y-90357244D01*
X68557040Y-90191856D01*
X68477254Y-90103244D01*
X68433675Y-90054845D01*
X68433674Y-90054844D01*
X68429253Y-90049934D01*
X68274752Y-89937682D01*
X68268724Y-89934998D01*
X68268722Y-89934997D01*
X68106319Y-89862691D01*
X68106318Y-89862691D01*
X68100288Y-89860006D01*
X68006888Y-89840153D01*
X67919944Y-89821672D01*
X67919939Y-89821672D01*
X67913487Y-89820300D01*
X67722513Y-89820300D01*
X67716061Y-89821672D01*
X67716056Y-89821672D01*
X67629112Y-89840153D01*
X67535712Y-89860006D01*
X67529682Y-89862691D01*
X67529681Y-89862691D01*
X67367278Y-89934997D01*
X67367276Y-89934998D01*
X67361248Y-89937682D01*
X67206747Y-90049934D01*
X67202326Y-90054844D01*
X67202325Y-90054845D01*
X67158747Y-90103244D01*
X67078960Y-90191856D01*
X66983473Y-90357244D01*
X66924458Y-90538872D01*
X66904496Y-90728800D01*
X66905186Y-90735364D01*
X66905186Y-90735365D01*
X66923743Y-90911921D01*
X66924458Y-90918728D01*
X66983473Y-91100356D01*
X66986776Y-91106078D01*
X66986777Y-91106079D01*
X67013309Y-91152033D01*
X67078960Y-91265744D01*
X67206747Y-91407666D01*
X67305843Y-91479664D01*
X67336420Y-91501879D01*
X67361248Y-91519918D01*
X67367284Y-91522605D01*
X67367285Y-91522606D01*
X67414549Y-91543650D01*
X67468645Y-91589630D01*
X67489300Y-91658756D01*
X67489300Y-92769476D01*
X67469298Y-92837597D01*
X67456942Y-92853779D01*
X67383760Y-92935056D01*
X67380459Y-92940774D01*
X67300728Y-93078872D01*
X67288273Y-93100444D01*
X67229258Y-93282072D01*
X67209296Y-93472000D01*
X67215312Y-93529236D01*
X67202540Y-93599072D01*
X67154039Y-93650919D01*
X67085206Y-93668314D01*
X67063805Y-93665652D01*
X66903944Y-93631672D01*
X66903939Y-93631672D01*
X66897487Y-93630300D01*
X66706513Y-93630300D01*
X66700061Y-93631672D01*
X66700056Y-93631672D01*
X66613113Y-93650153D01*
X66519712Y-93670006D01*
X66513682Y-93672691D01*
X66513681Y-93672691D01*
X66351278Y-93744997D01*
X66351276Y-93744998D01*
X66345248Y-93747682D01*
X66339907Y-93751562D01*
X66339906Y-93751563D01*
X66331882Y-93757393D01*
X66190747Y-93859934D01*
X66186326Y-93864844D01*
X66186325Y-93864845D01*
X66077709Y-93985476D01*
X66062960Y-94001856D01*
X66039852Y-94041880D01*
X65974972Y-94154256D01*
X65967473Y-94167244D01*
X65908458Y-94348872D01*
X65907768Y-94355433D01*
X65907768Y-94355435D01*
X65901675Y-94413411D01*
X65888496Y-94538800D01*
X65889186Y-94545365D01*
X65901855Y-94665900D01*
X65908458Y-94728728D01*
X65967473Y-94910356D01*
X66062960Y-95075744D01*
X66067378Y-95080651D01*
X66067379Y-95080652D01*
X66182391Y-95208386D01*
X66190747Y-95217666D01*
X66230903Y-95246841D01*
X66327851Y-95317278D01*
X66345248Y-95329918D01*
X66351276Y-95332602D01*
X66351278Y-95332603D01*
X66513681Y-95404909D01*
X66519712Y-95407594D01*
X66613112Y-95427447D01*
X66700056Y-95445928D01*
X66700061Y-95445928D01*
X66706513Y-95447300D01*
X66897487Y-95447300D01*
X66903939Y-95445928D01*
X66903944Y-95445928D01*
X67075303Y-95409504D01*
X67146094Y-95414906D01*
X67202726Y-95457723D01*
X67227220Y-95524361D01*
X67227500Y-95532751D01*
X67227501Y-95828857D01*
X67227501Y-96084634D01*
X67227764Y-96087492D01*
X67227764Y-96087501D01*
X67231026Y-96123004D01*
X67234247Y-96158062D01*
X67236246Y-96164440D01*
X67236246Y-96164441D01*
X67276194Y-96291913D01*
X67285528Y-96321699D01*
X67289463Y-96328196D01*
X67363065Y-96449729D01*
X67381244Y-96518359D01*
X67363065Y-96580271D01*
X67285528Y-96708301D01*
X67283257Y-96715548D01*
X67283256Y-96715550D01*
X67274777Y-96742607D01*
X67234247Y-96871938D01*
X67227500Y-96945365D01*
X67227501Y-97608634D01*
X67234247Y-97682062D01*
X67236246Y-97688440D01*
X67236246Y-97688441D01*
X67279266Y-97825716D01*
X67285528Y-97845699D01*
X67300476Y-97870381D01*
X67363065Y-97973729D01*
X67381244Y-98042359D01*
X67363065Y-98104271D01*
X67285528Y-98232301D01*
X67283257Y-98239548D01*
X67283256Y-98239550D01*
X67274479Y-98267559D01*
X67234247Y-98395938D01*
X67227500Y-98469365D01*
X67227500Y-98472263D01*
X67227501Y-98801860D01*
X67227501Y-99132634D01*
X67234247Y-99206062D01*
X67236246Y-99212440D01*
X67236246Y-99212441D01*
X67277115Y-99342852D01*
X67285528Y-99369699D01*
X67317245Y-99422070D01*
X67335423Y-99490697D01*
X67318587Y-99550339D01*
X67292916Y-99594803D01*
X67288273Y-99602844D01*
X67229258Y-99784472D01*
X67209296Y-99974400D01*
X67209986Y-99980965D01*
X67218580Y-100062728D01*
X67229258Y-100164328D01*
X67288273Y-100345956D01*
X67383760Y-100511344D01*
X67511547Y-100653266D01*
X67529904Y-100666603D01*
X67643714Y-100749291D01*
X67666048Y-100765518D01*
X67672076Y-100768202D01*
X67672078Y-100768203D01*
X67818559Y-100833420D01*
X67840512Y-100843194D01*
X67933912Y-100863047D01*
X68020856Y-100881528D01*
X68020861Y-100881528D01*
X68027313Y-100882900D01*
X68218287Y-100882900D01*
X68224739Y-100881528D01*
X68224744Y-100881528D01*
X68311687Y-100863047D01*
X68405088Y-100843194D01*
X68427041Y-100833420D01*
X68573522Y-100768203D01*
X68573524Y-100768202D01*
X68579552Y-100765518D01*
X68601887Y-100749291D01*
X68715696Y-100666603D01*
X68734053Y-100653266D01*
X68861840Y-100511344D01*
X68957327Y-100345956D01*
X69016342Y-100164328D01*
X69027021Y-100062728D01*
X69035614Y-99980965D01*
X69036304Y-99974400D01*
X69017604Y-99796476D01*
X69030376Y-99726638D01*
X69078878Y-99674791D01*
X69147711Y-99657397D01*
X69208185Y-99675530D01*
X69292301Y-99726472D01*
X69299548Y-99728743D01*
X69299550Y-99728744D01*
X69365836Y-99749517D01*
X69455938Y-99777753D01*
X69529365Y-99784500D01*
X69532263Y-99784500D01*
X69786665Y-99784499D01*
X70042634Y-99784499D01*
X70045492Y-99784236D01*
X70045501Y-99784236D01*
X70081004Y-99780974D01*
X70116062Y-99777753D01*
X70122447Y-99775752D01*
X70272450Y-99728744D01*
X70272452Y-99728743D01*
X70279699Y-99726472D01*
X70426381Y-99637639D01*
X70547639Y-99516381D01*
X70560449Y-99495229D01*
X70612846Y-99447322D01*
X70668225Y-99434500D01*
X70721600Y-99434500D01*
X70789721Y-99454502D01*
X70808947Y-99470843D01*
X70809220Y-99470540D01*
X70814132Y-99474963D01*
X70818547Y-99479866D01*
X70826724Y-99485807D01*
X70891439Y-99532825D01*
X70973048Y-99592118D01*
X70979076Y-99594802D01*
X70979078Y-99594803D01*
X71129669Y-99661850D01*
X71147512Y-99669794D01*
X71239915Y-99689435D01*
X71327856Y-99708128D01*
X71327861Y-99708128D01*
X71334313Y-99709500D01*
X71525287Y-99709500D01*
X71531739Y-99708128D01*
X71531744Y-99708128D01*
X71619685Y-99689435D01*
X71712088Y-99669794D01*
X71729931Y-99661850D01*
X71880522Y-99594803D01*
X71880524Y-99594802D01*
X71886552Y-99592118D01*
X72041053Y-99479866D01*
X72081901Y-99434500D01*
X72164421Y-99342852D01*
X72164422Y-99342851D01*
X72168840Y-99337944D01*
X72264327Y-99172556D01*
X72323342Y-98990928D01*
X72327527Y-98951115D01*
X72333747Y-98891930D01*
X72360760Y-98826273D01*
X72418982Y-98785643D01*
X72459057Y-98779100D01*
X72500012Y-98779100D01*
X72516458Y-98780178D01*
X72564191Y-98786462D01*
X72572075Y-98787500D01*
X72582569Y-98787500D01*
X72859408Y-98787499D01*
X72927527Y-98807501D01*
X72974020Y-98861156D01*
X72984125Y-98931430D01*
X72954632Y-98996011D01*
X72948503Y-99002593D01*
X71983260Y-99967835D01*
X71108747Y-100842348D01*
X71100461Y-100849888D01*
X71093982Y-100854000D01*
X71088557Y-100859777D01*
X71047357Y-100903651D01*
X71044602Y-100906493D01*
X71024865Y-100926230D01*
X71022385Y-100929427D01*
X71014682Y-100938447D01*
X70984414Y-100970679D01*
X70980595Y-100977625D01*
X70980593Y-100977628D01*
X70974652Y-100988434D01*
X70963801Y-101004953D01*
X70951386Y-101020959D01*
X70948241Y-101028228D01*
X70948238Y-101028232D01*
X70933826Y-101061537D01*
X70928609Y-101072187D01*
X70907305Y-101110940D01*
X70905334Y-101118615D01*
X70905334Y-101118616D01*
X70902267Y-101130562D01*
X70895863Y-101149266D01*
X70887819Y-101167855D01*
X70886580Y-101175678D01*
X70886577Y-101175688D01*
X70880901Y-101211524D01*
X70878495Y-101223144D01*
X70867500Y-101265970D01*
X70867500Y-101286224D01*
X70865949Y-101305934D01*
X70862780Y-101325943D01*
X70863526Y-101333835D01*
X70866941Y-101369961D01*
X70867500Y-101381819D01*
X70867500Y-101543775D01*
X70847498Y-101611896D01*
X70806771Y-101651551D01*
X70785619Y-101664361D01*
X70664361Y-101785619D01*
X70575528Y-101932301D01*
X70524247Y-102095938D01*
X70517500Y-102169365D01*
X70517501Y-102682634D01*
X70524247Y-102756062D01*
X70526246Y-102762440D01*
X70526246Y-102762441D01*
X70560732Y-102872484D01*
X70575528Y-102919699D01*
X70664361Y-103066381D01*
X70759885Y-103161905D01*
X70793911Y-103224217D01*
X70788846Y-103295032D01*
X70759885Y-103340095D01*
X70664361Y-103435619D01*
X70575528Y-103582301D01*
X70524247Y-103745938D01*
X70517500Y-103819365D01*
X70517501Y-104332634D01*
X70524247Y-104406062D01*
X70526246Y-104412440D01*
X70526246Y-104412441D01*
X70547799Y-104481215D01*
X70575528Y-104569699D01*
X70664361Y-104716381D01*
X70765095Y-104817115D01*
X70799121Y-104879427D01*
X70802000Y-104906210D01*
X70802000Y-107022621D01*
X70796997Y-107057771D01*
X70761438Y-107180169D01*
X70760933Y-107186579D01*
X70760933Y-107186582D01*
X70760319Y-107194392D01*
X70758500Y-107217498D01*
X70758500Y-108219000D01*
X70738498Y-108287121D01*
X70684842Y-108333614D01*
X70632500Y-108345000D01*
X70578013Y-108345000D01*
X70571561Y-108346372D01*
X70571556Y-108346372D01*
X70484613Y-108364853D01*
X70391212Y-108384706D01*
X70385182Y-108387391D01*
X70385181Y-108387391D01*
X70222778Y-108459697D01*
X70222776Y-108459698D01*
X70216748Y-108462382D01*
X70062247Y-108574634D01*
X69974748Y-108671812D01*
X69914305Y-108709050D01*
X69881114Y-108713500D01*
X62889913Y-108713500D01*
X62881343Y-108713208D01*
X62832037Y-108709846D01*
X62832033Y-108709846D01*
X62824462Y-108709330D01*
X62816986Y-108710635D01*
X62816982Y-108710635D01*
X62762390Y-108720163D01*
X62755865Y-108721126D01*
X62700896Y-108727778D01*
X62700894Y-108727779D01*
X62693354Y-108728691D01*
X62686252Y-108731375D01*
X62682814Y-108732219D01*
X62668691Y-108736083D01*
X62665280Y-108737113D01*
X62657797Y-108738419D01*
X62650842Y-108741472D01*
X62600116Y-108763739D01*
X62594010Y-108766230D01*
X62535092Y-108788494D01*
X62528837Y-108792793D01*
X62525696Y-108794435D01*
X62512942Y-108801533D01*
X62509836Y-108803370D01*
X62502881Y-108806423D01*
X62496854Y-108811048D01*
X62496850Y-108811050D01*
X62452912Y-108844765D01*
X62447594Y-108848629D01*
X62395662Y-108884321D01*
X62390610Y-108889991D01*
X62390609Y-108889992D01*
X62354796Y-108930188D01*
X62349815Y-108935464D01*
X61567462Y-109717817D01*
X61561197Y-109723670D01*
X61518226Y-109761156D01*
X61501974Y-109784281D01*
X61482006Y-109812692D01*
X61478073Y-109817988D01*
X61443894Y-109861577D01*
X61443892Y-109861580D01*
X61439208Y-109867554D01*
X61436082Y-109874478D01*
X61434244Y-109877513D01*
X61427000Y-109890212D01*
X61425312Y-109893360D01*
X61420944Y-109899575D01*
X61418184Y-109906654D01*
X61398067Y-109958253D01*
X61395522Y-109964309D01*
X61369587Y-110021749D01*
X61368202Y-110029222D01*
X61367131Y-110032640D01*
X61363146Y-110046629D01*
X61362249Y-110050121D01*
X61359488Y-110057203D01*
X61358496Y-110064736D01*
X61358496Y-110064737D01*
X61351267Y-110119644D01*
X61350235Y-110126157D01*
X61340139Y-110180632D01*
X61338755Y-110188101D01*
X61339192Y-110195681D01*
X61339192Y-110195682D01*
X61342291Y-110249426D01*
X61342500Y-110256679D01*
X61342500Y-112114775D01*
X61322498Y-112182896D01*
X61305595Y-112203870D01*
X61120962Y-112388503D01*
X61114697Y-112394356D01*
X61071726Y-112431842D01*
X61067359Y-112438056D01*
X61035506Y-112483378D01*
X61031573Y-112488673D01*
X61014809Y-112510053D01*
X60957036Y-112551318D01*
X60886124Y-112554798D01*
X60871426Y-112550289D01*
X60822718Y-112532029D01*
X60822712Y-112532027D01*
X60815316Y-112529255D01*
X60753134Y-112522500D01*
X59896866Y-112522500D01*
X59834684Y-112529255D01*
X59734229Y-112566914D01*
X59663423Y-112572097D01*
X59645775Y-112566916D01*
X59545316Y-112529255D01*
X59483134Y-112522500D01*
X58626866Y-112522500D01*
X58564684Y-112529255D01*
X58428295Y-112580385D01*
X58311739Y-112667739D01*
X58224385Y-112784295D01*
X58173255Y-112920684D01*
X58166500Y-112982866D01*
X58166500Y-119429134D01*
X58173255Y-119491316D01*
X58224385Y-119627705D01*
X58311739Y-119744261D01*
X58428295Y-119831615D01*
X58564684Y-119882745D01*
X58626866Y-119889500D01*
X59483134Y-119889500D01*
X59545316Y-119882745D01*
X59645771Y-119845086D01*
X59716577Y-119839903D01*
X59734225Y-119845084D01*
X59834684Y-119882745D01*
X59896866Y-119889500D01*
X60753134Y-119889500D01*
X60815316Y-119882745D01*
X60915771Y-119845086D01*
X60986577Y-119839903D01*
X61004225Y-119845084D01*
X61104684Y-119882745D01*
X61166866Y-119889500D01*
X62023134Y-119889500D01*
X62085316Y-119882745D01*
X62185771Y-119845086D01*
X62256577Y-119839903D01*
X62274225Y-119845084D01*
X62374684Y-119882745D01*
X62436866Y-119889500D01*
X63293134Y-119889500D01*
X63355316Y-119882745D01*
X63455771Y-119845086D01*
X63526577Y-119839903D01*
X63544225Y-119845084D01*
X63644684Y-119882745D01*
X63706866Y-119889500D01*
X64563134Y-119889500D01*
X64625316Y-119882745D01*
X64725771Y-119845086D01*
X64796577Y-119839903D01*
X64814225Y-119845084D01*
X64914684Y-119882745D01*
X64976866Y-119889500D01*
X65833134Y-119889500D01*
X65895316Y-119882745D01*
X65995771Y-119845086D01*
X66066577Y-119839903D01*
X66084225Y-119845084D01*
X66184684Y-119882745D01*
X66246866Y-119889500D01*
X67103134Y-119889500D01*
X67165316Y-119882745D01*
X67265771Y-119845086D01*
X67336577Y-119839903D01*
X67354225Y-119845084D01*
X67454684Y-119882745D01*
X67516866Y-119889500D01*
X68373134Y-119889500D01*
X68435316Y-119882745D01*
X68571705Y-119831615D01*
X68688261Y-119744261D01*
X68775615Y-119627705D01*
X68826745Y-119491316D01*
X68833500Y-119429134D01*
X68833500Y-119363134D01*
X78486500Y-119363134D01*
X78493255Y-119425316D01*
X78544385Y-119561705D01*
X78631739Y-119678261D01*
X78748295Y-119765615D01*
X78884684Y-119816745D01*
X78946866Y-119823500D01*
X79803134Y-119823500D01*
X79865316Y-119816745D01*
X79965771Y-119779086D01*
X80036577Y-119773903D01*
X80054225Y-119779084D01*
X80154684Y-119816745D01*
X80216866Y-119823500D01*
X81073134Y-119823500D01*
X81135316Y-119816745D01*
X81235771Y-119779086D01*
X81306577Y-119773903D01*
X81324225Y-119779084D01*
X81424684Y-119816745D01*
X81486866Y-119823500D01*
X82343134Y-119823500D01*
X82405316Y-119816745D01*
X82505771Y-119779086D01*
X82576577Y-119773903D01*
X82594225Y-119779084D01*
X82694684Y-119816745D01*
X82756866Y-119823500D01*
X83613134Y-119823500D01*
X83675316Y-119816745D01*
X83775771Y-119779086D01*
X83846577Y-119773903D01*
X83864225Y-119779084D01*
X83964684Y-119816745D01*
X84026866Y-119823500D01*
X84883134Y-119823500D01*
X84945316Y-119816745D01*
X85045771Y-119779086D01*
X85116577Y-119773903D01*
X85134225Y-119779084D01*
X85234684Y-119816745D01*
X85296866Y-119823500D01*
X86153134Y-119823500D01*
X86215316Y-119816745D01*
X86315771Y-119779086D01*
X86386577Y-119773903D01*
X86404225Y-119779084D01*
X86504684Y-119816745D01*
X86566866Y-119823500D01*
X87423134Y-119823500D01*
X87485316Y-119816745D01*
X87585771Y-119779086D01*
X87656577Y-119773903D01*
X87674225Y-119779084D01*
X87774684Y-119816745D01*
X87836866Y-119823500D01*
X88693134Y-119823500D01*
X88755316Y-119816745D01*
X88891705Y-119765615D01*
X89008261Y-119678261D01*
X89095615Y-119561705D01*
X89146745Y-119425316D01*
X89153500Y-119363134D01*
X89153500Y-112916866D01*
X89146745Y-112854684D01*
X89095615Y-112718295D01*
X89008261Y-112601739D01*
X88891705Y-112514385D01*
X88755316Y-112463255D01*
X88693134Y-112456500D01*
X87836866Y-112456500D01*
X87774684Y-112463255D01*
X87674229Y-112500914D01*
X87603423Y-112506097D01*
X87585775Y-112500916D01*
X87485316Y-112463255D01*
X87423134Y-112456500D01*
X86566866Y-112456500D01*
X86504684Y-112463255D01*
X86404229Y-112500914D01*
X86333423Y-112506097D01*
X86315775Y-112500916D01*
X86215316Y-112463255D01*
X86207461Y-112462402D01*
X86201355Y-112460950D01*
X86139708Y-112425733D01*
X86106887Y-112362778D01*
X86104500Y-112338367D01*
X86104500Y-112038915D01*
X86104792Y-112030344D01*
X86105989Y-112012792D01*
X86108670Y-111973464D01*
X86097834Y-111911380D01*
X86096878Y-111904901D01*
X86089309Y-111842355D01*
X86086625Y-111835253D01*
X86085770Y-111831771D01*
X86081930Y-111817736D01*
X86080889Y-111814288D01*
X86079582Y-111806798D01*
X86076526Y-111799836D01*
X86054263Y-111749120D01*
X86051770Y-111743012D01*
X86032192Y-111691201D01*
X86032192Y-111691200D01*
X86029506Y-111684093D01*
X86025200Y-111677827D01*
X86023550Y-111674672D01*
X86016431Y-111661880D01*
X86014631Y-111658836D01*
X86011578Y-111651882D01*
X85973240Y-111601919D01*
X85969362Y-111596582D01*
X85937981Y-111550922D01*
X85937979Y-111550920D01*
X85933679Y-111544663D01*
X85887811Y-111503796D01*
X85882536Y-111498816D01*
X85761191Y-111377471D01*
X85727165Y-111315159D01*
X85724976Y-111275206D01*
X85739046Y-111141333D01*
X85739736Y-111134768D01*
X85730720Y-111048982D01*
X85720464Y-110951403D01*
X85720464Y-110951401D01*
X85719774Y-110944840D01*
X85660759Y-110763212D01*
X85565272Y-110597824D01*
X85437485Y-110455902D01*
X85327584Y-110376054D01*
X85288326Y-110347531D01*
X85288325Y-110347530D01*
X85282984Y-110343650D01*
X85276956Y-110340966D01*
X85276954Y-110340965D01*
X85114551Y-110268659D01*
X85114550Y-110268659D01*
X85108520Y-110265974D01*
X85015119Y-110246121D01*
X84928176Y-110227640D01*
X84928171Y-110227640D01*
X84921719Y-110226268D01*
X84730745Y-110226268D01*
X84724293Y-110227640D01*
X84724288Y-110227640D01*
X84637345Y-110246121D01*
X84543944Y-110265974D01*
X84537914Y-110268659D01*
X84537913Y-110268659D01*
X84375510Y-110340965D01*
X84375508Y-110340966D01*
X84369480Y-110343650D01*
X84364139Y-110347530D01*
X84364138Y-110347531D01*
X84324880Y-110376054D01*
X84214979Y-110455902D01*
X84087192Y-110597824D01*
X83991705Y-110763212D01*
X83985204Y-110783221D01*
X83942707Y-110914011D01*
X83902633Y-110972617D01*
X83849071Y-110998321D01*
X83807946Y-111007063D01*
X83807941Y-111007065D01*
X83801480Y-111008438D01*
X83795450Y-111011123D01*
X83795449Y-111011123D01*
X83633046Y-111083429D01*
X83633044Y-111083430D01*
X83627016Y-111086114D01*
X83472515Y-111198366D01*
X83468094Y-111203276D01*
X83468093Y-111203277D01*
X83390025Y-111289981D01*
X83344728Y-111340288D01*
X83275032Y-111461005D01*
X83223651Y-111509997D01*
X83153937Y-111523433D01*
X83088026Y-111497047D01*
X83076819Y-111487099D01*
X81697191Y-110107471D01*
X81663165Y-110045159D01*
X81660976Y-110005206D01*
X81675046Y-109871333D01*
X81675736Y-109864768D01*
X81659613Y-109711364D01*
X81656464Y-109681403D01*
X81656464Y-109681401D01*
X81655774Y-109674840D01*
X81596759Y-109493212D01*
X81501272Y-109327824D01*
X81373485Y-109185902D01*
X81218984Y-109073650D01*
X81212956Y-109070966D01*
X81212954Y-109070965D01*
X81050551Y-108998659D01*
X81050550Y-108998659D01*
X81044520Y-108995974D01*
X80951119Y-108976121D01*
X80864176Y-108957640D01*
X80864171Y-108957640D01*
X80857719Y-108956268D01*
X80666745Y-108956268D01*
X80660293Y-108957640D01*
X80660288Y-108957640D01*
X80573344Y-108976121D01*
X80479944Y-108995974D01*
X80473914Y-108998659D01*
X80473913Y-108998659D01*
X80311510Y-109070965D01*
X80311508Y-109070966D01*
X80305480Y-109073650D01*
X80150979Y-109185902D01*
X80023192Y-109327824D01*
X79927705Y-109493212D01*
X79925663Y-109499497D01*
X79878707Y-109644011D01*
X79838633Y-109702617D01*
X79785071Y-109728321D01*
X79743946Y-109737063D01*
X79743941Y-109737065D01*
X79737480Y-109738438D01*
X79731450Y-109741123D01*
X79731449Y-109741123D01*
X79569046Y-109813429D01*
X79569044Y-109813430D01*
X79563016Y-109816114D01*
X79557675Y-109819994D01*
X79557674Y-109819995D01*
X79516878Y-109849635D01*
X79408515Y-109928366D01*
X79404094Y-109933276D01*
X79404093Y-109933277D01*
X79302031Y-110046629D01*
X79280728Y-110070288D01*
X79249235Y-110124835D01*
X79189881Y-110227640D01*
X79185241Y-110235676D01*
X79126226Y-110417304D01*
X79106264Y-110607232D01*
X79106954Y-110613797D01*
X79124329Y-110779107D01*
X79126226Y-110797160D01*
X79185241Y-110978788D01*
X79188544Y-110984510D01*
X79188545Y-110984511D01*
X79201884Y-111007614D01*
X79280728Y-111144176D01*
X79285146Y-111149083D01*
X79285147Y-111149084D01*
X79329521Y-111198366D01*
X79408515Y-111286098D01*
X79473161Y-111333066D01*
X79534279Y-111377471D01*
X79563016Y-111398350D01*
X79569044Y-111401034D01*
X79569046Y-111401035D01*
X79731449Y-111473341D01*
X79737480Y-111476026D01*
X79824694Y-111494564D01*
X79917824Y-111514360D01*
X79917829Y-111514360D01*
X79924281Y-111515732D01*
X80115255Y-111515732D01*
X80121710Y-111514360D01*
X80121719Y-111514359D01*
X80147926Y-111508788D01*
X80218717Y-111514189D01*
X80263219Y-111542939D01*
X80961685Y-112241405D01*
X80995711Y-112303717D01*
X80990646Y-112374532D01*
X80948099Y-112431368D01*
X80881579Y-112456179D01*
X80872590Y-112456500D01*
X80216866Y-112456500D01*
X80154684Y-112463255D01*
X80054229Y-112500914D01*
X79983423Y-112506097D01*
X79965775Y-112500916D01*
X79865316Y-112463255D01*
X79803134Y-112456500D01*
X78946866Y-112456500D01*
X78884684Y-112463255D01*
X78748295Y-112514385D01*
X78631739Y-112601739D01*
X78544385Y-112718295D01*
X78493255Y-112854684D01*
X78486500Y-112916866D01*
X78486500Y-119363134D01*
X68833500Y-119363134D01*
X68833500Y-112982866D01*
X68826745Y-112920684D01*
X68775615Y-112784295D01*
X68688261Y-112667739D01*
X68571705Y-112580385D01*
X68435316Y-112529255D01*
X68373134Y-112522500D01*
X67516866Y-112522500D01*
X67454684Y-112529255D01*
X67354229Y-112566914D01*
X67283423Y-112572097D01*
X67265775Y-112566916D01*
X67165316Y-112529255D01*
X67103134Y-112522500D01*
X66617529Y-112522500D01*
X66549408Y-112502498D01*
X66502915Y-112448842D01*
X66492811Y-112378568D01*
X66522305Y-112313988D01*
X66524324Y-112311930D01*
X66524253Y-112311866D01*
X66647621Y-112174852D01*
X66647622Y-112174851D01*
X66652040Y-112169944D01*
X66706569Y-112075498D01*
X66757951Y-112026506D01*
X66815687Y-112012500D01*
X74060401Y-112012500D01*
X74068971Y-112012792D01*
X74118277Y-112016154D01*
X74118281Y-112016154D01*
X74125852Y-112016670D01*
X74133328Y-112015365D01*
X74133332Y-112015365D01*
X74187924Y-112005837D01*
X74194449Y-112004874D01*
X74249418Y-111998222D01*
X74249420Y-111998221D01*
X74256960Y-111997309D01*
X74264062Y-111994625D01*
X74267500Y-111993781D01*
X74281623Y-111989917D01*
X74285034Y-111988887D01*
X74292517Y-111987581D01*
X74350197Y-111962261D01*
X74356304Y-111959770D01*
X74408117Y-111940191D01*
X74408118Y-111940190D01*
X74415222Y-111937506D01*
X74421477Y-111933207D01*
X74424618Y-111931565D01*
X74437372Y-111924467D01*
X74440478Y-111922630D01*
X74447433Y-111919577D01*
X74453460Y-111914952D01*
X74453464Y-111914950D01*
X74497402Y-111881235D01*
X74502720Y-111877371D01*
X74554652Y-111841679D01*
X74575985Y-111817736D01*
X74595518Y-111795812D01*
X74600499Y-111790536D01*
X77236630Y-109154405D01*
X77298942Y-109120379D01*
X77325725Y-109117500D01*
X77747502Y-109117500D01*
X77749950Y-109117307D01*
X77749958Y-109117307D01*
X77778421Y-109115067D01*
X77778426Y-109115066D01*
X77784831Y-109114562D01*
X77912294Y-109077531D01*
X77936988Y-109070357D01*
X77936990Y-109070356D01*
X77944601Y-109068145D01*
X77973411Y-109051107D01*
X78080980Y-108987491D01*
X78080983Y-108987489D01*
X78087807Y-108983453D01*
X78205453Y-108865807D01*
X78209489Y-108858983D01*
X78209491Y-108858980D01*
X78286108Y-108729427D01*
X78290145Y-108722601D01*
X78293622Y-108710635D01*
X78314749Y-108637911D01*
X78336562Y-108562831D01*
X78339500Y-108525502D01*
X78339500Y-107217498D01*
X78337682Y-107194392D01*
X78337067Y-107186582D01*
X78337067Y-107186579D01*
X78336562Y-107180169D01*
X78301003Y-107057771D01*
X78296000Y-107022621D01*
X78296000Y-104901210D01*
X78316002Y-104833089D01*
X78332905Y-104812115D01*
X78433639Y-104711381D01*
X78522472Y-104564699D01*
X78573753Y-104401062D01*
X78580500Y-104327635D01*
X78580499Y-103814366D01*
X78573753Y-103740938D01*
X78526311Y-103589550D01*
X78524744Y-103584550D01*
X78524743Y-103584548D01*
X78522472Y-103577301D01*
X78433639Y-103430619D01*
X78338115Y-103335095D01*
X78304089Y-103272783D01*
X78309154Y-103201968D01*
X78338115Y-103156905D01*
X78433639Y-103061381D01*
X78522472Y-102914699D01*
X78530746Y-102888299D01*
X78571752Y-102757446D01*
X78573753Y-102751062D01*
X78580500Y-102677635D01*
X78580499Y-102164366D01*
X78573753Y-102090938D01*
X78546279Y-102003269D01*
X78524744Y-101934550D01*
X78524743Y-101934548D01*
X78522472Y-101927301D01*
X78433639Y-101780619D01*
X78312381Y-101659361D01*
X78289649Y-101645594D01*
X78241742Y-101593196D01*
X78228982Y-101541775D01*
X78228264Y-101518905D01*
X78227673Y-101500110D01*
X78222022Y-101480658D01*
X78218014Y-101461306D01*
X78216467Y-101449063D01*
X78215474Y-101441203D01*
X78212556Y-101433832D01*
X78199200Y-101400097D01*
X78195355Y-101388870D01*
X78186891Y-101359738D01*
X78183018Y-101346407D01*
X78178984Y-101339585D01*
X78178981Y-101339579D01*
X78172706Y-101328968D01*
X78164010Y-101311218D01*
X78159472Y-101299756D01*
X78159469Y-101299751D01*
X78156552Y-101292383D01*
X78137362Y-101265970D01*
X78130573Y-101256625D01*
X78124057Y-101246707D01*
X78105575Y-101215457D01*
X78101542Y-101208637D01*
X78087218Y-101194313D01*
X78074376Y-101179278D01*
X78071768Y-101175688D01*
X78062472Y-101162893D01*
X78028406Y-101134711D01*
X78019627Y-101126722D01*
X75900610Y-99007705D01*
X77261001Y-99007705D01*
X77261264Y-99013454D01*
X77267132Y-99077315D01*
X77269743Y-99090351D01*
X77316715Y-99240243D01*
X77322921Y-99253988D01*
X77403824Y-99387574D01*
X77413131Y-99399443D01*
X77523557Y-99509869D01*
X77535426Y-99519176D01*
X77669012Y-99600079D01*
X77682757Y-99606285D01*
X77832644Y-99653256D01*
X77845694Y-99655869D01*
X77900586Y-99660913D01*
X77912124Y-99657525D01*
X77913329Y-99656135D01*
X77915000Y-99648452D01*
X77915000Y-98951115D01*
X77910525Y-98935876D01*
X77909135Y-98934671D01*
X77901452Y-98933000D01*
X77279116Y-98933000D01*
X77263877Y-98937475D01*
X77262672Y-98938865D01*
X77261001Y-98946548D01*
X77261001Y-99007705D01*
X75900610Y-99007705D01*
X75895000Y-99002095D01*
X75860974Y-98939783D01*
X75866039Y-98868968D01*
X75908586Y-98812132D01*
X75975106Y-98787321D01*
X75984095Y-98787000D01*
X76267772Y-98787000D01*
X76275981Y-98786462D01*
X76375242Y-98773394D01*
X76391060Y-98769156D01*
X76514582Y-98717991D01*
X76528763Y-98709804D01*
X76634835Y-98628413D01*
X76646414Y-98616833D01*
X76727802Y-98510765D01*
X76735992Y-98496579D01*
X76776128Y-98399682D01*
X76820676Y-98344401D01*
X76892537Y-98321900D01*
X77141724Y-98321900D01*
X77209845Y-98341902D01*
X77256338Y-98395558D01*
X77262620Y-98412402D01*
X77265475Y-98422124D01*
X77266865Y-98423329D01*
X77274548Y-98425000D01*
X78297000Y-98425000D01*
X78365121Y-98445002D01*
X78411614Y-98498658D01*
X78423000Y-98551000D01*
X78423000Y-99643884D01*
X78427475Y-99659123D01*
X78428865Y-99660328D01*
X78433294Y-99661291D01*
X78492315Y-99655868D01*
X78505351Y-99653257D01*
X78655243Y-99606285D01*
X78668988Y-99600079D01*
X78780037Y-99532825D01*
X78848667Y-99514646D01*
X78916231Y-99536456D01*
X78961277Y-99591332D01*
X78969504Y-99661850D01*
X78967461Y-99670132D01*
X78967471Y-99670134D01*
X78966098Y-99676594D01*
X78964058Y-99682872D01*
X78963368Y-99689433D01*
X78963368Y-99689435D01*
X78952690Y-99791035D01*
X78944096Y-99872800D01*
X78964058Y-100062728D01*
X79023073Y-100244356D01*
X79118560Y-100409744D01*
X79246347Y-100551666D01*
X79400848Y-100663918D01*
X79406876Y-100666602D01*
X79406878Y-100666603D01*
X79507196Y-100711267D01*
X79575312Y-100741594D01*
X79668713Y-100761447D01*
X79755656Y-100779928D01*
X79755661Y-100779928D01*
X79762113Y-100781300D01*
X79953087Y-100781300D01*
X79959539Y-100779928D01*
X79959544Y-100779928D01*
X80046488Y-100761447D01*
X80139888Y-100741594D01*
X80208004Y-100711267D01*
X80308322Y-100666603D01*
X80308324Y-100666602D01*
X80314352Y-100663918D01*
X80468853Y-100551666D01*
X80596640Y-100409744D01*
X80692127Y-100244356D01*
X80751142Y-100062728D01*
X80771104Y-99872800D01*
X80762510Y-99791035D01*
X80751832Y-99689435D01*
X80751832Y-99689433D01*
X80751142Y-99682872D01*
X80692127Y-99501244D01*
X80686038Y-99490697D01*
X80643387Y-99416824D01*
X80626649Y-99347829D01*
X80644730Y-99288553D01*
X80665537Y-99254196D01*
X80669472Y-99247699D01*
X80720753Y-99084062D01*
X80727500Y-99010635D01*
X80727499Y-98347366D01*
X80725160Y-98321900D01*
X80723779Y-98306874D01*
X80720753Y-98273938D01*
X80716090Y-98259059D01*
X80671744Y-98117550D01*
X80671743Y-98117548D01*
X80669472Y-98110301D01*
X80591935Y-97982271D01*
X80573756Y-97913641D01*
X80591935Y-97851729D01*
X80665537Y-97730196D01*
X80669472Y-97723699D01*
X80689482Y-97659849D01*
X80718752Y-97566446D01*
X80720753Y-97560062D01*
X80727500Y-97486635D01*
X80727499Y-96823366D01*
X80720753Y-96749938D01*
X80672279Y-96595258D01*
X80670994Y-96524276D01*
X80703418Y-96468486D01*
X81535299Y-95636605D01*
X81597611Y-95602579D01*
X81624394Y-95599700D01*
X81680287Y-95599700D01*
X81686739Y-95598328D01*
X81686744Y-95598328D01*
X81773687Y-95579847D01*
X81867088Y-95559994D01*
X81897630Y-95546396D01*
X82035522Y-95485003D01*
X82035524Y-95485002D01*
X82041552Y-95482318D01*
X82196053Y-95370066D01*
X82205565Y-95359502D01*
X82319421Y-95233052D01*
X82319422Y-95233051D01*
X82323840Y-95228144D01*
X82409871Y-95079134D01*
X82416023Y-95068479D01*
X82416024Y-95068478D01*
X82419327Y-95062756D01*
X82478342Y-94881128D01*
X82489108Y-94778701D01*
X82492091Y-94750314D01*
X82519104Y-94684658D01*
X82577326Y-94644028D01*
X82648271Y-94641325D01*
X82709415Y-94677407D01*
X82720614Y-94691214D01*
X82809930Y-94818770D01*
X82813802Y-94824300D01*
X82975700Y-94986198D01*
X82980208Y-94989355D01*
X82980211Y-94989357D01*
X83049137Y-95037619D01*
X83163251Y-95117523D01*
X83168233Y-95119846D01*
X83168238Y-95119849D01*
X83202457Y-95135805D01*
X83255742Y-95182722D01*
X83275203Y-95250999D01*
X83254661Y-95318959D01*
X83202457Y-95364195D01*
X83168238Y-95380151D01*
X83168233Y-95380154D01*
X83163251Y-95382477D01*
X83058389Y-95455902D01*
X82980211Y-95510643D01*
X82980208Y-95510645D01*
X82975700Y-95513802D01*
X82813802Y-95675700D01*
X82810645Y-95680208D01*
X82810643Y-95680211D01*
X82776485Y-95728994D01*
X82682477Y-95863251D01*
X82680154Y-95868233D01*
X82680151Y-95868238D01*
X82608900Y-96021038D01*
X82585716Y-96070757D01*
X82584294Y-96076065D01*
X82584293Y-96076067D01*
X82560613Y-96164441D01*
X82526457Y-96291913D01*
X82506502Y-96520000D01*
X82526457Y-96748087D01*
X82527881Y-96753400D01*
X82527881Y-96753402D01*
X82547401Y-96826249D01*
X82585716Y-96969243D01*
X82588039Y-96974224D01*
X82588039Y-96974225D01*
X82680151Y-97171762D01*
X82680154Y-97171767D01*
X82682477Y-97176749D01*
X82813802Y-97364300D01*
X82975700Y-97526198D01*
X82980208Y-97529355D01*
X82980211Y-97529357D01*
X83033180Y-97566446D01*
X83163251Y-97657523D01*
X83168233Y-97659846D01*
X83168238Y-97659849D01*
X83202457Y-97675805D01*
X83255742Y-97722722D01*
X83275203Y-97790999D01*
X83254661Y-97858959D01*
X83202457Y-97904195D01*
X83168238Y-97920151D01*
X83168233Y-97920154D01*
X83163251Y-97922477D01*
X83058389Y-97995902D01*
X82980211Y-98050643D01*
X82980208Y-98050645D01*
X82975700Y-98053802D01*
X82813802Y-98215700D01*
X82810645Y-98220208D01*
X82810643Y-98220211D01*
X82777490Y-98267559D01*
X82682477Y-98403251D01*
X82680154Y-98408233D01*
X82680151Y-98408238D01*
X82623804Y-98529076D01*
X82585716Y-98610757D01*
X82584294Y-98616065D01*
X82584293Y-98616067D01*
X82534740Y-98801000D01*
X82526457Y-98831913D01*
X82506502Y-99060000D01*
X82526457Y-99288087D01*
X82527881Y-99293400D01*
X82527881Y-99293402D01*
X82583573Y-99501244D01*
X82585716Y-99509243D01*
X82588039Y-99514224D01*
X82588039Y-99514225D01*
X82680151Y-99711762D01*
X82680154Y-99711767D01*
X82682477Y-99716749D01*
X82725621Y-99778365D01*
X82787149Y-99866235D01*
X82813802Y-99904300D01*
X82975700Y-100066198D01*
X82980208Y-100069355D01*
X82980211Y-100069357D01*
X83058389Y-100124098D01*
X83163251Y-100197523D01*
X83168233Y-100199846D01*
X83168238Y-100199849D01*
X83336556Y-100278336D01*
X83370757Y-100294284D01*
X83376065Y-100295706D01*
X83376067Y-100295707D01*
X83586598Y-100352119D01*
X83586600Y-100352119D01*
X83591913Y-100353543D01*
X83820000Y-100373498D01*
X84048087Y-100353543D01*
X84053400Y-100352119D01*
X84053402Y-100352119D01*
X84263933Y-100295707D01*
X84263935Y-100295706D01*
X84269243Y-100294284D01*
X84303661Y-100278235D01*
X84346767Y-100258134D01*
X84402251Y-100232262D01*
X84472442Y-100221601D01*
X84537255Y-100250581D01*
X84576111Y-100310001D01*
X84581500Y-100346457D01*
X84581500Y-101606448D01*
X84561498Y-101674569D01*
X84507842Y-101721062D01*
X84437568Y-101731166D01*
X84372988Y-101701672D01*
X84352413Y-101678898D01*
X84234637Y-101511319D01*
X84234631Y-101511312D01*
X84232168Y-101507807D01*
X84115093Y-101381819D01*
X84034655Y-101295257D01*
X84034652Y-101295254D01*
X84031734Y-101292114D01*
X84028419Y-101289400D01*
X84028415Y-101289397D01*
X83834804Y-101130928D01*
X83803881Y-101105618D01*
X83552826Y-100951772D01*
X83488253Y-100923426D01*
X83395932Y-100882900D01*
X83283214Y-100833420D01*
X83000034Y-100752755D01*
X82708527Y-100711267D01*
X82553376Y-100710454D01*
X82418373Y-100709747D01*
X82418366Y-100709747D01*
X82414087Y-100709725D01*
X82409843Y-100710284D01*
X82409839Y-100710284D01*
X82281070Y-100727237D01*
X82122162Y-100748158D01*
X82118022Y-100749291D01*
X82118020Y-100749291D01*
X82006030Y-100779928D01*
X81838153Y-100825854D01*
X81567317Y-100941375D01*
X81474179Y-100997117D01*
X81318346Y-101090381D01*
X81318342Y-101090384D01*
X81314664Y-101092585D01*
X81084871Y-101276684D01*
X81081927Y-101279786D01*
X81081923Y-101279790D01*
X81010862Y-101354673D01*
X80882189Y-101490266D01*
X80710368Y-101729380D01*
X80680591Y-101785619D01*
X80575788Y-101983559D01*
X80572589Y-101989600D01*
X80571117Y-101993623D01*
X80571115Y-101993627D01*
X80472875Y-102262080D01*
X80471400Y-102266111D01*
X80408675Y-102553797D01*
X80385573Y-102847333D01*
X80402522Y-103141290D01*
X80403347Y-103145495D01*
X80403348Y-103145503D01*
X80423065Y-103246000D01*
X80459209Y-103430226D01*
X80460596Y-103434276D01*
X80460597Y-103434281D01*
X80535574Y-103653269D01*
X80554585Y-103708795D01*
X80686884Y-103971844D01*
X80689310Y-103975373D01*
X80689313Y-103975379D01*
X80777360Y-104103487D01*
X80853659Y-104214503D01*
X80856546Y-104217676D01*
X80856547Y-104217677D01*
X81027965Y-104406062D01*
X81051824Y-104432283D01*
X81277712Y-104621154D01*
X81281353Y-104623438D01*
X81523502Y-104775339D01*
X81523506Y-104775341D01*
X81527142Y-104777622D01*
X81795500Y-104898790D01*
X81858397Y-104917421D01*
X82073706Y-104981199D01*
X82073711Y-104981200D01*
X82077819Y-104982417D01*
X82082053Y-104983065D01*
X82082058Y-104983066D01*
X82339396Y-105022444D01*
X82368875Y-105026955D01*
X82518772Y-105029310D01*
X82658993Y-105031513D01*
X82658999Y-105031513D01*
X82663284Y-105031580D01*
X82955595Y-104996206D01*
X83240402Y-104921488D01*
X83512433Y-104808809D01*
X83562782Y-104779388D01*
X83762957Y-104662415D01*
X83762958Y-104662415D01*
X83766655Y-104660254D01*
X83770015Y-104657620D01*
X83770023Y-104657614D01*
X83994992Y-104481215D01*
X83998364Y-104478571D01*
X84203272Y-104267123D01*
X84205805Y-104263675D01*
X84205809Y-104263670D01*
X84349924Y-104067481D01*
X84406373Y-104024422D01*
X84477140Y-104018717D01*
X84539757Y-104052178D01*
X84574344Y-104114180D01*
X84576371Y-104133323D01*
X84576309Y-104133724D01*
X84576860Y-104137938D01*
X84577462Y-104143620D01*
X84577450Y-104144571D01*
X84577697Y-104147270D01*
X84578928Y-104170745D01*
X84592468Y-104429107D01*
X84594039Y-104459092D01*
X84594554Y-104462343D01*
X84635641Y-104721757D01*
X84644024Y-104774689D01*
X84726725Y-105083331D01*
X84841234Y-105381638D01*
X84986298Y-105666342D01*
X85160327Y-105934323D01*
X85162405Y-105936889D01*
X85352390Y-106171500D01*
X85361414Y-106182644D01*
X85587356Y-106408586D01*
X85835677Y-106609673D01*
X86103658Y-106783702D01*
X86388362Y-106928766D01*
X86686669Y-107043275D01*
X86995311Y-107125976D01*
X86998561Y-107126491D01*
X86998567Y-107126492D01*
X87232334Y-107163516D01*
X87310908Y-107175961D01*
X87314191Y-107176133D01*
X87314200Y-107176134D01*
X87458753Y-107183709D01*
X87596872Y-107190948D01*
X87611183Y-107192522D01*
X87617448Y-107193576D01*
X87623724Y-107193653D01*
X87625140Y-107193670D01*
X87625143Y-107193670D01*
X87630000Y-107193729D01*
X87657624Y-107189773D01*
X87675486Y-107188500D01*
X92713324Y-107188500D01*
X92781445Y-107208502D01*
X92827938Y-107262158D01*
X92838042Y-107332432D01*
X92808548Y-107397012D01*
X92778030Y-107422616D01*
X92748346Y-107440381D01*
X92748342Y-107440384D01*
X92744664Y-107442585D01*
X92514871Y-107626684D01*
X92511927Y-107629786D01*
X92511923Y-107629790D01*
X92464974Y-107679264D01*
X92312189Y-107840266D01*
X92140368Y-108079380D01*
X92002589Y-108339600D01*
X92001117Y-108343623D01*
X92001115Y-108343627D01*
X91920898Y-108562831D01*
X91901400Y-108616111D01*
X91838675Y-108903797D01*
X91838339Y-108908067D01*
X91818952Y-109154405D01*
X91815573Y-109197333D01*
X91832522Y-109491290D01*
X91833347Y-109495495D01*
X91833348Y-109495503D01*
X91862485Y-109644011D01*
X91889209Y-109780226D01*
X91890596Y-109784276D01*
X91890597Y-109784281D01*
X91983196Y-110054739D01*
X91984585Y-110058795D01*
X92018464Y-110126157D01*
X92088785Y-110265974D01*
X92116884Y-110321844D01*
X92119310Y-110325373D01*
X92119313Y-110325379D01*
X92210938Y-110458694D01*
X92283659Y-110564503D01*
X92481824Y-110782283D01*
X92707712Y-110971154D01*
X92711353Y-110973438D01*
X92953502Y-111125339D01*
X92953506Y-111125341D01*
X92957142Y-111127622D01*
X92961052Y-111129387D01*
X92961053Y-111129388D01*
X92993805Y-111144176D01*
X93225500Y-111248790D01*
X93229619Y-111250010D01*
X93503706Y-111331199D01*
X93503711Y-111331200D01*
X93507819Y-111332417D01*
X93512053Y-111333065D01*
X93512058Y-111333066D01*
X93769396Y-111372444D01*
X93798875Y-111376955D01*
X93948772Y-111379310D01*
X94088993Y-111381513D01*
X94088999Y-111381513D01*
X94093284Y-111381580D01*
X94385595Y-111346206D01*
X94633432Y-111281187D01*
X94666259Y-111272575D01*
X94666260Y-111272575D01*
X94670402Y-111271488D01*
X94942433Y-111158809D01*
X94959076Y-111149084D01*
X95192957Y-111012415D01*
X95192958Y-111012415D01*
X95196655Y-111010254D01*
X95200015Y-111007620D01*
X95200023Y-111007614D01*
X95424992Y-110831215D01*
X95428364Y-110828571D01*
X95633272Y-110617123D01*
X95635805Y-110613675D01*
X95635809Y-110613670D01*
X95783953Y-110411996D01*
X95840402Y-110368937D01*
X95911169Y-110363232D01*
X95973786Y-110396692D01*
X96008373Y-110458694D01*
X96011500Y-110486590D01*
X96011500Y-121926448D01*
X95991498Y-121994569D01*
X95937842Y-122041062D01*
X95867568Y-122051166D01*
X95802988Y-122021672D01*
X95782413Y-121998898D01*
X95664637Y-121831319D01*
X95664631Y-121831312D01*
X95662168Y-121827807D01*
X95461734Y-121612114D01*
X95458419Y-121609400D01*
X95458415Y-121609397D01*
X95237199Y-121428334D01*
X95233881Y-121425618D01*
X94982826Y-121271772D01*
X94713214Y-121153420D01*
X94430034Y-121072755D01*
X94138527Y-121031267D01*
X93983376Y-121030454D01*
X93848373Y-121029747D01*
X93848366Y-121029747D01*
X93844087Y-121029725D01*
X93839843Y-121030284D01*
X93839839Y-121030284D01*
X93711070Y-121047237D01*
X93552162Y-121068158D01*
X93548022Y-121069291D01*
X93548020Y-121069291D01*
X93272298Y-121144720D01*
X93268153Y-121145854D01*
X92997317Y-121261375D01*
X92844880Y-121352607D01*
X92748346Y-121410381D01*
X92748342Y-121410384D01*
X92744664Y-121412585D01*
X92514871Y-121596684D01*
X92511927Y-121599786D01*
X92511923Y-121599790D01*
X92422443Y-121694083D01*
X92312189Y-121810266D01*
X92140368Y-122049380D01*
X92002589Y-122309600D01*
X92001117Y-122313623D01*
X92001115Y-122313627D01*
X91993515Y-122334396D01*
X91901400Y-122586111D01*
X91838675Y-122873797D01*
X91815573Y-123167333D01*
X91832522Y-123461290D01*
X91833347Y-123465495D01*
X91833348Y-123465503D01*
X91866060Y-123632233D01*
X91889209Y-123750226D01*
X91890596Y-123754276D01*
X91890597Y-123754281D01*
X91912973Y-123819635D01*
X91984585Y-124028795D01*
X92050734Y-124160319D01*
X92093832Y-124246009D01*
X92116884Y-124291844D01*
X92119310Y-124295373D01*
X92119313Y-124295379D01*
X92210938Y-124428694D01*
X92283659Y-124534503D01*
X92481824Y-124752283D01*
X92707712Y-124941154D01*
X92711353Y-124943438D01*
X92953502Y-125095339D01*
X92953506Y-125095341D01*
X92957142Y-125097622D01*
X93225500Y-125218790D01*
X93229619Y-125220010D01*
X93503706Y-125301199D01*
X93503711Y-125301200D01*
X93507819Y-125302417D01*
X93512053Y-125303065D01*
X93512058Y-125303066D01*
X93769396Y-125342444D01*
X93798875Y-125346955D01*
X93948772Y-125349310D01*
X94088993Y-125351513D01*
X94088999Y-125351513D01*
X94093284Y-125351580D01*
X94385595Y-125316206D01*
X94670402Y-125241488D01*
X94942433Y-125128809D01*
X94946871Y-125126216D01*
X95192957Y-124982415D01*
X95192958Y-124982415D01*
X95196655Y-124980254D01*
X95200015Y-124977620D01*
X95200023Y-124977614D01*
X95424992Y-124801215D01*
X95428364Y-124798571D01*
X95633272Y-124587123D01*
X95635805Y-124583675D01*
X95635809Y-124583670D01*
X95783953Y-124381996D01*
X95840402Y-124338937D01*
X95911169Y-124333232D01*
X95973786Y-124366692D01*
X96008373Y-124428694D01*
X96011500Y-124456590D01*
X96011500Y-132030633D01*
X96010000Y-132050018D01*
X96007690Y-132064851D01*
X96007690Y-132064855D01*
X96006309Y-132073724D01*
X96007473Y-132082626D01*
X96007473Y-132082629D01*
X96008439Y-132090012D01*
X96009233Y-132114591D01*
X95994660Y-132336922D01*
X95992509Y-132353262D01*
X95943889Y-132597693D01*
X95939625Y-132613606D01*
X95905312Y-132714689D01*
X95859516Y-132849600D01*
X95853209Y-132864826D01*
X95742984Y-133088342D01*
X95734743Y-133102616D01*
X95596287Y-133309829D01*
X95586254Y-133322905D01*
X95421932Y-133510278D01*
X95410278Y-133521932D01*
X95222905Y-133686254D01*
X95209829Y-133696287D01*
X95002616Y-133834743D01*
X94988342Y-133842984D01*
X94764826Y-133953209D01*
X94749602Y-133959515D01*
X94513606Y-134039625D01*
X94497696Y-134043888D01*
X94375478Y-134068199D01*
X94253262Y-134092509D01*
X94236922Y-134094660D01*
X94088134Y-134104413D01*
X94021763Y-134108763D01*
X93998650Y-134107733D01*
X93995146Y-134107690D01*
X93986276Y-134106309D01*
X93977374Y-134107473D01*
X93977372Y-134107473D01*
X93963915Y-134109233D01*
X93954714Y-134110436D01*
X93938379Y-134111500D01*
X53389367Y-134111500D01*
X53369982Y-134110000D01*
X53355149Y-134107690D01*
X53355145Y-134107690D01*
X53346276Y-134106309D01*
X53337374Y-134107473D01*
X53337371Y-134107473D01*
X53329988Y-134108439D01*
X53305409Y-134109233D01*
X53260799Y-134106309D01*
X53083078Y-134094660D01*
X53066738Y-134092509D01*
X52944522Y-134068199D01*
X52822304Y-134043888D01*
X52806394Y-134039625D01*
X52570398Y-133959515D01*
X52555174Y-133953209D01*
X52331658Y-133842984D01*
X52317384Y-133834743D01*
X52110171Y-133696287D01*
X52097095Y-133686254D01*
X51909722Y-133521932D01*
X51898068Y-133510278D01*
X51733746Y-133322905D01*
X51723713Y-133309829D01*
X51585257Y-133102616D01*
X51577016Y-133088342D01*
X51466791Y-132864826D01*
X51460484Y-132849600D01*
X51414688Y-132714689D01*
X51380375Y-132613606D01*
X51376111Y-132597693D01*
X51327491Y-132353262D01*
X51325340Y-132336922D01*
X51311476Y-132125407D01*
X51312650Y-132102232D01*
X51312334Y-132102204D01*
X51312770Y-132097344D01*
X51313576Y-132092552D01*
X51313729Y-132080000D01*
X51309773Y-132052376D01*
X51308500Y-132034514D01*
X51308500Y-130999134D01*
X53256500Y-130999134D01*
X53263255Y-131061316D01*
X53314385Y-131197705D01*
X53401739Y-131314261D01*
X53518295Y-131401615D01*
X53654684Y-131452745D01*
X53716866Y-131459500D01*
X56353134Y-131459500D01*
X56415316Y-131452745D01*
X56551705Y-131401615D01*
X56668261Y-131314261D01*
X56755615Y-131197705D01*
X56806745Y-131061316D01*
X56813500Y-130999134D01*
X56813500Y-130502068D01*
X56833502Y-130433947D01*
X56887158Y-130387454D01*
X56957432Y-130377350D01*
X56965698Y-130378822D01*
X57048049Y-130396327D01*
X57048058Y-130396328D01*
X57054513Y-130397700D01*
X57245487Y-130397700D01*
X57251939Y-130396328D01*
X57251944Y-130396328D01*
X57341226Y-130377350D01*
X57432288Y-130357994D01*
X57457206Y-130346900D01*
X57600722Y-130283003D01*
X57600724Y-130283002D01*
X57606752Y-130280318D01*
X57639681Y-130256394D01*
X57742896Y-130181403D01*
X57761253Y-130168066D01*
X57803497Y-130121149D01*
X57884621Y-130031052D01*
X57884622Y-130031051D01*
X57889040Y-130026144D01*
X57984527Y-129860756D01*
X58043542Y-129679128D01*
X58048222Y-129634606D01*
X58062814Y-129495765D01*
X58063504Y-129489200D01*
X58043542Y-129299272D01*
X57984527Y-129117644D01*
X57889040Y-128952256D01*
X57838881Y-128896548D01*
X57765675Y-128815245D01*
X57765674Y-128815244D01*
X57761253Y-128810334D01*
X57755912Y-128806454D01*
X57755907Y-128806449D01*
X57736618Y-128792435D01*
X57693265Y-128736213D01*
X57687190Y-128665476D01*
X57720322Y-128602685D01*
X57782143Y-128567774D01*
X57810680Y-128564500D01*
X57858121Y-128564500D01*
X57860257Y-128564354D01*
X57860268Y-128564354D01*
X58070949Y-128549991D01*
X58070955Y-128549990D01*
X58075226Y-128549699D01*
X58079421Y-128548830D01*
X58079423Y-128548830D01*
X58280540Y-128507181D01*
X58360081Y-128490709D01*
X58634295Y-128393605D01*
X58714410Y-128352255D01*
X58888986Y-128262149D01*
X58888987Y-128262149D01*
X58892793Y-128260184D01*
X58896294Y-128257723D01*
X58896298Y-128257721D01*
X59011793Y-128176549D01*
X59130792Y-128092915D01*
X59267064Y-127966283D01*
X59340745Y-127897815D01*
X59340748Y-127897812D01*
X59343888Y-127894894D01*
X59354895Y-127881447D01*
X59505767Y-127697117D01*
X59528139Y-127669784D01*
X59680133Y-127421752D01*
X59682440Y-127416498D01*
X59750669Y-127261065D01*
X59797059Y-127155386D01*
X59803073Y-127134276D01*
X59823052Y-127064137D01*
X59876754Y-126875616D01*
X59879286Y-126857829D01*
X59917137Y-126591870D01*
X59917742Y-126587619D01*
X59917859Y-126565277D01*
X67080735Y-126565277D01*
X67118705Y-126853687D01*
X67195465Y-127134276D01*
X67197149Y-127138224D01*
X67291490Y-127359402D01*
X67309596Y-127401852D01*
X67458985Y-127651462D01*
X67461669Y-127654813D01*
X67461671Y-127654815D01*
X67476322Y-127673102D01*
X67640867Y-127878489D01*
X67851878Y-128078731D01*
X68088113Y-128248483D01*
X68345200Y-128384603D01*
X68349223Y-128386075D01*
X68349227Y-128386077D01*
X68611064Y-128481896D01*
X68618382Y-128484574D01*
X68902604Y-128546544D01*
X68923035Y-128548152D01*
X69045998Y-128557830D01*
X69112340Y-128583116D01*
X69154479Y-128640254D01*
X69159038Y-128711104D01*
X69129750Y-128767749D01*
X69009360Y-128901456D01*
X68913873Y-129066844D01*
X68854858Y-129248472D01*
X68854168Y-129255033D01*
X68854168Y-129255035D01*
X68849519Y-129299272D01*
X68834896Y-129438400D01*
X68835586Y-129444965D01*
X68850179Y-129583806D01*
X68854858Y-129628328D01*
X68913873Y-129809956D01*
X69009360Y-129975344D01*
X69013778Y-129980251D01*
X69013779Y-129980252D01*
X69094903Y-130070349D01*
X69137147Y-130117266D01*
X69216386Y-130174837D01*
X69276840Y-130218759D01*
X69291648Y-130229518D01*
X69297676Y-130232202D01*
X69297678Y-130232203D01*
X69441194Y-130296100D01*
X69466112Y-130307194D01*
X69557174Y-130326550D01*
X69646456Y-130345528D01*
X69646461Y-130345528D01*
X69652913Y-130346900D01*
X69843887Y-130346900D01*
X69850339Y-130345528D01*
X69850344Y-130345528D01*
X70030688Y-130307194D01*
X70031107Y-130309163D01*
X70092519Y-130307402D01*
X70153321Y-130344058D01*
X70184652Y-130407767D01*
X70186500Y-130429266D01*
X70186500Y-130999134D01*
X70193255Y-131061316D01*
X70244385Y-131197705D01*
X70331739Y-131314261D01*
X70448295Y-131401615D01*
X70584684Y-131452745D01*
X70646866Y-131459500D01*
X73283134Y-131459500D01*
X73345316Y-131452745D01*
X73481705Y-131401615D01*
X73598261Y-131314261D01*
X73603642Y-131307081D01*
X73609992Y-131300731D01*
X73612533Y-131303272D01*
X73655708Y-131271028D01*
X73726530Y-131266043D01*
X73775172Y-131288307D01*
X73838295Y-131335615D01*
X73974684Y-131386745D01*
X74036866Y-131393500D01*
X76673134Y-131393500D01*
X76735316Y-131386745D01*
X76871705Y-131335615D01*
X76988261Y-131248261D01*
X77075615Y-131131705D01*
X77126745Y-130995316D01*
X77133500Y-130933134D01*
X77133500Y-130451268D01*
X77153502Y-130383147D01*
X77207158Y-130336654D01*
X77277432Y-130326550D01*
X77285698Y-130328022D01*
X77368049Y-130345527D01*
X77368058Y-130345528D01*
X77374513Y-130346900D01*
X77565487Y-130346900D01*
X77571939Y-130345528D01*
X77571944Y-130345528D01*
X77661226Y-130326550D01*
X77752288Y-130307194D01*
X77777206Y-130296100D01*
X77920722Y-130232203D01*
X77920724Y-130232202D01*
X77926752Y-130229518D01*
X77941561Y-130218759D01*
X78002014Y-130174837D01*
X78081253Y-130117266D01*
X78123497Y-130070349D01*
X78204621Y-129980252D01*
X78204622Y-129980251D01*
X78209040Y-129975344D01*
X78304527Y-129809956D01*
X78363542Y-129628328D01*
X78368222Y-129583806D01*
X78382814Y-129444965D01*
X78383504Y-129438400D01*
X78368881Y-129299272D01*
X78364232Y-129255035D01*
X78364232Y-129255033D01*
X78363542Y-129248472D01*
X78304527Y-129066844D01*
X78209040Y-128901456D01*
X78158881Y-128845748D01*
X78085675Y-128764445D01*
X78085674Y-128764444D01*
X78081253Y-128759534D01*
X78035698Y-128726436D01*
X77992344Y-128670213D01*
X77986269Y-128599477D01*
X78019401Y-128536685D01*
X78081221Y-128501774D01*
X78109759Y-128498500D01*
X78178121Y-128498500D01*
X78180257Y-128498354D01*
X78180268Y-128498354D01*
X78390949Y-128483991D01*
X78390955Y-128483990D01*
X78395226Y-128483699D01*
X78399421Y-128482830D01*
X78399423Y-128482830D01*
X78537654Y-128454204D01*
X78680081Y-128424709D01*
X78954295Y-128327605D01*
X79034410Y-128286255D01*
X79208986Y-128196149D01*
X79208987Y-128196149D01*
X79212793Y-128194184D01*
X79216294Y-128191723D01*
X79216298Y-128191721D01*
X79373508Y-128081231D01*
X79450792Y-128026915D01*
X79589720Y-127897815D01*
X79660745Y-127831815D01*
X79660748Y-127831812D01*
X79663888Y-127828894D01*
X79674895Y-127815447D01*
X79816566Y-127642358D01*
X79848139Y-127603784D01*
X80000133Y-127355752D01*
X80008869Y-127335852D01*
X80088087Y-127155386D01*
X80117059Y-127089386D01*
X80123073Y-127068276D01*
X80142782Y-126999087D01*
X80196754Y-126809616D01*
X80199286Y-126791829D01*
X80237137Y-126525870D01*
X80237742Y-126521619D01*
X80237859Y-126499277D01*
X87400735Y-126499277D01*
X87438705Y-126787687D01*
X87515465Y-127068276D01*
X87517149Y-127072224D01*
X87597697Y-127261065D01*
X87629596Y-127335852D01*
X87778985Y-127585462D01*
X87781669Y-127588813D01*
X87781671Y-127588815D01*
X87863624Y-127691109D01*
X87960867Y-127812489D01*
X88171878Y-128012731D01*
X88408113Y-128182483D01*
X88433924Y-128196149D01*
X88558577Y-128262149D01*
X88665200Y-128318603D01*
X88669223Y-128320075D01*
X88669227Y-128320077D01*
X88934351Y-128417099D01*
X88938382Y-128418574D01*
X89222604Y-128480544D01*
X89239783Y-128481896D01*
X89306124Y-128507181D01*
X89348264Y-128564319D01*
X89352823Y-128635169D01*
X89314210Y-128701142D01*
X89310089Y-128704853D01*
X89304747Y-128708734D01*
X89300326Y-128713644D01*
X89259007Y-128759534D01*
X89176960Y-128850656D01*
X89081473Y-129016044D01*
X89022458Y-129197672D01*
X89021768Y-129204233D01*
X89021768Y-129204235D01*
X89011090Y-129305835D01*
X89002496Y-129387600D01*
X89022458Y-129577528D01*
X89081473Y-129759156D01*
X89176960Y-129924544D01*
X89181378Y-129929451D01*
X89181379Y-129929452D01*
X89263292Y-130020426D01*
X89304747Y-130066466D01*
X89459248Y-130178718D01*
X89465276Y-130181402D01*
X89465278Y-130181403D01*
X89591998Y-130237822D01*
X89633712Y-130256394D01*
X89727112Y-130276247D01*
X89814056Y-130294728D01*
X89814061Y-130294728D01*
X89820513Y-130296100D01*
X90011487Y-130296100D01*
X90017939Y-130294728D01*
X90017944Y-130294728D01*
X90104888Y-130276247D01*
X90198288Y-130256394D01*
X90204315Y-130253711D01*
X90204323Y-130253708D01*
X90329252Y-130198086D01*
X90399619Y-130188652D01*
X90463916Y-130218759D01*
X90501729Y-130278848D01*
X90506500Y-130313193D01*
X90506500Y-130933134D01*
X90513255Y-130995316D01*
X90564385Y-131131705D01*
X90651739Y-131248261D01*
X90768295Y-131335615D01*
X90904684Y-131386745D01*
X90966866Y-131393500D01*
X93603134Y-131393500D01*
X93665316Y-131386745D01*
X93801705Y-131335615D01*
X93918261Y-131248261D01*
X94005615Y-131131705D01*
X94056745Y-130995316D01*
X94063500Y-130933134D01*
X94063500Y-127896866D01*
X94056745Y-127834684D01*
X94005615Y-127698295D01*
X93918261Y-127581739D01*
X93801705Y-127494385D01*
X93665316Y-127443255D01*
X93603134Y-127436500D01*
X91587603Y-127436500D01*
X91519482Y-127416498D01*
X91472989Y-127362842D01*
X91462885Y-127292568D01*
X91472229Y-127259855D01*
X91518087Y-127155386D01*
X91547059Y-127089386D01*
X91553073Y-127068276D01*
X91572782Y-126999087D01*
X91626754Y-126809616D01*
X91629286Y-126791829D01*
X91667137Y-126525870D01*
X91667742Y-126521619D01*
X91668897Y-126301009D01*
X91669243Y-126235009D01*
X91669243Y-126235003D01*
X91669265Y-126230723D01*
X91631295Y-125942313D01*
X91554535Y-125661724D01*
X91470241Y-125464100D01*
X91442090Y-125398100D01*
X91442088Y-125398096D01*
X91440404Y-125394148D01*
X91291015Y-125144538D01*
X91276337Y-125126216D01*
X91129904Y-124943438D01*
X91109133Y-124917511D01*
X90898122Y-124717269D01*
X90661887Y-124547517D01*
X90482676Y-124452630D01*
X90408587Y-124413402D01*
X90408586Y-124413401D01*
X90404800Y-124411397D01*
X90400777Y-124409925D01*
X90400773Y-124409923D01*
X90135649Y-124312901D01*
X90135647Y-124312900D01*
X90131618Y-124311426D01*
X89847396Y-124249456D01*
X89803598Y-124246009D01*
X89621703Y-124231693D01*
X89621696Y-124231693D01*
X89619247Y-124231500D01*
X89461879Y-124231500D01*
X89459743Y-124231646D01*
X89459732Y-124231646D01*
X89249051Y-124246009D01*
X89249045Y-124246010D01*
X89244774Y-124246301D01*
X89240579Y-124247170D01*
X89240577Y-124247170D01*
X89225130Y-124250369D01*
X88959919Y-124305291D01*
X88685705Y-124402395D01*
X88681896Y-124404361D01*
X88540392Y-124477397D01*
X88427207Y-124535816D01*
X88423706Y-124538277D01*
X88423702Y-124538279D01*
X88410558Y-124547517D01*
X88189208Y-124703085D01*
X88136265Y-124752283D01*
X88083608Y-124801215D01*
X87976112Y-124901106D01*
X87973398Y-124904422D01*
X87973395Y-124904425D01*
X87859426Y-125043668D01*
X87791861Y-125126216D01*
X87639867Y-125374248D01*
X87638148Y-125378165D01*
X87638146Y-125378168D01*
X87629397Y-125398100D01*
X87522941Y-125640614D01*
X87521765Y-125644742D01*
X87521764Y-125644745D01*
X87499252Y-125723776D01*
X87443246Y-125920384D01*
X87442642Y-125924626D01*
X87442641Y-125924632D01*
X87433248Y-125990632D01*
X87402258Y-126208381D01*
X87400735Y-126499277D01*
X80237859Y-126499277D01*
X80238897Y-126301009D01*
X80239243Y-126235009D01*
X80239243Y-126235003D01*
X80239265Y-126230723D01*
X80201295Y-125942313D01*
X80124535Y-125661724D01*
X80040241Y-125464100D01*
X80012090Y-125398100D01*
X80012088Y-125398096D01*
X80010404Y-125394148D01*
X79861015Y-125144538D01*
X79846337Y-125126216D01*
X79699904Y-124943438D01*
X79679133Y-124917511D01*
X79468122Y-124717269D01*
X79231887Y-124547517D01*
X79052676Y-124452630D01*
X78978587Y-124413402D01*
X78978586Y-124413401D01*
X78974800Y-124411397D01*
X78970777Y-124409925D01*
X78970773Y-124409923D01*
X78705649Y-124312901D01*
X78705647Y-124312900D01*
X78701618Y-124311426D01*
X78417396Y-124249456D01*
X78373598Y-124246009D01*
X78191703Y-124231693D01*
X78191696Y-124231693D01*
X78189247Y-124231500D01*
X78031879Y-124231500D01*
X78029743Y-124231646D01*
X78029732Y-124231646D01*
X77819051Y-124246009D01*
X77819045Y-124246010D01*
X77814774Y-124246301D01*
X77810579Y-124247170D01*
X77810577Y-124247170D01*
X77795130Y-124250369D01*
X77529919Y-124305291D01*
X77255705Y-124402395D01*
X77251896Y-124404361D01*
X77110392Y-124477397D01*
X76997207Y-124535816D01*
X76993706Y-124538277D01*
X76993702Y-124538279D01*
X76980558Y-124547517D01*
X76759208Y-124703085D01*
X76706265Y-124752283D01*
X76653608Y-124801215D01*
X76546112Y-124901106D01*
X76543398Y-124904422D01*
X76543395Y-124904425D01*
X76429426Y-125043668D01*
X76361861Y-125126216D01*
X76209867Y-125374248D01*
X76208148Y-125378165D01*
X76208146Y-125378168D01*
X76199397Y-125398100D01*
X76092941Y-125640614D01*
X76091765Y-125644742D01*
X76091764Y-125644745D01*
X76069252Y-125723776D01*
X76013246Y-125920384D01*
X76012642Y-125924626D01*
X76012641Y-125924632D01*
X76003248Y-125990632D01*
X75972258Y-126208381D01*
X75970735Y-126499277D01*
X76008705Y-126787687D01*
X76085465Y-127068276D01*
X76167181Y-127259855D01*
X76167697Y-127261065D01*
X76176026Y-127331572D01*
X76144913Y-127395388D01*
X76084238Y-127432253D01*
X76051800Y-127436500D01*
X74036866Y-127436500D01*
X73974684Y-127443255D01*
X73838295Y-127494385D01*
X73721739Y-127581739D01*
X73716358Y-127588919D01*
X73710008Y-127595269D01*
X73707467Y-127592728D01*
X73664292Y-127624972D01*
X73593470Y-127629957D01*
X73544828Y-127607693D01*
X73510248Y-127581777D01*
X73481705Y-127560385D01*
X73345316Y-127509255D01*
X73283134Y-127502500D01*
X71267603Y-127502500D01*
X71199482Y-127482498D01*
X71152989Y-127428842D01*
X71142885Y-127358568D01*
X71152229Y-127325855D01*
X71225334Y-127159315D01*
X71227059Y-127155386D01*
X71233073Y-127134276D01*
X71253052Y-127064137D01*
X71306754Y-126875616D01*
X71309286Y-126857829D01*
X71347137Y-126591870D01*
X71347742Y-126587619D01*
X71349265Y-126296723D01*
X71311295Y-126008313D01*
X71234535Y-125727724D01*
X71120404Y-125460148D01*
X70971015Y-125210538D01*
X70956337Y-125192216D01*
X70791823Y-124986869D01*
X70789133Y-124983511D01*
X70594247Y-124798571D01*
X70581231Y-124786219D01*
X70581228Y-124786217D01*
X70578122Y-124783269D01*
X70341887Y-124613517D01*
X70192655Y-124534503D01*
X70088587Y-124479402D01*
X70088586Y-124479401D01*
X70084800Y-124477397D01*
X70080777Y-124475925D01*
X70080773Y-124475923D01*
X69815649Y-124378901D01*
X69815647Y-124378900D01*
X69811618Y-124377426D01*
X69527396Y-124315456D01*
X69464578Y-124310512D01*
X69301703Y-124297693D01*
X69301696Y-124297693D01*
X69299247Y-124297500D01*
X69141879Y-124297500D01*
X69139743Y-124297646D01*
X69139732Y-124297646D01*
X68929051Y-124312009D01*
X68929045Y-124312010D01*
X68924774Y-124312301D01*
X68920579Y-124313170D01*
X68920577Y-124313170D01*
X68823701Y-124333232D01*
X68639919Y-124371291D01*
X68365705Y-124468395D01*
X68361896Y-124470361D01*
X68207566Y-124550017D01*
X68107207Y-124601816D01*
X68103706Y-124604277D01*
X68103702Y-124604279D01*
X68090558Y-124613517D01*
X67869208Y-124769085D01*
X67866067Y-124772004D01*
X67681582Y-124943438D01*
X67656112Y-124967106D01*
X67653398Y-124970422D01*
X67653395Y-124970425D01*
X67639936Y-124986869D01*
X67471861Y-125192216D01*
X67319867Y-125440248D01*
X67318148Y-125444165D01*
X67318146Y-125444168D01*
X67309397Y-125464100D01*
X67202941Y-125706614D01*
X67201765Y-125710742D01*
X67201764Y-125710745D01*
X67177218Y-125796913D01*
X67123246Y-125986384D01*
X67122642Y-125990626D01*
X67122641Y-125990632D01*
X67120125Y-126008313D01*
X67082258Y-126274381D01*
X67082141Y-126296723D01*
X67080964Y-126521619D01*
X67080735Y-126565277D01*
X59917859Y-126565277D01*
X59919265Y-126296723D01*
X59881295Y-126008313D01*
X59804535Y-125727724D01*
X59690404Y-125460148D01*
X59541015Y-125210538D01*
X59526337Y-125192216D01*
X59361823Y-124986869D01*
X59359133Y-124983511D01*
X59164247Y-124798571D01*
X59151231Y-124786219D01*
X59151228Y-124786217D01*
X59148122Y-124783269D01*
X58911887Y-124613517D01*
X58762655Y-124534503D01*
X58658587Y-124479402D01*
X58658586Y-124479401D01*
X58654800Y-124477397D01*
X58650777Y-124475925D01*
X58650773Y-124475923D01*
X58385649Y-124378901D01*
X58385647Y-124378900D01*
X58381618Y-124377426D01*
X58097396Y-124315456D01*
X58034578Y-124310512D01*
X57871703Y-124297693D01*
X57871696Y-124297693D01*
X57869247Y-124297500D01*
X57711879Y-124297500D01*
X57709743Y-124297646D01*
X57709732Y-124297646D01*
X57499051Y-124312009D01*
X57499045Y-124312010D01*
X57494774Y-124312301D01*
X57490579Y-124313170D01*
X57490577Y-124313170D01*
X57393701Y-124333232D01*
X57209919Y-124371291D01*
X56935705Y-124468395D01*
X56931896Y-124470361D01*
X56777566Y-124550017D01*
X56677207Y-124601816D01*
X56673706Y-124604277D01*
X56673702Y-124604279D01*
X56660558Y-124613517D01*
X56439208Y-124769085D01*
X56436067Y-124772004D01*
X56251582Y-124943438D01*
X56226112Y-124967106D01*
X56223398Y-124970422D01*
X56223395Y-124970425D01*
X56209936Y-124986869D01*
X56041861Y-125192216D01*
X55889867Y-125440248D01*
X55888148Y-125444165D01*
X55888146Y-125444168D01*
X55879397Y-125464100D01*
X55772941Y-125706614D01*
X55771765Y-125710742D01*
X55771764Y-125710745D01*
X55747218Y-125796913D01*
X55693246Y-125986384D01*
X55692642Y-125990626D01*
X55692641Y-125990632D01*
X55690125Y-126008313D01*
X55652258Y-126274381D01*
X55652141Y-126296723D01*
X55650964Y-126521619D01*
X55650735Y-126565277D01*
X55688705Y-126853687D01*
X55765465Y-127134276D01*
X55847181Y-127325855D01*
X55847697Y-127327065D01*
X55856026Y-127397572D01*
X55824913Y-127461388D01*
X55764238Y-127498253D01*
X55731800Y-127502500D01*
X53716866Y-127502500D01*
X53654684Y-127509255D01*
X53518295Y-127560385D01*
X53401739Y-127647739D01*
X53314385Y-127764295D01*
X53263255Y-127900684D01*
X53256500Y-127962866D01*
X53256500Y-130999134D01*
X51308500Y-130999134D01*
X51308500Y-124452630D01*
X51328502Y-124384509D01*
X51382158Y-124338016D01*
X51452432Y-124327912D01*
X51517012Y-124357406D01*
X51538340Y-124381263D01*
X51643659Y-124534503D01*
X51841824Y-124752283D01*
X52067712Y-124941154D01*
X52071353Y-124943438D01*
X52313502Y-125095339D01*
X52313506Y-125095341D01*
X52317142Y-125097622D01*
X52585500Y-125218790D01*
X52589619Y-125220010D01*
X52863706Y-125301199D01*
X52863711Y-125301200D01*
X52867819Y-125302417D01*
X52872053Y-125303065D01*
X52872058Y-125303066D01*
X53129396Y-125342444D01*
X53158875Y-125346955D01*
X53308772Y-125349310D01*
X53448993Y-125351513D01*
X53448999Y-125351513D01*
X53453284Y-125351580D01*
X53745595Y-125316206D01*
X54030402Y-125241488D01*
X54302433Y-125128809D01*
X54306871Y-125126216D01*
X54552957Y-124982415D01*
X54552958Y-124982415D01*
X54556655Y-124980254D01*
X54560015Y-124977620D01*
X54560023Y-124977614D01*
X54784992Y-124801215D01*
X54788364Y-124798571D01*
X54993272Y-124587123D01*
X54995805Y-124583675D01*
X54995809Y-124583670D01*
X55165049Y-124353277D01*
X55167587Y-124349822D01*
X55179483Y-124327912D01*
X55306033Y-124094835D01*
X55306034Y-124094833D01*
X55308083Y-124091059D01*
X55412162Y-123815623D01*
X55477897Y-123528610D01*
X55504071Y-123235331D01*
X55504546Y-123190000D01*
X55504377Y-123187520D01*
X55484811Y-122900514D01*
X55484810Y-122900508D01*
X55484519Y-122896237D01*
X55424810Y-122607911D01*
X55326522Y-122330355D01*
X55191475Y-122068707D01*
X55158419Y-122021672D01*
X55024631Y-121831312D01*
X55022168Y-121827807D01*
X54821734Y-121612114D01*
X54818419Y-121609400D01*
X54818415Y-121609397D01*
X54597199Y-121428334D01*
X54593881Y-121425618D01*
X54342826Y-121271772D01*
X54073214Y-121153420D01*
X53790034Y-121072755D01*
X53498527Y-121031267D01*
X53343376Y-121030454D01*
X53208373Y-121029747D01*
X53208366Y-121029747D01*
X53204087Y-121029725D01*
X53199843Y-121030284D01*
X53199839Y-121030284D01*
X53071070Y-121047237D01*
X52912162Y-121068158D01*
X52908022Y-121069291D01*
X52908020Y-121069291D01*
X52632298Y-121144720D01*
X52628153Y-121145854D01*
X52357317Y-121261375D01*
X52204880Y-121352607D01*
X52108346Y-121410381D01*
X52108342Y-121410384D01*
X52104664Y-121412585D01*
X51874871Y-121596684D01*
X51871927Y-121599786D01*
X51871923Y-121599790D01*
X51782443Y-121694083D01*
X51672189Y-121810266D01*
X51536821Y-121998651D01*
X51480828Y-122042297D01*
X51410124Y-122048743D01*
X51347160Y-122015940D01*
X51311926Y-121954304D01*
X51308500Y-121925123D01*
X51308500Y-110482630D01*
X51328502Y-110414509D01*
X51382158Y-110368016D01*
X51452432Y-110357912D01*
X51517012Y-110387406D01*
X51538340Y-110411263D01*
X51643659Y-110564503D01*
X51841824Y-110782283D01*
X52067712Y-110971154D01*
X52071353Y-110973438D01*
X52313502Y-111125339D01*
X52313506Y-111125341D01*
X52317142Y-111127622D01*
X52321052Y-111129387D01*
X52321053Y-111129388D01*
X52353805Y-111144176D01*
X52585500Y-111248790D01*
X52589619Y-111250010D01*
X52863706Y-111331199D01*
X52863711Y-111331200D01*
X52867819Y-111332417D01*
X52872053Y-111333065D01*
X52872058Y-111333066D01*
X53129396Y-111372444D01*
X53158875Y-111376955D01*
X53308772Y-111379310D01*
X53448993Y-111381513D01*
X53448999Y-111381513D01*
X53453284Y-111381580D01*
X53745595Y-111346206D01*
X53993432Y-111281187D01*
X54026259Y-111272575D01*
X54026260Y-111272575D01*
X54030402Y-111271488D01*
X54302433Y-111158809D01*
X54319076Y-111149084D01*
X54552957Y-111012415D01*
X54552958Y-111012415D01*
X54556655Y-111010254D01*
X54560015Y-111007620D01*
X54560023Y-111007614D01*
X54784992Y-110831215D01*
X54788364Y-110828571D01*
X54993272Y-110617123D01*
X54995805Y-110613675D01*
X54995809Y-110613670D01*
X55165049Y-110383277D01*
X55167587Y-110379822D01*
X55179483Y-110357912D01*
X55306033Y-110124835D01*
X55306034Y-110124833D01*
X55308083Y-110121059D01*
X55412162Y-109845623D01*
X55477897Y-109558610D01*
X55495196Y-109364771D01*
X55503851Y-109267799D01*
X55503851Y-109267792D01*
X55504071Y-109265331D01*
X55504415Y-109232552D01*
X55504520Y-109222484D01*
X55504520Y-109222483D01*
X55504546Y-109220000D01*
X55503494Y-109204564D01*
X55484811Y-108930514D01*
X55484810Y-108930508D01*
X55484519Y-108926237D01*
X55424810Y-108637911D01*
X55326522Y-108360355D01*
X55191475Y-108098707D01*
X55022168Y-107857807D01*
X54821734Y-107642114D01*
X54818419Y-107639400D01*
X54818415Y-107639397D01*
X54597199Y-107458334D01*
X54593881Y-107455618D01*
X54545022Y-107425677D01*
X54538912Y-107421933D01*
X54491281Y-107369285D01*
X54479674Y-107299244D01*
X54507777Y-107234046D01*
X54566667Y-107194392D01*
X54604747Y-107188500D01*
X59636750Y-107188500D01*
X59657655Y-107190246D01*
X59672656Y-107192770D01*
X59672659Y-107192770D01*
X59677448Y-107193576D01*
X59683525Y-107193650D01*
X59685135Y-107193670D01*
X59685139Y-107193670D01*
X59690000Y-107193729D01*
X59694815Y-107193040D01*
X59694823Y-107193039D01*
X59695904Y-107192884D01*
X59707170Y-107191784D01*
X59788873Y-107187502D01*
X60005799Y-107176134D01*
X60005807Y-107176133D01*
X60009092Y-107175961D01*
X60087666Y-107163516D01*
X60321433Y-107126492D01*
X60321439Y-107126491D01*
X60324689Y-107125976D01*
X60633331Y-107043275D01*
X60931638Y-106928766D01*
X61216342Y-106783702D01*
X61484323Y-106609673D01*
X61732644Y-106408586D01*
X61958586Y-106182644D01*
X61967611Y-106171500D01*
X62157595Y-105936889D01*
X62159673Y-105934323D01*
X62333702Y-105666342D01*
X62478766Y-105381638D01*
X62593275Y-105083331D01*
X62675976Y-104774689D01*
X62684360Y-104721757D01*
X62725446Y-104462343D01*
X62725961Y-104459092D01*
X62727533Y-104429107D01*
X62738779Y-104214503D01*
X62740948Y-104173128D01*
X62742522Y-104158817D01*
X62742769Y-104157348D01*
X62743576Y-104152552D01*
X62743729Y-104140000D01*
X62745737Y-104140024D01*
X62759438Y-104078977D01*
X62809969Y-104029106D01*
X62879441Y-104014471D01*
X62945796Y-104039718D01*
X62973466Y-104068721D01*
X63071229Y-104210967D01*
X63073659Y-104214503D01*
X63076546Y-104217676D01*
X63076547Y-104217677D01*
X63247965Y-104406062D01*
X63271824Y-104432283D01*
X63497712Y-104621154D01*
X63501353Y-104623438D01*
X63743502Y-104775339D01*
X63743506Y-104775341D01*
X63747142Y-104777622D01*
X64015500Y-104898790D01*
X64078397Y-104917421D01*
X64293706Y-104981199D01*
X64293711Y-104981200D01*
X64297819Y-104982417D01*
X64302053Y-104983065D01*
X64302058Y-104983066D01*
X64559396Y-105022444D01*
X64588875Y-105026955D01*
X64738772Y-105029310D01*
X64878993Y-105031513D01*
X64878999Y-105031513D01*
X64883284Y-105031580D01*
X65175595Y-104996206D01*
X65460402Y-104921488D01*
X65732433Y-104808809D01*
X65782782Y-104779388D01*
X65982957Y-104662415D01*
X65982958Y-104662415D01*
X65986655Y-104660254D01*
X65990015Y-104657620D01*
X65990023Y-104657614D01*
X66214992Y-104481215D01*
X66218364Y-104478571D01*
X66423272Y-104267123D01*
X66425805Y-104263675D01*
X66425809Y-104263670D01*
X66595049Y-104033277D01*
X66597587Y-104029822D01*
X66600519Y-104024422D01*
X66736033Y-103774835D01*
X66736034Y-103774833D01*
X66738083Y-103771059D01*
X66842162Y-103495623D01*
X66907897Y-103208610D01*
X66931063Y-102949038D01*
X66933851Y-102917799D01*
X66933851Y-102917792D01*
X66934071Y-102915331D01*
X66934546Y-102870000D01*
X66934099Y-102863441D01*
X66914811Y-102580514D01*
X66914810Y-102580508D01*
X66914519Y-102576237D01*
X66854810Y-102287911D01*
X66756522Y-102010355D01*
X66643882Y-101792120D01*
X66623440Y-101752514D01*
X66623440Y-101752513D01*
X66621475Y-101748707D01*
X66588419Y-101701672D01*
X66509976Y-101590060D01*
X66452168Y-101507807D01*
X66335093Y-101381819D01*
X66254655Y-101295257D01*
X66254652Y-101295254D01*
X66251734Y-101292114D01*
X66248419Y-101289400D01*
X66248415Y-101289397D01*
X66054804Y-101130928D01*
X66023881Y-101105618D01*
X65772826Y-100951772D01*
X65708253Y-100923426D01*
X65615932Y-100882900D01*
X65503214Y-100833420D01*
X65220034Y-100752755D01*
X64928527Y-100711267D01*
X64773376Y-100710454D01*
X64638373Y-100709747D01*
X64638366Y-100709747D01*
X64634087Y-100709725D01*
X64629843Y-100710284D01*
X64629839Y-100710284D01*
X64501070Y-100727237D01*
X64342162Y-100748158D01*
X64338022Y-100749291D01*
X64338020Y-100749291D01*
X64226030Y-100779928D01*
X64058153Y-100825854D01*
X63787317Y-100941375D01*
X63694179Y-100997117D01*
X63538346Y-101090381D01*
X63538342Y-101090384D01*
X63534664Y-101092585D01*
X63304871Y-101276684D01*
X63301927Y-101279786D01*
X63301923Y-101279790D01*
X63230862Y-101354673D01*
X63102189Y-101490266D01*
X62966821Y-101678651D01*
X62910828Y-101722297D01*
X62840124Y-101728743D01*
X62777160Y-101695940D01*
X62741926Y-101634304D01*
X62738500Y-101605123D01*
X62738500Y-100346457D01*
X62758502Y-100278336D01*
X62812158Y-100231843D01*
X62882432Y-100221739D01*
X62917749Y-100232262D01*
X62973233Y-100258134D01*
X63016340Y-100278235D01*
X63050757Y-100294284D01*
X63056065Y-100295706D01*
X63056067Y-100295707D01*
X63266598Y-100352119D01*
X63266600Y-100352119D01*
X63271913Y-100353543D01*
X63500000Y-100373498D01*
X63728087Y-100353543D01*
X63733400Y-100352119D01*
X63733402Y-100352119D01*
X63943933Y-100295707D01*
X63943935Y-100295706D01*
X63949243Y-100294284D01*
X63983444Y-100278336D01*
X64151762Y-100199849D01*
X64151767Y-100199846D01*
X64156749Y-100197523D01*
X64261611Y-100124098D01*
X64339789Y-100069357D01*
X64339792Y-100069355D01*
X64344300Y-100066198D01*
X64506198Y-99904300D01*
X64532852Y-99866235D01*
X64594379Y-99778365D01*
X64637523Y-99716749D01*
X64639846Y-99711767D01*
X64639849Y-99711762D01*
X64731961Y-99514225D01*
X64731961Y-99514224D01*
X64734284Y-99509243D01*
X64736428Y-99501244D01*
X64792119Y-99293402D01*
X64792119Y-99293400D01*
X64793543Y-99288087D01*
X64813498Y-99060000D01*
X64793543Y-98831913D01*
X64785260Y-98801000D01*
X64735707Y-98616067D01*
X64735706Y-98616065D01*
X64734284Y-98610757D01*
X64696196Y-98529076D01*
X64639849Y-98408238D01*
X64639846Y-98408233D01*
X64637523Y-98403251D01*
X64542510Y-98267559D01*
X64509357Y-98220211D01*
X64509355Y-98220208D01*
X64506198Y-98215700D01*
X64344300Y-98053802D01*
X64339792Y-98050645D01*
X64339789Y-98050643D01*
X64261611Y-97995902D01*
X64156749Y-97922477D01*
X64151767Y-97920154D01*
X64151762Y-97920151D01*
X64117543Y-97904195D01*
X64064258Y-97857278D01*
X64044797Y-97789001D01*
X64065339Y-97721041D01*
X64117543Y-97675805D01*
X64151762Y-97659849D01*
X64151767Y-97659846D01*
X64156749Y-97657523D01*
X64286820Y-97566446D01*
X64339789Y-97529357D01*
X64339792Y-97529355D01*
X64344300Y-97526198D01*
X64506198Y-97364300D01*
X64637523Y-97176749D01*
X64639846Y-97171767D01*
X64639849Y-97171762D01*
X64731961Y-96974225D01*
X64731961Y-96974224D01*
X64734284Y-96969243D01*
X64772600Y-96826249D01*
X64792119Y-96753402D01*
X64792119Y-96753400D01*
X64793543Y-96748087D01*
X64813498Y-96520000D01*
X64793543Y-96291913D01*
X64759387Y-96164441D01*
X64735707Y-96076067D01*
X64735706Y-96076065D01*
X64734284Y-96070757D01*
X64711100Y-96021038D01*
X64639849Y-95868238D01*
X64639846Y-95868233D01*
X64637523Y-95863251D01*
X64543515Y-95728994D01*
X64509357Y-95680211D01*
X64509355Y-95680208D01*
X64506198Y-95675700D01*
X64344300Y-95513802D01*
X64339792Y-95510645D01*
X64339789Y-95510643D01*
X64261611Y-95455902D01*
X64156749Y-95382477D01*
X64151767Y-95380154D01*
X64151762Y-95380151D01*
X64117543Y-95364195D01*
X64064258Y-95317278D01*
X64044797Y-95249001D01*
X64065339Y-95181041D01*
X64117543Y-95135805D01*
X64151762Y-95119849D01*
X64151767Y-95119846D01*
X64156749Y-95117523D01*
X64270863Y-95037619D01*
X64339789Y-94989357D01*
X64339792Y-94989355D01*
X64344300Y-94986198D01*
X64506198Y-94824300D01*
X64510071Y-94818770D01*
X64564098Y-94741611D01*
X64637523Y-94636749D01*
X64639846Y-94631767D01*
X64639849Y-94631762D01*
X64731961Y-94434225D01*
X64731961Y-94434224D01*
X64734284Y-94429243D01*
X64749486Y-94372511D01*
X64792119Y-94213402D01*
X64792119Y-94213400D01*
X64793543Y-94208087D01*
X64813498Y-93980000D01*
X64793543Y-93751913D01*
X64776447Y-93688109D01*
X64735707Y-93536067D01*
X64735706Y-93536065D01*
X64734284Y-93530757D01*
X64709946Y-93478564D01*
X64639849Y-93328238D01*
X64639846Y-93328233D01*
X64637523Y-93323251D01*
X64564098Y-93218389D01*
X64509357Y-93140211D01*
X64509355Y-93140208D01*
X64506198Y-93135700D01*
X64344300Y-92973802D01*
X64339792Y-92970645D01*
X64339789Y-92970643D01*
X64261611Y-92915902D01*
X64156749Y-92842477D01*
X64151767Y-92840154D01*
X64151762Y-92840151D01*
X64117543Y-92824195D01*
X64064258Y-92777278D01*
X64044797Y-92709001D01*
X64065339Y-92641041D01*
X64117543Y-92595805D01*
X64151762Y-92579849D01*
X64151767Y-92579846D01*
X64156749Y-92577523D01*
X64288557Y-92485230D01*
X64339789Y-92449357D01*
X64339792Y-92449355D01*
X64344300Y-92446198D01*
X64506198Y-92284300D01*
X64637523Y-92096749D01*
X64639846Y-92091767D01*
X64639849Y-92091762D01*
X64731961Y-91894225D01*
X64731961Y-91894224D01*
X64734284Y-91889243D01*
X64793543Y-91668087D01*
X64813498Y-91440000D01*
X64793543Y-91211913D01*
X64790335Y-91199940D01*
X64735707Y-90996067D01*
X64735706Y-90996065D01*
X64734284Y-90990757D01*
X64728289Y-90977901D01*
X64639849Y-90788238D01*
X64639846Y-90788233D01*
X64637523Y-90783251D01*
X64506198Y-90595700D01*
X64344300Y-90433802D01*
X64339792Y-90430645D01*
X64339789Y-90430643D01*
X64261611Y-90375902D01*
X64156749Y-90302477D01*
X64151767Y-90300154D01*
X64151762Y-90300151D01*
X64117543Y-90284195D01*
X64064258Y-90237278D01*
X64044797Y-90169001D01*
X64065339Y-90101041D01*
X64117543Y-90055805D01*
X64151762Y-90039849D01*
X64151767Y-90039846D01*
X64156749Y-90037523D01*
X64261611Y-89964098D01*
X64339789Y-89909357D01*
X64339792Y-89909355D01*
X64344300Y-89906198D01*
X64506198Y-89744300D01*
X64637523Y-89556749D01*
X64639846Y-89551767D01*
X64639849Y-89551762D01*
X64731961Y-89354225D01*
X64731961Y-89354224D01*
X64734284Y-89349243D01*
X64793543Y-89128087D01*
X64813498Y-88900000D01*
X64793543Y-88671913D01*
X64791868Y-88665663D01*
X64735707Y-88456067D01*
X64735706Y-88456065D01*
X64734284Y-88450757D01*
X64731961Y-88445775D01*
X64639849Y-88248238D01*
X64639846Y-88248233D01*
X64637523Y-88243251D01*
X64506198Y-88055700D01*
X64344300Y-87893802D01*
X64339792Y-87890645D01*
X64339789Y-87890643D01*
X64261611Y-87835902D01*
X64156749Y-87762477D01*
X64151767Y-87760154D01*
X64151762Y-87760151D01*
X64117543Y-87744195D01*
X64064258Y-87697278D01*
X64044797Y-87629001D01*
X64065339Y-87561041D01*
X64117543Y-87515805D01*
X64151762Y-87499849D01*
X64151767Y-87499846D01*
X64156749Y-87497523D01*
X64283545Y-87408739D01*
X64339789Y-87369357D01*
X64339792Y-87369355D01*
X64344300Y-87366198D01*
X64506198Y-87204300D01*
X64637523Y-87016749D01*
X64639846Y-87011767D01*
X64639849Y-87011762D01*
X64731961Y-86814225D01*
X64731961Y-86814224D01*
X64734284Y-86809243D01*
X64793543Y-86588087D01*
X64813498Y-86360000D01*
X64793543Y-86131913D01*
X64734284Y-85910757D01*
X64731961Y-85905775D01*
X64639849Y-85708238D01*
X64639846Y-85708233D01*
X64637523Y-85703251D01*
X64506198Y-85515700D01*
X64344300Y-85353802D01*
X64339792Y-85350645D01*
X64339789Y-85350643D01*
X64261611Y-85295902D01*
X64156749Y-85222477D01*
X64151767Y-85220154D01*
X64151762Y-85220151D01*
X64117543Y-85204195D01*
X64064258Y-85157278D01*
X64044797Y-85089001D01*
X64065339Y-85021041D01*
X64117543Y-84975805D01*
X64151762Y-84959849D01*
X64151767Y-84959846D01*
X64156749Y-84957523D01*
X64261611Y-84884098D01*
X64339789Y-84829357D01*
X64339792Y-84829355D01*
X64344300Y-84826198D01*
X64506198Y-84664300D01*
X64637523Y-84476749D01*
X64639846Y-84471767D01*
X64639849Y-84471762D01*
X64731961Y-84274225D01*
X64731961Y-84274224D01*
X64734284Y-84269243D01*
X64793543Y-84048087D01*
X64813498Y-83820000D01*
X64793543Y-83591913D01*
X64734284Y-83370757D01*
X64731961Y-83365775D01*
X64639849Y-83168238D01*
X64639846Y-83168233D01*
X64637523Y-83163251D01*
X64506198Y-82975700D01*
X64344300Y-82813802D01*
X64339792Y-82810645D01*
X64339789Y-82810643D01*
X64261611Y-82755902D01*
X64156749Y-82682477D01*
X64151767Y-82680154D01*
X64151762Y-82680151D01*
X64117543Y-82664195D01*
X64064258Y-82617278D01*
X64044797Y-82549001D01*
X64065339Y-82481041D01*
X64117543Y-82435805D01*
X64151762Y-82419849D01*
X64151767Y-82419846D01*
X64156749Y-82417523D01*
X64261611Y-82344098D01*
X64339789Y-82289357D01*
X64339792Y-82289355D01*
X64344300Y-82286198D01*
X64506198Y-82124300D01*
X64637523Y-81936749D01*
X64639846Y-81931767D01*
X64639849Y-81931762D01*
X64731961Y-81734225D01*
X64731961Y-81734224D01*
X64734284Y-81729243D01*
X64793543Y-81508087D01*
X64813498Y-81280000D01*
X64793543Y-81051913D01*
X64734284Y-80830757D01*
X64731961Y-80825775D01*
X64639849Y-80628238D01*
X64639846Y-80628233D01*
X64637523Y-80623251D01*
X64506198Y-80435700D01*
X64344300Y-80273802D01*
X64339792Y-80270645D01*
X64339789Y-80270643D01*
X64261611Y-80215902D01*
X64156749Y-80142477D01*
X64151767Y-80140154D01*
X64151762Y-80140151D01*
X64117543Y-80124195D01*
X64064258Y-80077278D01*
X64044797Y-80009001D01*
X64065339Y-79941041D01*
X64117543Y-79895805D01*
X64151762Y-79879849D01*
X64151767Y-79879846D01*
X64156749Y-79877523D01*
X64261611Y-79804098D01*
X64339789Y-79749357D01*
X64339792Y-79749355D01*
X64344300Y-79746198D01*
X64506198Y-79584300D01*
X64637523Y-79396749D01*
X64639846Y-79391767D01*
X64639849Y-79391762D01*
X64731961Y-79194225D01*
X64731961Y-79194224D01*
X64734284Y-79189243D01*
X64793543Y-78968087D01*
X64813498Y-78740000D01*
X64793543Y-78511913D01*
X64734284Y-78290757D01*
X64731961Y-78285775D01*
X64639849Y-78088238D01*
X64639846Y-78088233D01*
X64637523Y-78083251D01*
X64506198Y-77895700D01*
X64344300Y-77733802D01*
X64339792Y-77730645D01*
X64339789Y-77730643D01*
X64261611Y-77675902D01*
X64156749Y-77602477D01*
X64151767Y-77600154D01*
X64151762Y-77600151D01*
X64117543Y-77584195D01*
X64064258Y-77537278D01*
X64044797Y-77469001D01*
X64065339Y-77401041D01*
X64117543Y-77355805D01*
X64151762Y-77339849D01*
X64151767Y-77339846D01*
X64156749Y-77337523D01*
X64316314Y-77225794D01*
X64339789Y-77209357D01*
X64339792Y-77209355D01*
X64344300Y-77206198D01*
X64506198Y-77044300D01*
X64637523Y-76856749D01*
X64639846Y-76851767D01*
X64639849Y-76851762D01*
X64731961Y-76654225D01*
X64731961Y-76654224D01*
X64734284Y-76649243D01*
X64751188Y-76586159D01*
X64792119Y-76433402D01*
X64792119Y-76433400D01*
X64793543Y-76428087D01*
X64813498Y-76200000D01*
X64793543Y-75971913D01*
X64734284Y-75750757D01*
X64726716Y-75734528D01*
X64639849Y-75548238D01*
X64639846Y-75548233D01*
X64637523Y-75543251D01*
X64506198Y-75355700D01*
X64344300Y-75193802D01*
X64339792Y-75190645D01*
X64339789Y-75190643D01*
X64261611Y-75135902D01*
X64156749Y-75062477D01*
X64151767Y-75060154D01*
X64151762Y-75060151D01*
X64117543Y-75044195D01*
X64064258Y-74997278D01*
X64044797Y-74929001D01*
X64065339Y-74861041D01*
X64117543Y-74815805D01*
X64151762Y-74799849D01*
X64151767Y-74799846D01*
X64156749Y-74797523D01*
X64261611Y-74724098D01*
X64339789Y-74669357D01*
X64339792Y-74669355D01*
X64344300Y-74666198D01*
X64506198Y-74504300D01*
X64637523Y-74316749D01*
X64639846Y-74311767D01*
X64639849Y-74311762D01*
X64731961Y-74114225D01*
X64731961Y-74114224D01*
X64734284Y-74109243D01*
X64793543Y-73888087D01*
X64813498Y-73660000D01*
X64793543Y-73431913D01*
X64734284Y-73210757D01*
X64731961Y-73205775D01*
X64639849Y-73008238D01*
X64639846Y-73008233D01*
X64637523Y-73003251D01*
X64547645Y-72874892D01*
X64509357Y-72820211D01*
X64509355Y-72820208D01*
X64506198Y-72815700D01*
X64344300Y-72653802D01*
X64339792Y-72650645D01*
X64339789Y-72650643D01*
X64261611Y-72595902D01*
X64156749Y-72522477D01*
X64151767Y-72520154D01*
X64151762Y-72520151D01*
X64117543Y-72504195D01*
X64064258Y-72457278D01*
X64044797Y-72389001D01*
X64065339Y-72321041D01*
X64117543Y-72275805D01*
X64151762Y-72259849D01*
X64151767Y-72259846D01*
X64156749Y-72257523D01*
X64261611Y-72184098D01*
X64339789Y-72129357D01*
X64339792Y-72129355D01*
X64344300Y-72126198D01*
X64506198Y-71964300D01*
X64637523Y-71776749D01*
X64639846Y-71771767D01*
X64639849Y-71771762D01*
X64731961Y-71574225D01*
X64731961Y-71574224D01*
X64734284Y-71569243D01*
X64793543Y-71348087D01*
X64813498Y-71120000D01*
X64793543Y-70891913D01*
X64734284Y-70670757D01*
X64731961Y-70665775D01*
X64639849Y-70468238D01*
X64639846Y-70468233D01*
X64637523Y-70463251D01*
X64506198Y-70275700D01*
X64344300Y-70113802D01*
X64339792Y-70110645D01*
X64339789Y-70110643D01*
X64261611Y-70055902D01*
X64156749Y-69982477D01*
X64151767Y-69980154D01*
X64151762Y-69980151D01*
X64117543Y-69964195D01*
X64064258Y-69917278D01*
X64044797Y-69849001D01*
X64065339Y-69781041D01*
X64117543Y-69735805D01*
X64151762Y-69719849D01*
X64151767Y-69719846D01*
X64156749Y-69717523D01*
X64261611Y-69644098D01*
X64339789Y-69589357D01*
X64339792Y-69589355D01*
X64344300Y-69586198D01*
X64506198Y-69424300D01*
X64637523Y-69236749D01*
X64639846Y-69231767D01*
X64639849Y-69231762D01*
X64731961Y-69034225D01*
X64731961Y-69034224D01*
X64734284Y-69029243D01*
X64793543Y-68808087D01*
X64813498Y-68580000D01*
X64793543Y-68351913D01*
X64734284Y-68130757D01*
X64731961Y-68125775D01*
X64639849Y-67928238D01*
X64639846Y-67928233D01*
X64637523Y-67923251D01*
X64506198Y-67735700D01*
X64344300Y-67573802D01*
X64339792Y-67570645D01*
X64339789Y-67570643D01*
X64261611Y-67515902D01*
X64156749Y-67442477D01*
X64151767Y-67440154D01*
X64151762Y-67440151D01*
X64117543Y-67424195D01*
X64064258Y-67377278D01*
X64044797Y-67309001D01*
X64065339Y-67241041D01*
X64117543Y-67195805D01*
X64151762Y-67179849D01*
X64151767Y-67179846D01*
X64156749Y-67177523D01*
X64261611Y-67104098D01*
X64339789Y-67049357D01*
X64339792Y-67049355D01*
X64344300Y-67046198D01*
X64506198Y-66884300D01*
X64637523Y-66696749D01*
X64639846Y-66691767D01*
X64639849Y-66691762D01*
X64731961Y-66494225D01*
X64731961Y-66494224D01*
X64734284Y-66489243D01*
X64793543Y-66268087D01*
X64813498Y-66040000D01*
X64793543Y-65811913D01*
X64792119Y-65806598D01*
X64764807Y-65704669D01*
X68674501Y-65704669D01*
X68674871Y-65711490D01*
X68680395Y-65762352D01*
X68684021Y-65777604D01*
X68729176Y-65898054D01*
X68737714Y-65913649D01*
X68814215Y-66015724D01*
X68826776Y-66028285D01*
X68928851Y-66104786D01*
X68944446Y-66113324D01*
X69064894Y-66158478D01*
X69080149Y-66162105D01*
X69131014Y-66167631D01*
X69137828Y-66168000D01*
X69470385Y-66168000D01*
X69485624Y-66163525D01*
X69486829Y-66162135D01*
X69488500Y-66154452D01*
X69488500Y-66149884D01*
X69996500Y-66149884D01*
X70000975Y-66165123D01*
X70002365Y-66166328D01*
X70010048Y-66167999D01*
X70347169Y-66167999D01*
X70353990Y-66167629D01*
X70404852Y-66162105D01*
X70420104Y-66158479D01*
X70540554Y-66113324D01*
X70556149Y-66104786D01*
X70658224Y-66028285D01*
X70670785Y-66015724D01*
X70747286Y-65913649D01*
X70755824Y-65898054D01*
X70800978Y-65777606D01*
X70804605Y-65762351D01*
X70810131Y-65711486D01*
X70810500Y-65704672D01*
X70810500Y-65704669D01*
X71214501Y-65704669D01*
X71214871Y-65711490D01*
X71220395Y-65762352D01*
X71224021Y-65777604D01*
X71269176Y-65898054D01*
X71277714Y-65913649D01*
X71354215Y-66015724D01*
X71366776Y-66028285D01*
X71468851Y-66104786D01*
X71484446Y-66113324D01*
X71604894Y-66158478D01*
X71620149Y-66162105D01*
X71671014Y-66167631D01*
X71677828Y-66168000D01*
X72010385Y-66168000D01*
X72025624Y-66163525D01*
X72026829Y-66162135D01*
X72028500Y-66154452D01*
X72028500Y-66149884D01*
X72536500Y-66149884D01*
X72540975Y-66165123D01*
X72542365Y-66166328D01*
X72550048Y-66167999D01*
X72887169Y-66167999D01*
X72893990Y-66167629D01*
X72944852Y-66162105D01*
X72960104Y-66158479D01*
X73080554Y-66113324D01*
X73096149Y-66104786D01*
X73198224Y-66028285D01*
X73210785Y-66015724D01*
X73287286Y-65913649D01*
X73295824Y-65898054D01*
X73340978Y-65777606D01*
X73344605Y-65762351D01*
X73350131Y-65711486D01*
X73350500Y-65704672D01*
X73350500Y-65704669D01*
X73754501Y-65704669D01*
X73754871Y-65711490D01*
X73760395Y-65762352D01*
X73764021Y-65777604D01*
X73809176Y-65898054D01*
X73817714Y-65913649D01*
X73894215Y-66015724D01*
X73906776Y-66028285D01*
X74008851Y-66104786D01*
X74024446Y-66113324D01*
X74144894Y-66158478D01*
X74160149Y-66162105D01*
X74211014Y-66167631D01*
X74217828Y-66168000D01*
X74550385Y-66168000D01*
X74565624Y-66163525D01*
X74566829Y-66162135D01*
X74568500Y-66154452D01*
X74568500Y-66149884D01*
X75076500Y-66149884D01*
X75080975Y-66165123D01*
X75082365Y-66166328D01*
X75090048Y-66167999D01*
X75427169Y-66167999D01*
X75433990Y-66167629D01*
X75484852Y-66162105D01*
X75500104Y-66158479D01*
X75620554Y-66113324D01*
X75636149Y-66104786D01*
X75738224Y-66028285D01*
X75750785Y-66015724D01*
X75827286Y-65913649D01*
X75835824Y-65898054D01*
X75880978Y-65777606D01*
X75884605Y-65762351D01*
X75890131Y-65711486D01*
X75890500Y-65704672D01*
X75890500Y-65704669D01*
X76294501Y-65704669D01*
X76294871Y-65711490D01*
X76300395Y-65762352D01*
X76304021Y-65777604D01*
X76349176Y-65898054D01*
X76357714Y-65913649D01*
X76434215Y-66015724D01*
X76446776Y-66028285D01*
X76548851Y-66104786D01*
X76564446Y-66113324D01*
X76684894Y-66158478D01*
X76700149Y-66162105D01*
X76751014Y-66167631D01*
X76757828Y-66168000D01*
X77090385Y-66168000D01*
X77105624Y-66163525D01*
X77106829Y-66162135D01*
X77108500Y-66154452D01*
X77108500Y-66149884D01*
X77616500Y-66149884D01*
X77620975Y-66165123D01*
X77622365Y-66166328D01*
X77630048Y-66167999D01*
X77967169Y-66167999D01*
X77973990Y-66167629D01*
X78024852Y-66162105D01*
X78040104Y-66158479D01*
X78160554Y-66113324D01*
X78176149Y-66104786D01*
X78278224Y-66028285D01*
X78290785Y-66015724D01*
X78367286Y-65913649D01*
X78375824Y-65898054D01*
X78420978Y-65777606D01*
X78424605Y-65762351D01*
X78430131Y-65711486D01*
X78430500Y-65704672D01*
X78430500Y-64852115D01*
X78426025Y-64836876D01*
X78424635Y-64835671D01*
X78416952Y-64834000D01*
X77634615Y-64834000D01*
X77619376Y-64838475D01*
X77618171Y-64839865D01*
X77616500Y-64847548D01*
X77616500Y-66149884D01*
X77108500Y-66149884D01*
X77108500Y-64852115D01*
X77104025Y-64836876D01*
X77102635Y-64835671D01*
X77094952Y-64834000D01*
X76312616Y-64834000D01*
X76297377Y-64838475D01*
X76296172Y-64839865D01*
X76294501Y-64847548D01*
X76294501Y-65704669D01*
X75890500Y-65704669D01*
X75890500Y-64852115D01*
X75886025Y-64836876D01*
X75884635Y-64835671D01*
X75876952Y-64834000D01*
X75094615Y-64834000D01*
X75079376Y-64838475D01*
X75078171Y-64839865D01*
X75076500Y-64847548D01*
X75076500Y-66149884D01*
X74568500Y-66149884D01*
X74568500Y-64852115D01*
X74564025Y-64836876D01*
X74562635Y-64835671D01*
X74554952Y-64834000D01*
X73772616Y-64834000D01*
X73757377Y-64838475D01*
X73756172Y-64839865D01*
X73754501Y-64847548D01*
X73754501Y-65704669D01*
X73350500Y-65704669D01*
X73350500Y-64852115D01*
X73346025Y-64836876D01*
X73344635Y-64835671D01*
X73336952Y-64834000D01*
X72554615Y-64834000D01*
X72539376Y-64838475D01*
X72538171Y-64839865D01*
X72536500Y-64847548D01*
X72536500Y-66149884D01*
X72028500Y-66149884D01*
X72028500Y-64852115D01*
X72024025Y-64836876D01*
X72022635Y-64835671D01*
X72014952Y-64834000D01*
X71232616Y-64834000D01*
X71217377Y-64838475D01*
X71216172Y-64839865D01*
X71214501Y-64847548D01*
X71214501Y-65704669D01*
X70810500Y-65704669D01*
X70810500Y-64852115D01*
X70806025Y-64836876D01*
X70804635Y-64835671D01*
X70796952Y-64834000D01*
X70014615Y-64834000D01*
X69999376Y-64838475D01*
X69998171Y-64839865D01*
X69996500Y-64847548D01*
X69996500Y-66149884D01*
X69488500Y-66149884D01*
X69488500Y-64852115D01*
X69484025Y-64836876D01*
X69482635Y-64835671D01*
X69474952Y-64834000D01*
X68692616Y-64834000D01*
X68677377Y-64838475D01*
X68676172Y-64839865D01*
X68674501Y-64847548D01*
X68674501Y-65704669D01*
X64764807Y-65704669D01*
X64735707Y-65596067D01*
X64735706Y-65596065D01*
X64734284Y-65590757D01*
X64731961Y-65585775D01*
X64639849Y-65388238D01*
X64639846Y-65388233D01*
X64637523Y-65383251D01*
X64506198Y-65195700D01*
X64344300Y-65033802D01*
X64339792Y-65030645D01*
X64339789Y-65030643D01*
X64261611Y-64975902D01*
X64156749Y-64902477D01*
X64151767Y-64900154D01*
X64151762Y-64900151D01*
X64116951Y-64883919D01*
X64063666Y-64837002D01*
X64044205Y-64768725D01*
X64064747Y-64700765D01*
X64116951Y-64655529D01*
X64151511Y-64639414D01*
X64161006Y-64633931D01*
X64213048Y-64597491D01*
X64221424Y-64587012D01*
X64214356Y-64573566D01*
X63948675Y-64307885D01*
X68674500Y-64307885D01*
X68678975Y-64323124D01*
X68680365Y-64324329D01*
X68688048Y-64326000D01*
X69470385Y-64326000D01*
X69485624Y-64321525D01*
X69486829Y-64320135D01*
X69488500Y-64312452D01*
X69488500Y-64307885D01*
X69996500Y-64307885D01*
X70000975Y-64323124D01*
X70002365Y-64324329D01*
X70010048Y-64326000D01*
X70792384Y-64326000D01*
X70807623Y-64321525D01*
X70808828Y-64320135D01*
X70810499Y-64312452D01*
X70810499Y-64307885D01*
X71214500Y-64307885D01*
X71218975Y-64323124D01*
X71220365Y-64324329D01*
X71228048Y-64326000D01*
X72010385Y-64326000D01*
X72025624Y-64321525D01*
X72026829Y-64320135D01*
X72028500Y-64312452D01*
X72028500Y-64307885D01*
X72536500Y-64307885D01*
X72540975Y-64323124D01*
X72542365Y-64324329D01*
X72550048Y-64326000D01*
X73332384Y-64326000D01*
X73347623Y-64321525D01*
X73348828Y-64320135D01*
X73350499Y-64312452D01*
X73350499Y-64307885D01*
X73754500Y-64307885D01*
X73758975Y-64323124D01*
X73760365Y-64324329D01*
X73768048Y-64326000D01*
X74550385Y-64326000D01*
X74565624Y-64321525D01*
X74566829Y-64320135D01*
X74568500Y-64312452D01*
X74568500Y-64307885D01*
X75076500Y-64307885D01*
X75080975Y-64323124D01*
X75082365Y-64324329D01*
X75090048Y-64326000D01*
X75872384Y-64326000D01*
X75887623Y-64321525D01*
X75888828Y-64320135D01*
X75890499Y-64312452D01*
X75890499Y-64307885D01*
X76294500Y-64307885D01*
X76298975Y-64323124D01*
X76300365Y-64324329D01*
X76308048Y-64326000D01*
X77090385Y-64326000D01*
X77105624Y-64321525D01*
X77106829Y-64320135D01*
X77108500Y-64312452D01*
X77108500Y-64307885D01*
X77616500Y-64307885D01*
X77620975Y-64323124D01*
X77622365Y-64324329D01*
X77630048Y-64326000D01*
X78412384Y-64326000D01*
X78427623Y-64321525D01*
X78428828Y-64320135D01*
X78430499Y-64312452D01*
X78430499Y-63455331D01*
X78430129Y-63448510D01*
X78424605Y-63397648D01*
X78420979Y-63382396D01*
X78375824Y-63261946D01*
X78367286Y-63246351D01*
X78290785Y-63144276D01*
X78278224Y-63131715D01*
X78176149Y-63055214D01*
X78160554Y-63046676D01*
X78040106Y-63001522D01*
X78024851Y-62997895D01*
X77973986Y-62992369D01*
X77967172Y-62992000D01*
X77634615Y-62992000D01*
X77619376Y-62996475D01*
X77618171Y-62997865D01*
X77616500Y-63005548D01*
X77616500Y-64307885D01*
X77108500Y-64307885D01*
X77108500Y-63010116D01*
X77104025Y-62994877D01*
X77102635Y-62993672D01*
X77094952Y-62992001D01*
X76757831Y-62992001D01*
X76751010Y-62992371D01*
X76700148Y-62997895D01*
X76684896Y-63001521D01*
X76564446Y-63046676D01*
X76548851Y-63055214D01*
X76446776Y-63131715D01*
X76434215Y-63144276D01*
X76357714Y-63246351D01*
X76349176Y-63261946D01*
X76304022Y-63382394D01*
X76300395Y-63397649D01*
X76294869Y-63448514D01*
X76294500Y-63455328D01*
X76294500Y-64307885D01*
X75890499Y-64307885D01*
X75890499Y-63455331D01*
X75890129Y-63448510D01*
X75884605Y-63397648D01*
X75880979Y-63382396D01*
X75835824Y-63261946D01*
X75827286Y-63246351D01*
X75750785Y-63144276D01*
X75738224Y-63131715D01*
X75636149Y-63055214D01*
X75620554Y-63046676D01*
X75500106Y-63001522D01*
X75484851Y-62997895D01*
X75433986Y-62992369D01*
X75427172Y-62992000D01*
X75094615Y-62992000D01*
X75079376Y-62996475D01*
X75078171Y-62997865D01*
X75076500Y-63005548D01*
X75076500Y-64307885D01*
X74568500Y-64307885D01*
X74568500Y-63010116D01*
X74564025Y-62994877D01*
X74562635Y-62993672D01*
X74554952Y-62992001D01*
X74217831Y-62992001D01*
X74211010Y-62992371D01*
X74160148Y-62997895D01*
X74144896Y-63001521D01*
X74024446Y-63046676D01*
X74008851Y-63055214D01*
X73906776Y-63131715D01*
X73894215Y-63144276D01*
X73817714Y-63246351D01*
X73809176Y-63261946D01*
X73764022Y-63382394D01*
X73760395Y-63397649D01*
X73754869Y-63448514D01*
X73754500Y-63455328D01*
X73754500Y-64307885D01*
X73350499Y-64307885D01*
X73350499Y-63455331D01*
X73350129Y-63448510D01*
X73344605Y-63397648D01*
X73340979Y-63382396D01*
X73295824Y-63261946D01*
X73287286Y-63246351D01*
X73210785Y-63144276D01*
X73198224Y-63131715D01*
X73096149Y-63055214D01*
X73080554Y-63046676D01*
X72960106Y-63001522D01*
X72944851Y-62997895D01*
X72893986Y-62992369D01*
X72887172Y-62992000D01*
X72554615Y-62992000D01*
X72539376Y-62996475D01*
X72538171Y-62997865D01*
X72536500Y-63005548D01*
X72536500Y-64307885D01*
X72028500Y-64307885D01*
X72028500Y-63010116D01*
X72024025Y-62994877D01*
X72022635Y-62993672D01*
X72014952Y-62992001D01*
X71677831Y-62992001D01*
X71671010Y-62992371D01*
X71620148Y-62997895D01*
X71604896Y-63001521D01*
X71484446Y-63046676D01*
X71468851Y-63055214D01*
X71366776Y-63131715D01*
X71354215Y-63144276D01*
X71277714Y-63246351D01*
X71269176Y-63261946D01*
X71224022Y-63382394D01*
X71220395Y-63397649D01*
X71214869Y-63448514D01*
X71214500Y-63455328D01*
X71214500Y-64307885D01*
X70810499Y-64307885D01*
X70810499Y-63455331D01*
X70810129Y-63448510D01*
X70804605Y-63397648D01*
X70800979Y-63382396D01*
X70755824Y-63261946D01*
X70747286Y-63246351D01*
X70670785Y-63144276D01*
X70658224Y-63131715D01*
X70556149Y-63055214D01*
X70540554Y-63046676D01*
X70420106Y-63001522D01*
X70404851Y-62997895D01*
X70353986Y-62992369D01*
X70347172Y-62992000D01*
X70014615Y-62992000D01*
X69999376Y-62996475D01*
X69998171Y-62997865D01*
X69996500Y-63005548D01*
X69996500Y-64307885D01*
X69488500Y-64307885D01*
X69488500Y-63010116D01*
X69484025Y-62994877D01*
X69482635Y-62993672D01*
X69474952Y-62992001D01*
X69137831Y-62992001D01*
X69131010Y-62992371D01*
X69080148Y-62997895D01*
X69064896Y-63001521D01*
X68944446Y-63046676D01*
X68928851Y-63055214D01*
X68826776Y-63131715D01*
X68814215Y-63144276D01*
X68737714Y-63246351D01*
X68729176Y-63261946D01*
X68684022Y-63382394D01*
X68680395Y-63397649D01*
X68674869Y-63448514D01*
X68674500Y-63455328D01*
X68674500Y-64307885D01*
X63948675Y-64307885D01*
X63229885Y-63589095D01*
X63195859Y-63526783D01*
X63197694Y-63501132D01*
X63864408Y-63501132D01*
X63864539Y-63502965D01*
X63868790Y-63509580D01*
X64574287Y-64215077D01*
X64586062Y-64221507D01*
X64598077Y-64212211D01*
X64633931Y-64161006D01*
X64639414Y-64151511D01*
X64731490Y-63954053D01*
X64735236Y-63943761D01*
X64791625Y-63733312D01*
X64793528Y-63722519D01*
X64812517Y-63505475D01*
X64812517Y-63494525D01*
X64793528Y-63277481D01*
X64791625Y-63266688D01*
X64735236Y-63056239D01*
X64731490Y-63045947D01*
X64639414Y-62848489D01*
X64633931Y-62838994D01*
X64597491Y-62786952D01*
X64587012Y-62778576D01*
X64573566Y-62785644D01*
X63872022Y-63487188D01*
X63864408Y-63501132D01*
X63197694Y-63501132D01*
X63200924Y-63455968D01*
X63229885Y-63410905D01*
X64215077Y-62425713D01*
X64222691Y-62411769D01*
X64222099Y-62403490D01*
X64237190Y-62334116D01*
X64287392Y-62283913D01*
X64341398Y-62270128D01*
X64341320Y-62268684D01*
X64344718Y-62268500D01*
X64348134Y-62268500D01*
X64410316Y-62261745D01*
X64546705Y-62210615D01*
X64663261Y-62123261D01*
X64750615Y-62006705D01*
X64801745Y-61870316D01*
X64808500Y-61808134D01*
X64808500Y-60111866D01*
X64801745Y-60049684D01*
X64750615Y-59913295D01*
X64663261Y-59796739D01*
X64546705Y-59709385D01*
X64410316Y-59658255D01*
X64348134Y-59651500D01*
X62864500Y-59651500D01*
X62796379Y-59631498D01*
X62749886Y-59577842D01*
X62738500Y-59525500D01*
X62738500Y-58412630D01*
X62758502Y-58344509D01*
X62812158Y-58298016D01*
X62882432Y-58287912D01*
X62947012Y-58317406D01*
X62968340Y-58341263D01*
X63073659Y-58494503D01*
X63271824Y-58712283D01*
X63497712Y-58901154D01*
X63501353Y-58903438D01*
X63743502Y-59055339D01*
X63743506Y-59055341D01*
X63747142Y-59057622D01*
X64015500Y-59178790D01*
X64019619Y-59180010D01*
X64293706Y-59261199D01*
X64293711Y-59261200D01*
X64297819Y-59262417D01*
X64302053Y-59263065D01*
X64302058Y-59263066D01*
X64559396Y-59302444D01*
X64588875Y-59306955D01*
X64738772Y-59309310D01*
X64878993Y-59311513D01*
X64878999Y-59311513D01*
X64883284Y-59311580D01*
X65175595Y-59276206D01*
X65460402Y-59201488D01*
X65732433Y-59088809D01*
X65782782Y-59059388D01*
X65982957Y-58942415D01*
X65982958Y-58942415D01*
X65986655Y-58940254D01*
X65990015Y-58937620D01*
X65990023Y-58937614D01*
X66214992Y-58761215D01*
X66218364Y-58758571D01*
X66423272Y-58547123D01*
X66425805Y-58543675D01*
X66425809Y-58543670D01*
X66595049Y-58313277D01*
X66597587Y-58309822D01*
X66629066Y-58251844D01*
X66736033Y-58054835D01*
X66736034Y-58054833D01*
X66738083Y-58051059D01*
X66842162Y-57775623D01*
X66907897Y-57488610D01*
X66934071Y-57195331D01*
X66934415Y-57162552D01*
X66934520Y-57152484D01*
X66934520Y-57152483D01*
X66934546Y-57150000D01*
X66933761Y-57138491D01*
X66914811Y-56860514D01*
X66914810Y-56860508D01*
X66914519Y-56856237D01*
X66854810Y-56567911D01*
X66756522Y-56290355D01*
X66621475Y-56028707D01*
X66452168Y-55787807D01*
X66251734Y-55572114D01*
X66248419Y-55569400D01*
X66248415Y-55569397D01*
X66027199Y-55388334D01*
X66023881Y-55385618D01*
X65975022Y-55355677D01*
X65968912Y-55351933D01*
X65921281Y-55299285D01*
X65909674Y-55229244D01*
X65937777Y-55164046D01*
X65996667Y-55124392D01*
X66034747Y-55118500D01*
X81283324Y-55118500D01*
X81351445Y-55138502D01*
G37*
G04 #@! TD.AperFunction*
M02*
